<svg width="132" height="40" viewBox="0 0 132 40" fill="none" xmlns="http://www.w3.org/2000/svg">
<g clip-path="url(#clip0_31_2840)">
<path fill-rule="evenodd" clip-rule="evenodd" d="M127.111 39.1011H4.92362C2.22884 39.1011 0.0341797 36.8974 0.0341797 34.2135V4.88764C0.0341797 2.19395 2.22884 0 4.92362 0H127.111C129.803 0 132 2.19395 132 4.88764V34.2135C132 36.8974 129.803 39.1011 127.111 39.1011Z" fill="black"/>
<path fill-rule="evenodd" clip-rule="evenodd" d="M127.111 0.78251C129.371 0.78251 131.221 2.62787 131.221 4.88764V34.2135C131.221 36.4733 129.383 38.3186 127.111 38.3186H4.92362C2.66341 38.3186 0.81348 36.4733 0.81348 34.2135V4.88764C0.81348 2.62787 2.65127 0.78251 4.92362 0.78251C4.92362 0.78251 127.111 0.78251 127.111 0.78251ZM127.111 0H4.92362C2.22884 0 0.0341797 2.2037 0.0341797 4.88764V34.2135C0.0341797 36.9072 2.22884 39.1011 4.92362 39.1011H127.111C129.803 39.1011 132 36.9072 132 34.2135V4.88764C132 2.2037 129.803 0 127.111 0Z" fill="black"/>
<path d="M69.5565 12.9353C68.6753 12.9353 67.9324 12.6257 67.3449 12.0163C66.7623 11.4239 66.4369 10.6073 66.4515 9.77355C66.4515 8.88378 66.7525 8.13052 67.3449 7.53328C67.93 6.92385 68.6729 6.61426 69.5541 6.61426C70.4257 6.61426 71.1685 6.92385 71.7658 7.53328C72.3581 8.15003 72.6592 8.90328 72.6592 9.77355C72.6494 10.6658 72.3484 11.419 71.7658 12.0138C71.1807 12.6281 70.4378 12.9353 69.5565 12.9353ZM43.3348 12.9353C42.473 12.9353 41.7253 12.6306 41.1135 12.0284C40.5066 11.4288 40.1982 10.6706 40.1982 9.77599C40.1982 8.88134 40.5066 8.12321 41.1135 7.52353C41.7131 6.92141 42.4609 6.6167 43.3348 6.6167C43.7621 6.6167 44.1773 6.70202 44.5754 6.87509C44.9663 7.0433 45.2843 7.27244 45.5198 7.55278L45.578 7.62348L44.9201 8.27191L44.8522 8.19147C44.4807 7.7478 43.983 7.53084 43.3251 7.53084C42.7376 7.53084 42.2254 7.74049 41.803 8.1549C41.3781 8.57175 41.162 9.1178 41.162 9.77843C41.162 10.439 41.3781 10.9851 41.803 11.402C42.2254 11.8164 42.7376 12.026 43.3251 12.026C43.9515 12.026 44.4783 11.8164 44.8886 11.402C45.1313 11.1582 45.2819 10.8169 45.3353 10.3854H43.2256V9.47371H46.2408L46.253 9.55659C46.2748 9.71017 46.2967 9.86862 46.2967 10.0149C46.2967 10.8559 46.0442 11.536 45.5441 12.0382C44.976 12.633 44.2331 12.9353 43.3348 12.9353ZM78.1992 12.8061H77.2694L74.4217 8.23047L74.446 9.05442V12.8036H73.5161V6.7459H74.5771L74.6062 6.79221L77.2839 11.1021L77.2597 10.2806V6.7459H78.1992V12.8061V12.8061ZM62.5696 12.8061H61.6276V7.6576H59.9938V6.7459H64.201V7.6576H62.5672V12.8061H62.5696ZM59.2266 12.8061H58.2871V6.7459H59.2266V12.8061ZM53.9464 12.8061H53.0068V7.6576H51.373V6.7459H55.5802V7.6576H53.9464V12.8061ZM50.7782 12.7963H47.1755V6.7459H50.7782V7.6576H48.1174V9.32013H50.5184V10.2221H48.1174V11.8846H50.7782V12.7963ZM68.0344 11.3898C68.4544 11.8115 68.9642 12.0236 69.5565 12.0236C70.1659 12.0236 70.6636 11.8164 71.0787 11.3898C71.4914 10.9753 71.7002 10.4317 71.7002 9.77599C71.7002 9.12024 71.4914 8.57419 71.0811 8.16221C70.6612 7.74049 70.1489 7.5284 69.559 7.5284C68.9496 7.5284 68.4519 7.73561 68.0392 8.16221C67.6265 8.57663 67.4177 9.12024 67.4177 9.77599C67.4177 10.4317 67.6241 10.9778 68.0344 11.3898Z" fill="white"/>
<path fill-rule="evenodd" clip-rule="evenodd" d="M66.3623 21.2674C64.0681 21.2674 62.2084 23.0153 62.2084 25.4262C62.2084 27.8152 64.0802 29.585 66.3623 29.585C68.6565 29.585 70.5161 27.8249 70.5161 25.4262C70.5161 23.0153 68.6565 21.2674 66.3623 21.2674ZM66.3623 27.9371C65.1072 27.9371 64.0268 26.8937 64.0268 25.4165C64.0268 23.9172 65.1096 22.8958 66.3623 22.8958C67.6174 22.8958 68.6978 23.9172 68.6978 25.4165C68.7002 26.9035 67.6174 27.9371 66.3623 27.9371ZM57.2996 21.2674C55.0054 21.2674 53.1457 23.0153 53.1457 25.4262C53.1457 27.8152 55.0175 29.585 57.2996 29.585C59.5938 29.585 61.4534 27.8249 61.4534 25.4262C61.4534 23.0153 59.5914 21.2674 57.2996 21.2674ZM57.2996 27.9371C56.0444 27.9371 54.9641 26.8937 54.9641 25.4165C54.9641 23.9172 56.0469 22.8958 57.2996 22.8958C58.5547 22.8958 59.6351 23.9172 59.6351 25.4165C59.6351 26.9035 58.5547 27.9371 57.2996 27.9371ZM46.5156 22.5375V24.2975H50.7229C50.5942 25.2848 50.2689 26.0137 49.7712 26.5134C49.1545 27.1326 48.2029 27.8054 46.5253 27.8054C43.9398 27.8054 41.9175 25.709 41.9175 23.1128C41.9175 20.5166 43.9398 18.4202 46.5253 18.4202C47.9213 18.4202 48.9385 18.9735 49.6935 19.6805L50.9365 18.4324C49.8877 17.4231 48.4918 16.6504 46.535 16.6504C42.9881 16.6504 40.0117 19.5513 40.0117 23.1031C40.0117 26.6646 42.9857 29.5557 46.535 29.5557C48.4505 29.5557 49.8877 28.9268 51.0239 27.742C52.1819 26.5792 52.5485 24.9387 52.5485 23.615C52.5485 23.203 52.517 22.8325 52.4514 22.518H46.5132C46.5156 22.5156 46.5156 22.5375 46.5156 22.5375ZM90.625 23.9075C90.2778 22.9739 89.2291 21.2577 87.0781 21.2577C84.9465 21.2577 83.1743 22.9422 83.1743 25.4165C83.1743 27.7518 84.9271 29.5752 87.2845 29.5752C89.1781 29.5752 90.2803 28.4124 90.7343 27.7299L89.3286 26.784C88.8625 27.4788 88.2143 27.9346 87.2942 27.9346C86.3643 27.9346 85.7137 27.5105 85.2816 26.6743L90.8192 24.3707C90.8192 24.3731 90.625 23.9075 90.625 23.9075ZM84.9781 25.297C84.9344 23.6905 86.2211 22.8739 87.1412 22.8739C87.8671 22.8739 88.4716 23.2323 88.678 23.7539L84.9781 25.297ZM80.4795 29.3266H82.2979V17.1087H80.4795V29.3266ZM77.4934 22.1913H77.4279C77.0176 21.7014 76.2383 21.2577 75.2429 21.2577C73.1769 21.2577 71.2736 23.0835 71.2736 25.4286C71.2736 27.764 73.1672 29.5679 75.2429 29.5679C76.2261 29.5679 77.0176 29.1218 77.4279 28.6221H77.4934V29.2193C77.4934 30.8063 76.6486 31.6619 75.2866 31.6619C74.1723 31.6619 73.4804 30.8575 73.1988 30.1846L71.6183 30.8477C72.0723 31.9447 73.2837 33.3025 75.2842 33.3025C77.4157 33.3025 79.222 32.0422 79.222 28.9682V21.5063H77.5031V22.1913C77.5056 22.1913 77.4934 22.1913 77.4934 22.1913ZM75.4056 27.9371C74.1504 27.9371 73.1017 26.884 73.1017 25.4286C73.1017 23.9611 74.1504 22.8983 75.4056 22.8983C76.6486 22.8983 77.6124 23.9733 77.6124 25.4286C77.6245 26.884 76.651 27.9371 75.4056 27.9371ZM99.1391 17.1087H94.791V29.3266H96.6094V24.6998H99.1415C101.154 24.6998 103.133 23.2347 103.133 20.9091C103.133 18.5835 101.161 17.1087 99.1391 17.1087ZM99.1925 22.9934H96.6069V18.8005H99.1925C100.554 18.8005 101.324 19.9291 101.324 20.8969C101.324 21.8549 100.545 22.9934 99.1925 22.9934ZM110.421 21.2455C109.1 21.2455 107.738 21.833 107.175 23.1128L108.787 23.7856C109.134 23.1128 109.77 22.8837 110.443 22.8837C111.385 22.8837 112.336 23.4492 112.358 24.4584V24.5876C112.033 24.4024 111.319 24.1196 110.464 24.1196C108.724 24.1196 106.959 25.0752 106.959 26.8669C106.959 28.5075 108.386 29.5606 109.976 29.5606C111.198 29.5606 111.87 29.0072 112.29 28.3661H112.356V29.3119H114.108V24.6315C114.108 22.4522 112.496 21.2455 110.421 21.2455ZM110.193 27.9371C109.598 27.9371 108.765 27.6445 108.765 26.8937C108.765 25.9479 109.804 25.5895 110.69 25.5895C111.491 25.5895 111.87 25.7626 112.346 26.0015C112.215 27.0985 111.292 27.9273 110.193 27.9371ZM120.503 21.5063L118.415 26.806H118.35L116.187 21.5063H114.23L117.476 28.9146L115.626 33.0319H117.519L122.513 21.5063H120.503ZM104.135 29.3266H105.954V17.1087H104.135V29.3266Z" fill="white"/>
<path fill-rule="evenodd" clip-rule="evenodd" d="M10.1923 7.36465C9.9107 7.66936 9.74805 8.13497 9.74805 8.7444V30.3597C9.74805 30.9691 9.9107 31.4348 10.202 31.7273L10.2773 31.7931L22.3382 19.6825V19.4119L10.2676 7.29883L10.1923 7.36465Z" fill="url(#paint0_linear_31_2840)"/>
<path fill-rule="evenodd" clip-rule="evenodd" d="M26.3509 23.7315L22.3281 19.6922V19.4094L26.3509 15.3701L26.4383 15.4237L31.1967 18.1394C32.5586 18.9097 32.5586 20.1822 31.1967 20.9623L26.4383 23.6779L26.3509 23.7315Z" fill="url(#paint1_linear_31_2840)"/>
<path fill-rule="evenodd" clip-rule="evenodd" d="M26.4377 23.6778L22.3276 19.5508L10.1914 31.737C10.6357 32.2148 11.381 32.2684 12.2137 31.8028L26.4377 23.6778Z" fill="url(#paint2_linear_31_2840)"/>
<path fill-rule="evenodd" clip-rule="evenodd" d="M26.4377 15.4243L12.2137 7.31151C11.381 6.83371 10.6333 6.89953 10.1914 7.37732L22.3276 19.5513L26.4377 15.4243Z" fill="url(#paint3_linear_31_2840)"/>
<path opacity="0.2" fill-rule="evenodd" clip-rule="evenodd" d="M26.3505 23.5898L12.2235 31.6489C11.4345 32.1048 10.7304 32.0731 10.2764 31.6587L10.2012 31.7343L10.2764 31.8001C10.7304 32.2121 11.4345 32.2462 12.2235 31.7903L26.4476 23.6776L26.3505 23.5898Z" fill="black"/>
<path opacity="0.12" fill-rule="evenodd" clip-rule="evenodd" d="M31.1967 20.8208L26.3389 23.5901L26.4263 23.6779L31.1846 20.9622C31.8668 20.5722 32.2018 20.0603 32.2018 19.5508C32.1605 20.0188 31.8134 20.4625 31.1967 20.8208Z" fill="black"/>
<path opacity="0.25" fill-rule="evenodd" clip-rule="evenodd" d="M12.2146 7.45227L31.197 18.2806C31.8136 18.6292 32.1608 19.0851 32.2142 19.5507C32.2142 19.0412 31.8792 18.5293 31.197 18.1393L12.2146 7.31088C10.8527 6.52837 9.74805 7.18168 9.74805 8.74426V8.88565C9.74805 7.32063 10.8527 6.67951 12.2146 7.45227Z" fill="white"/>
</g>
<defs>
<linearGradient id="paint0_linear_31_2840" x1="21.2564" y1="8.51119" x2="1.92635" y2="13.6406" gradientUnits="userSpaceOnUse">
<stop stop-color="#00A0FF"/>
<stop offset="0.00657" stop-color="#00A1FF"/>
<stop offset="0.2601" stop-color="#00BEFF"/>
<stop offset="0.5122" stop-color="#00D2FF"/>
<stop offset="0.7604" stop-color="#00DFFF"/>
<stop offset="1" stop-color="#00E3FF"/>
</linearGradient>
<linearGradient id="paint1_linear_31_2840" x1="32.9728" y1="19.5509" x2="9.41656" y2="19.5509" gradientUnits="userSpaceOnUse">
<stop stop-color="#FFE000"/>
<stop offset="0.4087" stop-color="#FFBD00"/>
<stop offset="0.7754" stop-color="#FFA500"/>
<stop offset="1" stop-color="#FF9C00"/>
</linearGradient>
<linearGradient id="paint2_linear_31_2840" x1="24.2028" y1="21.7965" x2="8.59876" y2="47.9517" gradientUnits="userSpaceOnUse">
<stop stop-color="#FF3A44"/>
<stop offset="1" stop-color="#C31162"/>
</linearGradient>
<linearGradient id="paint3_linear_31_2840" x1="7.13538" y1="0.17554" x2="14.097" y2="11.8569" gradientUnits="userSpaceOnUse">
<stop stop-color="#32A071"/>
<stop offset="0.0685" stop-color="#2DA771"/>
<stop offset="0.4762" stop-color="#15CF74"/>
<stop offset="0.8009" stop-color="#06E775"/>
<stop offset="1" stop-color="#00F076"/>
</linearGradient>
<clipPath id="clip0_31_2840">
<rect width="131.966" height="39.1011" fill="white" transform="translate(0.0341797)"/>
</clipPath>
</defs>
</svg>
