<svg width="117" height="39" viewBox="0 0 117 39" fill="none" xmlns="http://www.w3.org/2000/svg">
<g clip-path="url(#clip0_31_2805)">
<path d="M107.242 0.00207971H9.28427C8.9272 0.00207971 8.57442 0.00207971 8.21829 0.00402719C7.92018 0.00597466 7.62445 0.0116321 7.32348 0.0163936C6.66963 0.0240879 6.01731 0.0816109 5.3722 0.188463C4.728 0.297641 4.10398 0.503472 3.52125 0.798996C2.93922 1.09702 2.40741 1.48427 1.94511 1.9467C1.48038 2.40783 1.09298 2.94083 0.797832 3.52522C0.501864 4.10844 0.29664 4.73341 0.189246 5.37855C0.0808308 6.02288 0.0224918 6.67463 0.0147521 7.32797C0.00571584 7.62652 0.00476157 7.92606 0 8.22465V30.7319C0.00476157 31.0342 0.00571584 31.3271 0.0147521 31.6295C0.0224941 32.2829 0.0808332 32.9346 0.189246 33.5789C0.296343 34.2244 0.50158 34.8497 0.797832 35.4332C1.09285 36.0157 1.4803 36.5465 1.94511 37.0051C2.40566 37.4695 2.93782 37.8571 3.52125 38.1528C4.10398 38.4491 4.72793 38.6562 5.3722 38.767C6.01742 38.873 6.66967 38.9306 7.32348 38.9392C7.62445 38.9458 7.92018 38.9496 8.21829 38.9496C8.57441 38.9516 8.92722 38.9516 9.28427 38.9516H107.242C107.592 38.9516 107.948 38.9516 108.298 38.9496C108.595 38.9496 108.899 38.9458 109.196 38.9392C109.848 38.931 110.499 38.8735 111.143 38.767C111.789 38.6554 112.416 38.4484 113.001 38.1528C113.584 37.8569 114.116 37.4694 114.576 37.0051C115.039 36.5447 115.428 36.0142 115.726 35.4332C116.02 34.8493 116.224 34.224 116.329 33.5789C116.438 32.9345 116.498 32.2829 116.51 31.6295C116.514 31.3271 116.514 31.0342 116.514 30.7319C116.521 30.3781 116.521 30.0263 116.521 29.6668V9.28776C116.521 8.93117 116.521 8.57743 116.514 8.22465C116.514 7.92606 116.514 7.62652 116.51 7.32793C116.498 6.67454 116.438 6.02293 116.329 5.37851C116.223 4.73374 116.02 4.10882 115.726 3.52518C115.125 2.35385 114.172 1.40039 113.001 0.798908C112.416 0.504107 111.789 0.29833 111.143 0.188375C110.499 0.0810525 109.848 0.0235095 109.196 0.0162573C108.899 0.0115055 108.595 0.00579939 108.298 0.0039006C107.948 0.00195312 107.592 0.00195312 107.242 0.00195312V0.00207971Z" fill="black"/>
<path d="M8.22257 38.0999C7.92589 38.0999 7.63638 38.0961 7.34203 38.0895C6.73226 38.0816 6.12391 38.0285 5.52198 37.9307C4.96071 37.834 4.41699 37.6542 3.90875 37.3972C3.40517 37.1423 2.94587 36.8081 2.54844 36.4073C2.14525 36.0112 1.80958 35.5519 1.55473 35.0475C1.29707 34.5397 1.11875 33.9955 1.02599 33.4338C0.925818 32.8302 0.87162 32.2198 0.863865 31.608C0.857691 31.4027 0.849609 30.7189 0.849609 30.7189V8.22504C0.849609 8.22504 0.858217 7.55179 0.863914 7.35399C0.871339 6.74315 0.925222 6.13376 1.0251 5.53109C1.11803 4.9678 1.29648 4.42202 1.55428 3.91264C1.8082 3.40855 2.14201 2.94886 2.54276 2.5514C2.94307 2.15017 3.40384 1.81421 3.90827 1.55579C4.41534 1.29958 4.95804 1.12104 5.51817 1.02613C6.12208 0.927363 6.73254 0.873963 7.34443 0.866382L8.22305 0.854492H108.293L109.182 0.866859C109.788 0.874064 110.393 0.926987 110.991 1.02518C111.557 1.12127 112.105 1.30106 112.618 1.55864C113.629 2.07944 114.451 2.90339 114.97 3.91502C115.224 4.42088 115.399 4.96221 115.491 5.52063C115.592 6.12824 115.649 6.74243 115.66 7.35828C115.663 7.63404 115.663 7.93025 115.663 8.22504C115.671 8.59019 115.671 8.93775 115.671 9.28816V29.6672C115.671 30.0209 115.671 30.3661 115.663 30.7141C115.663 31.0308 115.663 31.3209 115.659 31.6194C115.648 32.2243 115.592 32.8275 115.493 33.4242C115.402 33.99 115.225 34.5385 114.967 35.0504C114.71 35.5493 114.377 36.0047 113.978 36.3997C113.58 36.8026 113.12 37.1388 112.616 37.3953C112.104 37.6544 111.557 37.8348 110.991 37.9307C110.389 38.029 109.781 38.0821 109.171 38.0895C108.886 38.0961 108.587 38.0999 108.297 38.0999L107.242 38.1019L8.22257 38.0999Z" fill="black"/>
<path d="M24.1167 19.7689C24.1272 18.9562 24.3431 18.1593 24.7443 17.4524C25.1455 16.7455 25.719 16.1516 26.4114 15.7259C25.9715 15.0977 25.3912 14.5807 24.7166 14.216C24.0419 13.8513 23.2916 13.6489 22.525 13.6249C20.8899 13.4533 19.3047 14.6033 18.4715 14.6033C17.6221 14.6033 16.3392 13.6419 14.9577 13.6703C14.0642 13.6992 13.1933 13.9591 12.43 14.4246C11.6667 14.8901 11.037 15.5454 10.6023 16.3266C8.71907 19.5871 10.1238 24.3789 11.9277 27.0144C12.8303 28.3049 13.8851 29.7465 15.2653 29.6954C16.616 29.6394 17.1204 28.8341 18.7507 28.8341C20.3659 28.8341 20.8392 29.6954 22.2474 29.6629C23.6967 29.6394 24.6098 28.3666 25.4807 27.0638C26.1292 26.1443 26.6282 25.128 26.9593 24.0525C26.1173 23.6964 25.3987 23.1003 24.8932 22.3386C24.3878 21.5768 24.1177 20.6831 24.1167 19.7689V19.7689Z" fill="white"/>
<path d="M21.4562 11.8921C22.2464 10.9435 22.6357 9.72419 22.5415 8.49316C21.3342 8.61996 20.219 9.19696 19.4181 10.1092C19.0265 10.5548 18.7266 11.0733 18.5355 11.6349C18.3445 12.1965 18.2659 12.7903 18.3045 13.3823C18.9083 13.3885 19.5057 13.2576 20.0516 12.9995C20.5976 12.7414 21.0778 12.3627 21.4562 11.8921Z" fill="white"/>
<path d="M41.1916 26.4271H36.5825L35.4757 29.6954H33.5234L37.8891 17.6035H39.9174L44.283 29.6954H42.2975L41.1916 26.4271ZM37.0599 24.9189H40.7133L38.9123 19.6147H38.8619L37.0599 24.9189Z" fill="white"/>
<path d="M53.7106 25.2875C53.7106 28.0271 52.2443 29.7872 50.0315 29.7872C49.471 29.8165 48.9135 29.6874 48.423 29.4146C47.9324 29.1418 47.5286 28.7364 47.2577 28.2448H47.2158V32.6114H45.4062V20.879H47.1579V22.3453H47.1911C47.4745 21.8561 47.8851 21.4528 48.3794 21.1783C48.8737 20.9039 49.4332 20.7686 49.9982 20.7868C52.2357 20.7868 53.7106 22.5555 53.7106 25.2875ZM51.8506 25.2875C51.8506 23.5026 50.9282 22.3292 49.5209 22.3292C48.1383 22.3292 47.2083 23.5273 47.2083 25.2875C47.2083 27.0638 48.1383 28.2534 49.5209 28.2534C50.9282 28.2534 51.8506 27.0885 51.8506 25.2875Z" fill="white"/>
<path d="M63.4128 25.2875C63.4128 28.0271 61.9465 29.7872 59.7337 29.7872C59.1731 29.8165 58.6157 29.6874 58.1251 29.4146C57.6346 29.1418 57.2307 28.7364 56.9599 28.2448H56.918V32.6114H55.1084V20.879H56.86V22.3453H56.8933C57.1766 21.8561 57.5872 21.4527 58.0815 21.1783C58.5758 20.9039 59.1353 20.7686 59.7004 20.7868C61.9379 20.7868 63.4128 22.5555 63.4128 25.2875ZM61.5528 25.2875C61.5528 23.5026 60.6304 22.3292 59.223 22.3292C57.8404 22.3292 56.9104 23.5273 56.9104 25.2875C56.9104 27.0638 57.8404 28.2534 59.223 28.2534C60.6304 28.2534 61.5528 27.0885 61.5528 25.2875H61.5528Z" fill="white"/>
<path d="M69.828 26.3267C69.9621 27.5258 71.127 28.3132 72.7188 28.3132C74.2441 28.3132 75.3414 27.5258 75.3414 26.4446C75.3414 25.506 74.6796 24.9441 73.1125 24.5589L71.5454 24.1814C69.325 23.6451 68.2942 22.6067 68.2942 20.9217C68.2942 18.8354 70.1123 17.4023 72.6941 17.4023C75.2491 17.4023 77.0007 18.8354 77.0597 20.9217H75.233C75.1236 19.715 74.1261 18.9866 72.6684 18.9866C71.2106 18.9866 70.2131 19.7235 70.2131 20.7962C70.2131 21.651 70.8502 22.1541 72.4088 22.5392L73.741 22.8663C76.2219 23.453 77.2527 24.4496 77.2527 26.2182C77.2527 28.4805 75.4507 29.8973 72.5847 29.8973C69.9031 29.8973 68.0926 28.5138 67.9756 26.3266L69.828 26.3267Z" fill="white"/>
<path d="M81.1556 18.793V20.8793H82.8321V22.3123H81.1556V27.1724C81.1556 27.9275 81.4913 28.2793 82.2283 28.2793C82.4273 28.2758 82.626 28.2619 82.8235 28.2374V29.6619C82.4922 29.7238 82.1554 29.7518 81.8184 29.7456C80.0336 29.7456 79.3375 29.0752 79.3375 27.3654V22.3123H78.0557V20.8793H79.3375V18.793H81.1556Z" fill="white"/>
<path d="M83.8047 25.2883C83.8047 22.5145 85.4384 20.7715 87.9859 20.7715C90.5419 20.7715 92.168 22.5145 92.168 25.2883C92.168 28.0698 90.5505 29.8052 87.9859 29.8052C85.4221 29.8052 83.8047 28.0698 83.8047 25.2883ZM90.3242 25.2883C90.3242 23.3856 89.4522 22.2625 87.9859 22.2625C86.5195 22.2625 85.6485 23.3941 85.6485 25.2883C85.6485 27.1987 86.5195 28.3132 87.9859 28.3132C89.4522 28.3132 90.3241 27.1987 90.3241 25.2883H90.3242Z" fill="white"/>
<path d="M93.6602 20.8789H95.3861V22.3795H95.4279C95.5447 21.9108 95.8193 21.4967 96.2054 21.2066C96.5916 20.9165 97.0659 20.7683 97.5485 20.7867C97.757 20.786 97.965 20.8086 98.1685 20.8542V22.5468C97.9052 22.4664 97.6306 22.4295 97.3554 22.4375C97.0925 22.4268 96.8304 22.4732 96.5872 22.5734C96.3439 22.6735 96.1252 22.8252 95.946 23.0179C95.7669 23.2106 95.6315 23.4397 95.5493 23.6897C95.4671 23.9396 95.44 24.2044 95.4697 24.4658V29.6949H93.6602L93.6602 20.8789Z" fill="white"/>
<path d="M106.512 27.1065C106.269 28.7069 104.71 29.8052 102.716 29.8052C100.151 29.8052 98.5596 28.0869 98.5596 25.3302C98.5596 22.5649 100.16 20.7715 102.64 20.7715C105.079 20.7715 106.613 22.447 106.613 25.12V25.74H100.386V25.8494C100.358 26.1738 100.398 26.5007 100.505 26.8082C100.613 27.1158 100.784 27.397 101.009 27.6331C101.233 27.8693 101.505 28.0551 101.806 28.1781C102.108 28.301 102.432 28.3584 102.758 28.3465C103.185 28.3865 103.615 28.2875 103.981 28.0641C104.348 27.8407 104.633 27.5048 104.794 27.1065L106.512 27.1065ZM100.395 24.4753H104.802C104.819 24.1836 104.774 23.8916 104.672 23.6178C104.57 23.344 104.413 23.0942 104.21 22.8841C104.007 22.674 103.763 22.5081 103.493 22.3969C103.222 22.2857 102.932 22.2315 102.64 22.2378C102.345 22.236 102.053 22.2927 101.78 22.4044C101.508 22.5161 101.26 22.6807 101.051 22.8888C100.842 23.0968 100.677 23.3441 100.564 23.6164C100.452 23.8887 100.394 24.1806 100.395 24.4753V24.4753Z" fill="white"/>
<path d="M36.8311 8.50366C37.2105 8.47644 37.5912 8.53375 37.9457 8.67147C38.3003 8.80919 38.6198 9.02388 38.8814 9.30006C39.1429 9.57623 39.3399 9.90701 39.4581 10.2685C39.5763 10.63 39.6128 11.0133 39.565 11.3906C39.565 13.2468 38.5618 14.3138 36.8311 14.3138H34.7324V8.50366H36.8311ZM35.6348 13.4921H36.7303C37.0014 13.5083 37.2727 13.4639 37.5244 13.362C37.7762 13.2601 38.002 13.1034 38.1856 12.9033C38.3691 12.7031 38.5057 12.4645 38.5854 12.2049C38.6651 11.9453 38.686 11.6712 38.6464 11.4025C38.6831 11.1349 38.6602 10.8624 38.5792 10.6047C38.4983 10.347 38.3614 10.1104 38.1782 9.91182C37.9951 9.71324 37.7703 9.55763 37.52 9.45613C37.2697 9.35463 37 9.30976 36.7303 9.32473H35.6348V13.4921Z" fill="white"/>
<path d="M40.583 12.1197C40.5555 11.8316 40.5884 11.5409 40.6798 11.2662C40.7712 10.9915 40.9189 10.739 41.1136 10.5248C41.3083 10.3106 41.5456 10.1395 41.8103 10.0223C42.0751 9.90522 42.3613 9.84473 42.6508 9.84473C42.9402 9.84473 43.2265 9.90522 43.4912 10.0223C43.7559 10.1395 43.9933 10.3106 44.1879 10.5248C44.3826 10.739 44.5304 10.9915 44.6218 11.2662C44.7132 11.5409 44.7461 11.8316 44.7186 12.1197C44.7466 12.4082 44.7141 12.6993 44.6229 12.9744C44.5318 13.2495 44.3841 13.5025 44.1894 13.7171C43.9946 13.9318 43.7571 14.1033 43.4922 14.2206C43.2272 14.338 42.9406 14.3987 42.6508 14.3987C42.361 14.3987 42.0744 14.338 41.8094 14.2206C41.5444 14.1033 41.3069 13.9318 41.1122 13.7171C40.9175 13.5025 40.7698 13.2495 40.6786 12.9744C40.5875 12.6993 40.5549 12.4082 40.583 12.1197V12.1197ZM43.8285 12.1197C43.8285 11.1693 43.4015 10.6135 42.6522 10.6135C41.9 10.6135 41.4769 11.1693 41.4769 12.1198C41.4769 13.0778 41.9001 13.6293 42.6522 13.6293C43.4015 13.6293 43.8285 13.074 43.8285 12.1197H43.8285Z" fill="white"/>
<path d="M50.2172 14.3144H49.3196L48.4133 11.085H48.3449L47.4424 14.3144H46.5533L45.3447 9.92969H46.2224L47.0079 13.2754H47.0725L47.974 9.92969H48.8042L49.7056 13.2754H49.7741L50.5557 9.92969H51.4211L50.2172 14.3144Z" fill="white"/>
<path d="M52.4375 9.92977H53.2705V10.6263H53.3352C53.4449 10.3761 53.6299 10.1664 53.8644 10.0264C54.099 9.88637 54.3714 9.823 54.6436 9.84514C54.857 9.8291 55.0712 9.86126 55.2704 9.93926C55.4696 10.0172 55.6488 10.1391 55.7945 10.2957C55.9403 10.4523 56.0489 10.6397 56.1124 10.844C56.1759 11.0483 56.1926 11.2643 56.1613 11.476V14.3144H55.296V11.6933C55.296 10.9886 54.9898 10.6382 54.3498 10.6382C54.2049 10.6315 54.0603 10.6561 53.9259 10.7105C53.7915 10.7648 53.6704 10.8476 53.571 10.9532C53.4715 11.0587 53.3961 11.1845 53.3498 11.3219C53.3035 11.4593 53.2875 11.6052 53.3028 11.7493V14.3144H52.4375L52.4375 9.92977Z" fill="white"/>
<path d="M57.5391 8.21777H58.4044V14.3141H57.5391V8.21777Z" fill="white"/>
<path d="M59.6074 12.1198C59.5799 11.8317 59.6129 11.5409 59.7043 11.2662C59.7956 10.9916 59.9434 10.739 60.1382 10.5248C60.3329 10.3106 60.5702 10.1395 60.8349 10.0223C61.0997 9.90523 61.3859 9.84473 61.6754 9.84473C61.9649 9.84473 62.2512 9.90523 62.5159 10.0223C62.7806 10.1395 63.018 10.3106 63.2127 10.5248C63.4074 10.739 63.5552 10.9916 63.6466 11.2662C63.738 11.5409 63.771 11.8317 63.7434 12.1198C63.7715 12.4083 63.7389 12.6994 63.6477 12.9745C63.5565 13.2496 63.4088 13.5026 63.2141 13.7172C63.0193 13.9318 62.7818 14.1033 62.5168 14.2207C62.2518 14.3381 61.9652 14.3987 61.6754 14.3987C61.3856 14.3987 61.099 14.3381 60.834 14.2207C60.569 14.1033 60.3315 13.9318 60.1368 13.7172C59.942 13.5026 59.7943 13.2496 59.7031 12.9745C59.612 12.6994 59.5794 12.4083 59.6074 12.1198V12.1198ZM62.8529 12.1198C62.8529 11.1694 62.4259 10.6136 61.6766 10.6136C60.9244 10.6136 60.5013 11.1694 60.5013 12.1198C60.5013 13.0779 60.9245 13.6294 61.6766 13.6294C62.4259 13.6294 62.8529 13.0741 62.8529 12.1198H62.8529Z" fill="white"/>
<path d="M64.6572 13.074C64.6572 12.2848 65.2449 11.8298 66.288 11.7651L67.4757 11.6966V11.3182C67.4757 10.8551 67.1695 10.5936 66.5781 10.5936C66.095 10.5936 65.7603 10.7709 65.6642 11.0809H64.8265C64.9149 10.3278 65.6234 9.84473 66.618 9.84473C67.7173 9.84473 68.3373 10.392 68.3373 11.3182V14.314H67.5043V13.6978H67.4358C67.2968 13.9189 67.1017 14.0991 66.8703 14.22C66.6389 14.341 66.3796 14.3983 66.1188 14.3863C65.9347 14.4054 65.7487 14.3858 65.5727 14.3286C65.3966 14.2715 65.2346 14.1781 65.0969 14.0544C64.9592 13.9308 64.8489 13.7797 64.7732 13.6108C64.6974 13.4419 64.658 13.2591 64.6572 13.074V13.074ZM67.4757 12.6994V12.3328L66.405 12.4013C65.8012 12.4417 65.5273 12.6471 65.5273 13.0336C65.5273 13.4282 65.8696 13.6579 66.3404 13.6579C66.4783 13.6718 66.6176 13.6579 66.7501 13.6169C66.8825 13.5759 67.0053 13.5087 67.1113 13.4193C67.2172 13.3299 67.304 13.2201 67.3667 13.0964C67.4293 12.9727 67.4664 12.8377 67.4757 12.6994V12.6994Z" fill="white"/>
<path d="M69.4717 12.1199C69.4717 10.7344 70.1839 9.85669 71.2917 9.85669C71.5658 9.84406 71.8377 9.9097 72.0758 10.0459C72.3139 10.1821 72.5083 10.3833 72.6363 10.6259H72.701V8.21777H73.5663V14.3141H72.7371V13.6213H72.6687C72.5308 13.8623 72.3296 14.061 72.0869 14.1959C71.8442 14.3307 71.5692 14.3966 71.2917 14.3863C70.1763 14.3864 69.4717 13.5087 69.4717 12.1199ZM70.3656 12.1199C70.3656 13.0499 70.8039 13.6095 71.5371 13.6095C72.2664 13.6095 72.7172 13.0418 72.7172 12.1237C72.7172 11.2098 72.2617 10.6341 71.5371 10.6341C70.8087 10.6341 70.3655 11.1975 70.3655 12.1199H70.3656Z" fill="white"/>
<path d="M77.1485 12.1197C77.1209 11.8316 77.1538 11.5409 77.2452 11.2662C77.3366 10.9915 77.4844 10.739 77.6791 10.5248C77.8738 10.3106 78.1111 10.1395 78.3758 10.0223C78.6405 9.90522 78.9268 9.84473 79.2162 9.84473C79.5057 9.84473 79.7919 9.90522 80.0567 10.0223C80.3214 10.1395 80.5587 10.3106 80.7534 10.5248C80.9481 10.739 81.0958 10.9915 81.1872 11.2662C81.2786 11.5409 81.3115 11.8316 81.284 12.1197C81.3121 12.4082 81.2795 12.6993 81.1884 12.9744C81.0972 13.2495 80.9495 13.5025 80.7548 13.7171C80.5601 13.9318 80.3226 14.1033 80.0576 14.2206C79.7926 14.338 79.506 14.3987 79.2162 14.3987C78.9264 14.3987 78.6398 14.338 78.3748 14.2206C78.1099 14.1033 77.8724 13.9318 77.6776 13.7171C77.4829 13.5025 77.3352 13.2495 77.2441 12.9744C77.1529 12.6993 77.1204 12.4082 77.1485 12.1197V12.1197ZM80.3939 12.1197C80.3939 11.1693 79.967 10.6135 79.2176 10.6135C78.4655 10.6135 78.0423 11.1693 78.0423 12.1198C78.0423 13.0778 78.4655 13.6293 79.2176 13.6293C79.967 13.6293 80.3939 13.074 80.3939 12.1197Z" fill="white"/>
<path d="M82.4453 9.92977H83.2783V10.6263H83.343C83.4527 10.3761 83.6377 10.1664 83.8722 10.0264C84.1068 9.88637 84.3792 9.823 84.6514 9.84514C84.8648 9.8291 85.079 9.86126 85.2782 9.93926C85.4775 10.0172 85.6566 10.1391 85.8023 10.2957C85.9481 10.4523 86.0567 10.6397 86.1202 10.844C86.1837 11.0483 86.2004 11.2643 86.1691 11.476V14.3144H85.3038V11.6933C85.3038 10.9886 84.9976 10.6382 84.3576 10.6382C84.2128 10.6315 84.0682 10.6561 83.9337 10.7105C83.7993 10.7648 83.6782 10.8476 83.5788 10.9532C83.4793 11.0587 83.4039 11.1845 83.3576 11.3219C83.3113 11.4593 83.2953 11.6052 83.3106 11.7493V14.3144H82.4453V9.92977Z" fill="white"/>
<path d="M91.0575 8.83789V9.94951H92.0074V10.6784H91.0575V12.933C91.0575 13.3923 91.2467 13.5934 91.6775 13.5934C91.7878 13.5931 91.8979 13.5864 92.0074 13.5734V14.2942C91.852 14.322 91.6946 14.3368 91.5367 14.3385C90.5744 14.3385 90.1912 13.9999 90.1912 13.1546V10.6784H89.4951V9.94947H90.1912V8.83789H91.0575Z" fill="white"/>
<path d="M93.1885 8.21777H94.0462V10.6341H94.1147C94.2297 10.3815 94.4198 10.1706 94.659 10.0301C94.8983 9.88953 95.175 9.82615 95.4516 9.8486C95.6638 9.83705 95.876 9.87248 96.073 9.95237C96.2699 10.0323 96.4469 10.1546 96.5911 10.3108C96.7353 10.4669 96.8433 10.6529 96.9074 10.8556C96.9714 11.0583 96.99 11.2726 96.9617 11.4832V14.3141H96.0955V11.6967C96.0955 10.9963 95.7693 10.6416 95.1579 10.6416C95.0091 10.6295 94.8595 10.6499 94.7195 10.7016C94.5795 10.7532 94.4525 10.8348 94.3474 10.9407C94.2422 11.0466 94.1614 11.1742 94.1107 11.3145C94.06 11.4549 94.0406 11.6046 94.0538 11.7533V14.3141H93.1885L93.1885 8.21777Z" fill="white"/>
<path d="M102.009 13.1302C101.891 13.5309 101.636 13.8776 101.289 14.1095C100.942 14.3414 100.524 14.4438 100.109 14.3987C99.8197 14.4064 99.5327 14.351 99.2673 14.2366C99.002 14.1221 98.7647 13.9513 98.572 13.736C98.3793 13.5207 98.2357 13.266 98.1513 12.9896C98.0669 12.7132 98.0436 12.4218 98.0832 12.1356C98.0447 11.8484 98.0684 11.5564 98.1526 11.2792C98.2368 11.002 98.3796 10.7461 98.5713 10.5289C98.763 10.3117 98.9991 10.1382 99.2637 10.0202C99.5283 9.90213 99.8151 9.84233 100.105 9.8448C101.325 9.8448 102.061 10.6783 102.061 12.0552V12.3571H98.9646V12.4056C98.9511 12.5665 98.9713 12.7285 99.024 12.8811C99.0767 13.0338 99.1607 13.1737 99.2707 13.292C99.3806 13.4102 99.5141 13.5042 99.6625 13.5679C99.8108 13.6316 99.9709 13.6635 100.132 13.6617C100.339 13.6866 100.549 13.6493 100.735 13.5547C100.921 13.46 101.074 13.3123 101.176 13.1302L102.009 13.1302ZM98.9646 11.7172H101.179C101.19 11.57 101.17 11.4222 101.121 11.2832C101.071 11.1442 100.993 11.0172 100.891 10.9102C100.79 10.8032 100.667 10.7187 100.53 10.6621C100.394 10.6054 100.248 10.5779 100.1 10.5813C99.9504 10.5794 99.8018 10.6075 99.6632 10.6639C99.5246 10.7204 99.3986 10.804 99.2928 10.9098C99.187 11.0157 99.1035 11.1416 99.0471 11.2803C98.9907 11.419 98.9627 11.5675 98.9646 11.7172H98.9646Z" fill="white"/>
</g>
<defs>
<clipPath id="clip0_31_2805">
<rect width="116.521" height="38.9495" fill="white"/>
</clipPath>
</defs>
</svg>
