<svg width="66" height="95" viewBox="0 0 66 95" fill="none" xmlns="http://www.w3.org/2000/svg">
<path d="M43.666 13.1574L22.3155 0.831787L1.10352 13.1595L1.1422 13.1798L1.10352 13.2022L1.1422 13.2246L1.10352 13.247L1.1422 13.2694L1.10352 13.2918L1.1422 13.3122L1.10352 13.3346L1.1422 13.357L1.10352 13.3794L1.1422 13.4018L1.10352 13.4222L1.1422 13.4446L1.10352 13.467L1.1422 13.4894L1.10352 13.5118L1.1422 13.5342L1.10352 13.5545L1.1422 13.5769L1.10352 13.5993L1.1422 13.6217L1.10352 13.6441L1.1422 13.6665L1.10352 13.6869L1.1422 13.7093L1.10352 13.7317L1.1422 13.7541L1.10352 13.7765L1.1422 13.7989L1.10352 13.8192L1.1422 13.8416L1.10352 13.864L1.1422 13.8864L1.10352 13.9088L1.1422 13.9292L1.10352 13.9516L1.1422 13.974L1.10352 13.9964L1.1422 14.0188L1.10352 14.0412L1.1422 14.0616L1.10352 14.0839L1.1422 14.1063L1.10352 14.1287L1.1422 14.1511L1.10352 14.1735L1.1422 14.1939L1.10352 14.2163L1.1422 14.2387L1.10352 14.2611L1.1422 14.2835L1.10352 14.3059L1.1422 14.3263L1.10352 14.3487L1.1422 14.3711L1.10352 14.3935L1.1422 14.4159L1.10352 14.4383L1.1422 14.4586L1.10352 14.481L1.1422 14.5034L1.10352 14.5258L1.1422 14.5482L1.10352 14.5686L1.1422 14.591L1.10352 14.6134L1.1422 14.6358L1.10352 14.6582L1.1422 14.6806L1.10352 14.7009L1.1422 14.7233L1.10352 14.7457L1.1422 14.7681L1.10352 14.7905L1.1422 14.8129L1.10352 14.8333L1.1422 14.8557L1.10352 14.8781L1.1422 14.9005L1.10352 14.9229L1.1422 14.9453L1.10352 14.9657L1.1422 14.9881L1.10352 15.0105L1.1422 15.0329L1.10352 15.0553L1.1422 15.0777L1.10352 15.098L1.1422 15.1204L1.10352 15.1428L1.1422 15.1652L1.10352 15.1876L1.1422 15.208L1.10352 15.2304L1.1422 15.2528L1.10352 15.2752L1.1422 15.2976L1.10352 15.32L1.1422 15.3403L1.10352 15.3627L1.1422 15.3851L1.10352 15.4075L1.1422 15.4299L1.10352 15.4523L1.1422 15.4727L1.10352 15.4951L1.1422 15.5175L1.10352 15.5399L1.1422 15.5623L1.10352 15.5847L1.1422 15.6051L1.10352 15.6275L1.1422 15.6499L1.10352 15.6723L1.1422 15.6947L1.10352 15.7171L1.1422 15.7374L1.10352 15.7598L1.1422 15.7822L1.10352 15.8046L1.1422 15.827L1.10352 15.8494L1.1422 15.8698L1.10352 15.8922L1.1422 15.9146L1.10352 15.937L1.1422 15.9594L1.10352 15.9797L1.1422 16.0021L1.10352 16.0245L1.1422 16.0469L1.10352 16.0693L1.1422 16.0917L1.10352 16.1121L1.1422 16.1345L1.10352 16.1569L1.1422 16.1793L1.10352 16.2017L1.1422 16.2241L1.10352 16.2445L1.1422 16.2669L1.10352 16.2892L1.1422 16.3116L1.10352 16.334L1.1422 16.3544L1.10352 16.3768L1.1422 16.3992L1.10352 16.4216L1.1422 16.444L1.10352 16.4664L1.1422 16.4868L1.10352 16.5092L1.1422 16.5316L1.10352 16.554L1.1422 16.5764L1.10352 16.5988L1.1422 16.6191L1.10352 16.6415L1.1422 16.6639L1.10352 16.6863L1.1422 16.7087L1.10352 16.7311L1.1422 16.7515L1.10352 16.7739L1.1422 16.7963L1.10352 16.8187L1.1422 16.8411L1.10352 16.8635L1.1422 16.8838L1.10352 16.9062L1.1422 16.9286L1.10352 16.951L1.1422 16.9734L1.10352 16.9958L1.1422 17.0162L1.10352 17.0386L1.1422 17.061L1.10352 17.0834L1.1422 17.1058L1.10352 17.1262L1.1422 17.1486L1.10352 17.171L1.1422 17.1934L1.10352 17.2158L1.1422 17.2382L1.10352 17.2585L1.1422 17.2809L1.10352 17.3033L1.1422 17.3257L1.10352 17.3481L1.1422 17.3705L1.10352 17.3909L1.1422 17.4133L1.10352 17.4357L1.1422 17.4581L1.10352 17.4805L1.1422 17.5029L1.10352 17.5232L1.1422 17.5456L1.10352 17.568L1.1422 17.5904L1.10352 17.6128L1.1422 17.6332L1.10352 17.6556L1.1422 17.678L1.10352 17.7004L1.1422 17.7228L1.10352 17.7452L1.1422 17.7656L1.10352 17.788L1.1422 17.8104L1.10352 17.8328L1.1422 17.8552L1.10352 17.8776L1.1422 17.8979L1.10352 17.9203L1.1422 17.9427L1.10352 17.9651L1.1422 17.9875L1.10352 18.0099L1.1422 18.0303L1.10352 18.0527L1.1422 18.0751L1.10352 18.0975L1.1422 18.1199L1.10352 18.1423L1.1422 18.1626L1.10352 18.185L1.1422 18.2074L1.10352 18.2298L1.1422 18.2522L1.10352 18.2746L1.1422 18.295L1.10352 18.3174L1.1422 18.3398L1.10352 18.3622L1.1422 18.3846L1.10352 18.405L1.1422 18.4274L1.10352 18.4498L1.1422 18.4722L1.10352 18.4946L1.1422 18.5169L1.10352 18.5373L1.1422 18.5597L1.10352 18.5821L1.1422 18.6045L1.10352 18.6269L1.1422 18.6493L1.10352 18.6697L1.1422 18.6921L1.10352 18.7145L1.1422 18.7369L1.10352 18.7593L1.1422 18.7817L1.10352 18.802L1.1422 18.8244L1.10352 18.8468L1.1422 18.8692L1.10352 18.8916L1.1422 18.912L1.10352 18.9344L1.1422 18.9568L1.10352 18.9792L1.1422 19.0016L1.10352 19.024L1.1422 19.0443L1.10352 19.0667L1.1422 19.0891L1.10352 19.1115L1.1422 19.1339L1.10352 19.1563L1.1422 19.1767L1.10352 19.1991L1.1422 19.2215L1.10352 19.2439L1.1422 19.2663L1.10352 19.2887L1.1422 19.3091L1.10352 19.3315L1.1422 19.3539L1.10352 19.3763L1.1422 19.3987L1.10352 19.4211L1.1422 19.4414L1.10352 19.4638L1.1422 19.4862L1.10352 19.5086L1.1422 19.531L1.10352 19.5534L1.1422 19.5738L1.10352 19.5962L1.1422 19.6186L1.10352 19.641L1.1422 19.6634L1.10352 19.6837L1.1422 19.7061L1.10352 19.7285L1.1422 19.7509L1.10352 19.7733L1.1422 19.7957L1.10352 19.8161L1.1422 19.8385L1.10352 19.8609L1.1422 19.8833L1.10352 19.9057L1.1422 19.9281L1.10352 19.9485L1.1422 19.9709L1.10352 19.9933L1.1422 20.0157L1.10352 20.0381L1.1422 20.0605L1.10352 20.0808L1.1422 20.1032L1.10352 20.1256L1.1422 20.148L1.10352 20.1704L1.1422 20.1908L1.10352 20.2132L1.1422 20.2356L1.10352 20.258L1.1422 20.2804L1.10352 20.3028L1.1422 20.3231L1.10352 20.3455L1.1422 20.3679L1.10352 20.3903L1.1422 20.4127L1.10352 20.4351L1.1422 20.4555L1.10352 20.4779L1.1422 20.5003L1.10352 20.5227L1.1422 20.5451L1.10352 20.5675L1.1422 20.5879L1.10352 20.6103L1.1422 20.6327L1.10352 20.6551L1.1422 20.6775L1.10352 20.6999L1.1422 20.7202L1.10352 20.7426L1.1422 20.765L1.10352 20.7874L1.1422 20.8098L1.10352 20.8322L1.1422 20.8526L1.10352 20.875L1.1422 20.8974L1.10352 20.9198L1.1422 20.9422L1.10352 20.9625L1.1422 20.9849L1.10352 21.0073L1.1422 21.0297L1.10352 21.0521L1.1422 21.0745L1.10352 21.0949L1.1422 21.1173L1.10352 21.1397L1.1422 21.1621L1.10352 21.1845L1.1422 21.2069L1.10352 21.2272L1.1422 21.2496L1.10352 21.272L1.1422 21.2944L1.10352 21.3168L1.1422 21.3392L1.10352 21.3596L1.1422 21.382L1.10352 21.4044L1.1422 21.4268L1.10352 21.4492L1.1422 21.4696L1.10352 21.492L1.1422 21.5144L1.10352 21.5368L1.1422 21.5592L1.10352 21.5816L1.1422 21.6019L1.10352 21.6243L1.1422 21.6467L1.10352 21.6691L1.1422 21.6915L1.10352 21.7139L1.1422 21.7343L1.10352 21.7567L1.1422 21.7791L1.10352 21.8015L1.1422 21.8239L1.10352 21.8463L1.1422 21.8666L1.10352 21.889L1.1422 21.9114L1.10352 21.9338L1.1422 21.9562L1.10352 21.9786L1.1422 21.999L1.10352 22.0214L1.1422 22.0438L1.10352 22.0662L1.1422 22.0886L1.10352 22.109L1.1422 22.1314L1.10352 22.1538L1.1422 22.1762L1.10352 22.1986L1.1422 22.221L1.10352 22.2413L1.1422 22.2637L1.10352 22.2861L1.1422 22.3085L1.10352 22.3309L1.1422 22.3533L1.10352 22.3737L1.1422 22.3961L1.10352 22.4185L1.1422 22.4409L1.10352 22.4633L1.1422 22.4857L1.10352 22.506L1.1422 22.5284L1.10352 22.5508L1.1422 22.5732L1.10352 22.5956L1.1422 22.616L1.10352 22.6384L1.1422 22.6608L1.10352 22.6832L1.1422 22.7056L1.10352 22.728L1.1422 22.7484L1.10352 22.7708L1.1422 22.7932L1.10352 22.8156L1.1422 22.838L1.10352 22.8604L1.1422 22.8807L1.10352 22.9031L1.1422 22.9255L1.10352 22.9479L1.1422 22.9703L1.10352 22.9927L1.1422 23.0131L1.10352 23.0355L1.1422 23.0579L1.10352 23.0803L1.1422 23.1027L1.10352 23.1251L1.1422 23.1454L1.10352 23.1678L1.1422 23.1902L1.10352 23.2126L1.1422 23.235L1.10352 23.2574L1.1422 23.2778L1.10352 23.3002L1.1422 23.3226L1.10352 23.345L1.1422 23.3674L1.10352 23.3898L1.1422 23.4101L1.10352 23.4325L1.1422 23.4549L1.10352 23.4773L1.1422 23.4997L1.10352 23.5201L1.1422 23.5425L1.10352 23.5649L1.1422 23.5873L1.10352 23.6097L1.1422 23.6321L1.10352 23.6525L1.1422 23.6749L1.10352 23.6973L1.1422 23.7197L1.10352 23.7421L1.1422 23.7645L1.10352 23.7848L1.1422 23.8072L1.10352 23.8296L1.1422 23.852L1.10352 23.8744L1.1422 23.8948L1.10352 23.9172L1.1422 23.9396L1.10352 23.962L1.1422 23.9844L1.10352 24.0068L1.1422 24.0271L1.10352 24.0495L1.1422 24.0719L1.10352 24.0943L1.1422 24.1167L1.10352 24.1391L1.1422 24.1595L1.10352 24.1819L1.1422 24.2043L1.10352 24.2267L1.1422 24.2491L1.10352 24.2715L1.1422 24.2919L1.10352 24.3143L1.1422 24.3367L1.10352 24.3591L1.1422 24.3815L1.10352 24.4039L1.1422 24.4242L1.10352 24.4466L1.1422 24.469L1.10352 24.4914L1.1422 24.5138L1.10352 24.5362L1.1422 24.5566L1.10352 24.579L1.1422 24.6014L1.10352 24.6238L1.1422 24.6462L1.10352 24.6665L1.1422 24.6889L1.10352 24.7113L1.1422 24.7337L1.10352 24.7561L1.1422 24.7785L1.10352 24.7989L1.1422 24.8213L1.10352 24.8437L1.1422 24.8661L1.10352 24.8885L1.1422 24.9109L1.10352 24.9313L1.1422 24.9537L1.10352 24.9761L1.1422 24.9985L1.10352 25.0209L1.1422 25.0433L1.10352 25.0636L1.1422 25.086L1.10352 25.1084L1.1422 25.1308L1.10352 25.1532L1.1422 25.1736L1.10352 25.196L1.1422 25.2184L1.10352 25.2408L1.1422 25.2632L1.10352 25.2856L1.1422 25.3059L1.10352 25.3283L1.1422 25.3507L1.10352 25.3731L1.1422 25.3955L1.10352 25.4179L1.1422 25.4383L1.10352 25.4607L1.1422 25.4831L1.10352 25.5055L1.1422 25.5279L1.10352 25.5503L1.1422 25.5707L1.10352 25.5931L1.1422 25.6154L1.10352 25.6378L1.1422 25.6602L1.10352 25.6826L1.1422 25.703L1.10352 25.7254L1.1422 25.7478L1.10352 25.7702L1.1422 25.7926L1.10352 25.815L1.1422 25.8354L1.10352 25.8578L1.1422 25.8802L1.10352 25.9026L1.1422 25.925L1.10352 25.9453L1.1422 25.9677L1.10352 25.9901L1.1422 26.0125L1.10352 26.0349L1.1422 26.0573L1.10352 26.0777L1.1422 26.1001L1.10352 26.1225L1.1422 26.1449L1.10352 26.1673L1.1422 26.1897L1.10352 26.21L1.1422 26.2324L1.10352 26.2548L1.1422 26.2772L1.10352 26.2996L1.1422 26.322L1.10352 26.3424L1.1422 26.3648L1.10352 26.3872L1.1422 26.4096L1.10352 26.432L1.1422 26.4524L1.10352 26.4748L1.1422 26.4972L1.10352 26.5196L1.1422 26.542L1.10352 26.5644L1.1422 26.5847L1.10352 26.6071L1.1422 26.6295L1.10352 26.6519L1.1422 26.6743L1.10352 26.6967L1.1422 26.7171L1.10352 26.7395L1.1422 26.7619L1.10352 26.7843L1.1422 26.8067L1.10352 26.8291L1.1422 26.8494L1.10352 26.8718L1.1422 26.8942L1.10352 26.9166L1.1422 26.939L1.10352 26.9614L1.1422 26.9818L1.10352 27.0042L1.1422 27.0266L1.10352 27.049L1.1422 27.0714L1.10352 27.0938L1.1422 27.1142L1.10352 27.1366L1.1422 27.159L1.10352 27.1814L1.1422 27.2038L1.10352 27.2241L1.1422 27.2465L1.10352 27.2689L1.1422 27.2913L1.10352 27.3137L1.1422 27.3361L1.10352 27.3565L1.1422 27.3789L1.10352 27.4013L1.1422 27.4237L1.10352 27.4461L1.1422 27.4685L1.10352 27.4888L1.1422 27.5112L1.10352 27.5336L1.1422 27.556L1.10352 27.5784L1.1422 27.6008L1.10352 27.6212L1.1422 27.6436L1.10352 27.666L1.1422 27.6884L1.10352 27.7108L1.1422 27.7312L1.10352 27.7536L1.1422 27.776L1.10352 27.7983L1.1422 27.8207L1.10352 27.8431L1.1422 27.8635L1.10352 27.8859L1.1422 27.9083L1.10352 27.9307L1.1422 27.9531L1.10352 27.9755L1.1422 27.9959L1.10352 28.0183L1.1422 28.0407L1.10352 28.0631L1.1422 28.0855L1.10352 28.1079L1.1422 28.1282L1.10352 28.1506L1.1422 28.173L1.10352 28.1954L1.1422 28.2178L1.10352 28.2402L1.1422 28.2606L1.10352 28.283L1.1422 28.3054L1.10352 28.3278L1.1422 28.3502L1.10352 28.3726L1.1422 28.3929L1.10352 28.4153L1.1422 28.4377L1.10352 28.4601L1.1422 28.4825L1.10352 28.5029L1.1422 28.5253L1.10352 28.5477L1.1422 28.5701L1.10352 28.5925L1.1422 28.6149L1.10352 28.6353L1.1422 28.6577L1.10352 28.6801L1.1422 28.7025L1.10352 28.7249L1.1422 28.7473L1.10352 28.7676L1.1422 28.79L1.10352 28.8124L1.1422 28.8348L1.10352 28.8572L1.1422 28.8796L1.10352 28.9L1.1422 28.9224L1.10352 28.9448L1.1422 28.9672L1.10352 28.9896L1.1422 29.0099L1.10352 29.0323L1.1422 29.0547L1.10352 29.0771L1.1422 29.0995L1.10352 29.1219L1.1422 29.1423L1.10352 29.1647L1.1422 29.1871L1.10352 29.2095L1.1422 29.2319L1.10352 29.2543L1.1422 29.2747L1.10352 29.2971L1.1422 29.3195L1.10352 29.3419L1.1422 29.3643L1.10352 29.3867L1.1422 29.407L1.10352 29.4294L1.1422 29.4518L1.10352 29.4742L1.1422 29.4966L1.10352 29.519L1.1422 29.5394L1.10352 29.5618L1.1422 29.5842L1.10352 29.6066L1.1422 29.629L1.10352 29.6493L1.1422 29.6717L1.10352 29.6941L1.1422 29.7165L1.10352 29.7389L1.1422 29.7613L1.10352 29.7817L1.1422 29.8041L1.10352 29.8265L1.1422 29.8489L1.10352 29.8713L1.1422 29.8937L1.10352 29.9141L1.1422 29.9365L1.10352 29.9589L1.1422 29.9813L1.10352 30.0037L1.1422 30.026L1.10352 30.0464L1.1422 30.0688L1.10352 30.0912L1.1422 30.1136L1.10352 30.136L1.1422 30.1564L1.10352 30.1788L1.1422 30.2012L1.10352 30.2236L1.1422 30.246L1.10352 30.2684L1.1422 30.2887L1.10352 30.3111L1.1422 30.3335L1.10352 30.3559L1.1422 30.3783L1.10352 30.4007L1.1422 30.4211L1.10352 30.4435L1.1422 30.4659L1.10352 30.4883L1.1422 30.5107L1.10352 30.5331L1.1422 30.5534L1.10352 30.5758L1.1422 30.5982L1.10352 30.6206L1.1422 30.643L1.10352 30.6654L1.1422 30.6858L1.10352 30.7082L1.1422 30.7306L1.10352 30.753L1.1422 30.7754L1.10352 30.7978L1.1422 30.8182L1.10352 30.8406L1.1422 30.863L1.10352 30.8854L1.1422 30.9078L1.10352 30.9302L1.1422 30.9505L1.10352 30.9729L1.1422 30.9953L1.10352 31.0177L1.1422 31.0401L1.10352 31.0605L1.1422 31.0829L1.10352 31.1053L1.1422 31.1277L1.10352 31.1501L1.1422 31.1725L1.10352 31.1928L1.1422 31.2152L1.10352 31.2376L1.1422 31.26L1.10352 31.2824L1.1422 31.3048L1.10352 31.3252L1.1422 31.3476L1.10352 31.37L1.1422 31.3924L1.10352 31.4148L1.1422 31.4352L1.10352 31.4576L1.1422 31.48L1.10352 31.5024L1.1422 31.5248L1.10352 31.5472L1.1422 31.5675L1.10352 31.5899L1.1422 31.6123L1.10352 31.6347L1.1422 31.6571L1.10352 31.6795L1.1422 31.6999L1.10352 31.7223L1.1422 31.7447L1.10352 31.7671L1.1422 31.7895L1.10352 31.8119L1.1422 31.8322L1.10352 31.8546L1.1422 31.877L1.10352 31.8994L1.1422 31.9218L1.10352 31.9442L1.1422 31.9646L1.10352 31.987L1.1422 32.0094L1.10352 32.0318L1.1422 32.0542L1.10352 32.0766L1.1422 32.097L1.10352 32.1194L1.1422 32.1418L1.10352 32.1642L1.1422 32.1866L1.10352 32.2069L1.1422 32.2293L1.10352 32.2517L1.1422 32.2741L1.10352 32.2965L1.1422 32.3189L1.10352 32.3393L1.1422 32.3617L1.10352 32.3841L1.1422 32.4065L1.10352 32.4289L1.1422 32.4513L1.10352 32.4716L1.1422 32.494L1.10352 32.5164L1.1422 32.5388L1.10352 32.5612L1.1422 32.5836L1.10352 32.604L1.1422 32.6264L1.10352 32.6488L1.1422 32.6712L1.10352 32.6936L1.1422 32.7139L1.10352 32.7363L1.1422 32.7587L1.10352 32.7811L1.1422 32.8035L1.10352 32.8259L1.1422 32.8463L1.10352 32.8687L1.1422 32.8911L1.10352 32.9135L1.1422 32.9359L1.10352 32.9583L1.1422 32.9787L1.10352 33.0011L1.1422 33.0235L1.10352 33.0459L1.1422 33.0683L1.10352 33.0907L1.1422 33.111L1.10352 33.1334L1.1422 33.1558L1.10352 33.1782L1.1422 33.2006L1.10352 33.223L1.1422 33.2434L1.10352 33.2658L1.1422 33.2882L1.10352 33.3106L1.1422 33.333L1.10352 33.3554L1.1422 33.3757L1.10352 33.3981L1.1422 33.4205L1.10352 33.4429L1.1422 33.4653L1.10352 33.4857L1.1422 33.5081L1.10352 33.5305L1.1422 33.5529L1.10352 33.5753L1.1422 33.5977L1.10352 33.6181L1.1422 33.6405L1.10352 33.6629L1.1422 33.6853L1.10352 33.7077L1.1422 33.7301L1.10352 33.7504L1.1422 33.7728L1.10352 33.7952L1.1422 33.8176L1.10352 33.84L1.1422 33.8624L1.10352 33.8828L1.1422 33.9052L1.10352 33.9276L1.1422 33.95L1.10352 33.9724L1.1422 33.9927L1.10352 34.0151L1.1422 34.0375L1.10352 34.0599L1.1422 34.0823L1.10352 34.1047L1.1422 34.1251L1.10352 34.1475L1.1422 34.1699L1.10352 34.1923L1.1422 34.2147L1.10352 34.2371L1.1422 34.2575L1.10352 34.2799L1.1422 34.3023L1.10352 34.3247L1.1422 34.347L1.10352 34.3694L1.1422 34.3898L1.10352 34.4122L1.1422 34.4346L1.10352 34.457L1.1422 34.4794L1.10352 34.5018L1.1422 34.5222L1.10352 34.5446L1.1422 34.567L1.10352 34.5894L1.1422 34.6118L1.10352 34.6342L1.1422 34.6545L1.10352 34.6769L1.1422 34.6993L1.10352 34.7217L1.1422 34.7441L1.10352 34.7645L1.1422 34.7869L1.10352 34.8093L1.1422 34.8317L1.10352 34.8541L1.1422 34.8765L1.10352 34.8969L1.1422 34.9193L1.10352 34.9416L1.1422 34.964L1.10352 34.9864L1.1422 35.0088L1.10352 35.0292L1.1422 35.0516L1.10352 35.074L1.1422 35.0964L1.10352 35.1188L1.1422 35.1412L1.10352 35.1616L1.1422 35.184L1.10352 35.2064L1.1422 35.2288L1.10352 35.2512L1.1422 35.2715L1.10352 35.2939L1.1422 35.3163L1.10352 35.3387L1.1422 35.3611L1.10352 35.3835L1.1422 35.4039L1.10352 35.4263L1.1422 35.4487L1.10352 35.4711L1.1422 35.4935L1.10352 35.5159L1.1422 35.5362L1.10352 35.5586L1.1422 35.581L1.10352 35.6034L1.1422 35.6258L1.10352 35.6482L1.1422 35.6686L1.10352 35.691L1.1422 35.7134L1.10352 35.7358L1.1422 35.7582L1.10352 35.7806L1.1422 35.801L1.10352 35.8234L1.1422 35.8458L1.10352 35.8682L1.1422 35.8906L1.10352 35.913L1.1422 35.9333L1.10352 35.9557L1.1422 35.9781L1.10352 36.0005L1.1422 36.0229L1.10352 36.0433L1.1422 36.0657L1.10352 36.0881L1.1422 36.1105L1.10352 36.1329L1.1422 36.1553L1.10352 36.1756L1.1422 36.198L1.10352 36.2204L1.1422 36.2428L1.10352 36.2652L1.1422 36.2876L1.10352 36.308L1.1422 36.3304L1.10352 36.3528L1.1422 36.3752L1.10352 36.3976L1.1422 36.42L1.10352 36.4404L1.1422 36.4628L1.10352 36.4852L1.1422 36.5075L1.10352 36.5299L1.1422 36.5503L1.10352 36.5727L1.1422 36.5951L1.10352 36.6175L1.1422 36.6399L1.10352 36.6623L1.1422 36.6827L1.10352 36.7051L1.1422 36.7275L1.10352 36.7499L1.1422 36.7723L1.10352 36.7947L1.1422 36.815L1.10352 36.8374L1.1422 36.8598L1.10352 36.8822L1.1422 36.9046L1.10352 36.927L1.1422 36.9474L1.10352 36.9698L1.1422 36.9922L1.10352 37.0146L1.1422 37.037L1.10352 37.0594L1.1422 37.0798L1.10352 37.1021L1.1422 37.1245L1.10352 37.1469L1.1422 37.1693L1.10352 37.1897L1.1422 37.2121L1.10352 37.2345L1.1422 37.2569L1.10352 37.2793L1.1422 37.3017L1.10352 37.3221L1.1422 37.3445L1.10352 37.3669L1.1422 37.3893L1.10352 37.4117L1.1422 37.4341L1.10352 37.4544L1.1422 37.4768L1.10352 37.4992L1.1422 37.5216L1.10352 37.544L1.1422 37.5664L1.10352 37.5868L1.1422 37.6092L1.10352 37.6316L1.1422 37.654L1.10352 37.6764L1.1422 37.6967L1.10352 37.7191L1.1422 37.7415L1.10352 37.7639L1.1422 37.7863L1.10352 37.8087L1.1422 37.8291L1.10352 37.8515L1.1422 37.8739L1.10352 37.8963L1.1422 37.9187L1.10352 37.9411L1.1422 37.9615L1.10352 37.9839L1.1422 38.0063L1.10352 38.0287L1.1422 38.0511L1.10352 38.0735L1.1422 38.0938L1.10352 38.1162L1.1422 38.1386L1.10352 38.161L1.1422 38.1834L1.10352 38.2058L1.1422 38.2262L1.10352 38.2486L1.1422 38.271L1.10352 38.2934L1.1422 38.3158L1.10352 38.3382L1.1422 38.3585L1.10352 38.3809L1.1422 38.4033L1.10352 38.4257L1.1422 38.4481L1.10352 38.4685L1.1422 38.4909L1.10352 38.5133L1.1422 38.5357L1.10352 38.5581L1.1422 38.5805L1.10352 38.6009L1.1422 38.6233L1.10352 38.6457L1.1422 38.6681L1.10352 38.6905L1.1422 38.7129L1.10352 38.7332L1.1422 38.7556L1.10352 38.778L1.1422 38.8004L1.10352 38.8228L1.1422 38.8452L1.10352 38.8656L1.1422 38.888L1.10352 38.9104L1.1422 38.9328L1.10352 38.9552L1.1422 38.9755L1.10352 38.9979L1.1422 39.0203L1.10352 39.0427L1.1422 39.0651L1.10352 39.0875L1.1422 39.1079L1.10352 39.1303L1.1422 39.1527L1.10352 39.1751L1.1422 39.1975L1.10352 39.2199L1.1422 39.2403L1.10352 39.2627L1.1422 39.285L1.10352 39.3074L1.1422 39.3298L1.10352 39.3522L1.1422 39.3726L1.10352 39.395L1.1422 39.4174L1.10352 39.4398L1.1422 39.4622L1.10352 39.4846L1.1422 39.505L1.10352 39.5274L1.1422 39.5498L1.10352 39.5722L1.1422 39.5946L1.10352 39.617L1.1422 39.6373L1.10352 39.6597L1.1422 39.6821L1.10352 39.7045L1.1422 39.7269L1.10352 39.7473L1.1422 39.7697L1.10352 39.7921L1.1422 39.8145L1.10352 39.8369L1.1422 39.8593L1.10352 39.8796L1.1422 39.902L1.10352 39.9244L1.1422 39.9468L1.10352 39.9692L1.1422 39.9916L1.10352 40.012L1.1422 40.0344L1.10352 40.0568L1.1422 40.0792L1.10352 40.1016L1.1422 40.124L1.10352 40.1444L1.1422 40.1668L1.10352 40.1892L1.1422 40.2116L1.10352 40.234L1.1422 40.2543L1.10352 40.2767L1.1422 40.2991L1.10352 40.3215L1.1422 40.3439L1.10352 40.3663L1.1422 40.3867L1.10352 40.4091L1.1422 40.4315L1.10352 40.4539L1.1422 40.4763L1.10352 40.4987L1.1422 40.519L1.10352 40.5414L1.1422 40.5638L1.10352 40.5862L1.1422 40.6086L1.10352 40.631L1.1422 40.6514L1.10352 40.6738L1.1422 40.6962L1.10352 40.7186L1.1422 40.741L1.10352 40.7634L1.1422 40.7838L1.10352 40.8062L1.1422 40.8286L1.10352 40.851L1.1422 40.8734L1.10352 40.8958L1.1422 40.9161L1.10352 40.9385L1.1422 40.9609L1.10352 40.9833L1.1422 41.0057L1.10352 41.0261L1.1422 41.0485L1.10352 41.0709L1.1422 41.0933L1.10352 41.1157L1.1422 41.1381L1.10352 41.1584L1.1422 41.1808L1.10352 41.2032L1.1422 41.2256L1.10352 41.248L1.1422 41.2704L1.10352 41.2908L1.1422 41.3132L1.10352 41.3356L1.1422 41.358L1.10352 41.3804L1.1422 41.4028L1.10352 41.4231L1.1422 41.4455L1.10352 41.4679L1.1422 41.4903L1.10352 41.5127L1.1422 41.5331L1.10352 41.5555L1.1422 41.5779L1.10352 41.6003L1.1422 41.6227L1.10352 41.6451L1.1422 41.6655L1.10352 41.6879L1.1422 41.7103L1.10352 41.7327L1.1422 41.7551L1.10352 41.7775L1.1422 41.7978L1.10352 41.8202L1.1422 41.8426L1.10352 41.865L1.1422 41.8874L1.10352 41.9098L1.1422 41.9302L1.10352 41.9526L1.1422 41.975L1.10352 41.9974L1.1422 42.0198L1.10352 42.0422L1.1422 42.0625L1.10352 42.0849L1.1422 42.1073L1.10352 42.1297L1.1422 42.1521L1.10352 42.1745L1.1422 42.1949L1.10352 42.2173L1.1422 42.2397L1.10352 42.2621L1.1422 42.2845L1.10352 42.3049L1.1422 42.3273L1.10352 42.3497L1.1422 42.3721L1.10352 42.3945L1.1422 42.4169L1.10352 42.4372L1.1422 42.4596L1.10352 42.482L1.1422 42.5044L1.10352 42.5268L1.1422 42.5492L1.10352 42.5696L1.1422 42.592L1.10352 42.6144L1.1422 42.6368L1.10352 42.6592L1.1422 42.6816L1.10352 42.7019L1.1422 42.7243L1.10352 42.7467L1.1422 42.7691L1.10352 42.7915L1.1422 42.8119L1.10352 42.8343L1.1422 42.8567L1.10352 42.8791L1.1422 42.9015L1.10352 42.9239L1.1422 42.9443L1.10352 42.9667L1.1422 42.9891L1.10352 43.0115L1.1422 43.0339L1.10352 43.0563L1.1422 43.0766L1.10352 43.099L1.1422 43.1214L1.10352 43.1438L1.1422 43.1662L1.10352 43.1886L1.1422 43.209L1.10352 43.2314L1.1422 43.2538L1.10352 43.2762L1.1422 43.2986L1.10352 43.321L1.1422 43.3413L1.10352 43.3637L1.1422 43.3861L1.10352 43.4085L1.1422 43.4309L1.10352 43.4533L1.1422 43.4737L1.10352 43.4961L1.1422 43.5185L1.10352 43.5409L1.1422 43.5633L1.10352 43.5837L1.1422 43.6061L1.10352 43.6284L1.1422 43.6508L1.10352 43.6732L1.1422 43.6956L1.10352 43.716L1.1422 43.7384L1.10352 43.7608L1.1422 43.7832L1.10352 43.8056L1.1422 43.828L1.10352 43.8484L1.1422 43.8708L1.10352 43.8932L1.1422 43.9156L1.10352 43.938L1.1422 43.9583L1.10352 43.9807L1.1422 44.0031L1.10352 44.0255L1.1422 44.0479L1.10352 44.0703L1.1422 44.0907L1.10352 44.1131L1.1422 44.1355L1.10352 44.1579L1.1422 44.1803L1.10352 44.2027L1.1422 44.223L1.10352 44.2454L1.1422 44.2678L1.10352 44.2902L1.1422 44.3126L1.10352 44.335L1.1422 44.3554L1.10352 44.3778L1.1422 44.4002L1.10352 44.4226L1.1422 44.445L1.10352 44.4674L1.1422 44.4878L1.10352 44.5102L1.1422 44.5326L1.10352 44.555L1.1422 44.5774L1.10352 44.5998L1.1422 44.6201L1.10352 44.6425L1.1422 44.6649L1.10352 44.6873L1.1422 44.7097L1.10352 44.7321L1.1422 44.7525L1.10352 44.7749L1.1422 44.7973L1.10352 44.8197L1.1422 44.8421L1.10352 44.8624L1.1422 44.8848L1.10352 44.9072L1.1422 44.9296L1.10352 44.952L1.1422 44.9744L1.10352 44.9948L1.1422 45.0172L1.10352 45.0396L1.1422 45.062L1.10352 45.0844L1.1422 45.1068L1.10352 45.1272L1.1422 45.1496L1.10352 45.172L1.1422 45.1944L1.10352 45.2168L1.1422 45.2371L1.10352 45.2595L1.1422 45.2819L1.10352 45.3043L1.1422 45.3267L1.10352 45.3491L1.1422 45.3695L1.10352 45.3919L1.1422 45.4143L1.10352 45.4367L1.1422 45.4591L1.10352 45.4815L1.1422 45.5018L1.10352 45.5242L1.1422 45.5466L1.10352 45.569L1.1422 45.5914L1.10352 45.6138L1.1422 45.6342L1.10352 45.6566L1.1422 45.679L1.10352 45.7014L1.1422 45.7238L1.10352 45.7462L1.1422 45.7666L1.10352 45.789L1.1422 45.8114L1.10352 45.8338L1.1422 45.8562L1.10352 45.8785L1.1422 45.8989L1.10352 45.9213L1.1422 45.9437L1.10352 45.9661L1.1422 45.9885L1.10352 46.0089L1.1422 46.0313L1.10352 46.0537L1.1422 46.0761L1.10352 46.0985L1.1422 46.1209L1.10352 46.1412L1.1422 46.1636L1.10352 46.186L1.1422 46.2084L1.10352 46.2308L1.1422 46.2532L1.10352 46.2736L1.1422 46.296L1.10352 46.3184L1.1422 46.3408L1.10352 46.3632L1.1422 46.3856L1.10352 46.4059L1.1422 46.4283L1.10352 46.4507L1.1422 46.4731L1.10352 46.4955L1.1422 46.5159L1.10352 46.5383L1.1422 46.5607L1.10352 46.5831L1.1422 46.6055L1.10352 46.6279L1.1422 46.6483L1.10352 46.6707L1.1422 46.6931L1.10352 46.7155L1.1422 46.7379L1.10352 46.7603L1.1422 46.7806L1.10352 46.803L1.1422 46.8254L1.10352 46.8478L1.1422 46.8702L1.10352 46.8926L1.1422 46.913L1.10352 46.9354L1.1422 46.9578L1.10352 46.9802L1.1422 47.0026L1.10352 47.025L1.1422 47.0453L1.10352 47.0677L1.1422 47.0901L1.10352 47.1125L1.1422 47.1349L1.10352 47.1573L1.1422 47.1777L1.10352 47.2001L1.1422 47.2225L1.10352 47.2449L1.1422 47.2673L1.10352 47.2877L1.1422 47.3101L1.10352 47.3325L1.1422 47.3549L1.10352 47.3773L1.1422 47.3997L1.10352 47.42L1.1422 47.4424L1.10352 47.4648L1.1422 47.4872L1.10352 47.5096L1.1422 47.532L1.10352 47.5524L1.1422 47.5748L1.10352 47.5972L1.1422 47.6196L1.10352 47.642L1.1422 47.6644L1.10352 47.6847L1.1422 47.7071L1.10352 47.7295L1.1422 47.7519L1.10352 47.7743L1.1422 47.7947L1.10352 47.8171L1.1422 47.8395L1.10352 47.8619L1.1422 47.8843L1.10352 47.9067L1.1422 47.9271L1.10352 47.9495L1.1422 47.9719L1.10352 47.9943L1.1422 48.0167L1.10352 48.0391L1.1422 48.0594L1.10352 48.0818L1.1422 48.1042L1.10352 48.1266L1.1422 48.149L1.10352 48.1714L1.1422 48.1918L1.10352 48.2142L1.1422 48.2366L1.10352 48.259L1.1422 48.2814L1.10352 48.3038L1.1422 48.3241L1.10352 48.3465L1.1422 48.3689L1.10352 48.3913L1.1422 48.4137L1.10352 48.4361L1.1422 48.4565L1.10352 48.4789L1.1422 48.5013L1.10352 48.5237L1.1422 48.5461L1.10352 48.5665L1.1422 48.5888L1.10352 48.6113L1.1422 48.6336L1.10352 48.656L1.1422 48.6784L1.10352 48.6988L1.1422 48.7212L1.10352 48.7436L1.1422 48.766L1.10352 48.7884L1.1422 48.8108L1.10352 48.8312L1.1422 48.8536L1.10352 48.876L1.1422 48.8984L1.10352 48.9208L1.1422 48.9432L1.10352 48.9635L1.1422 48.9859L1.10352 49.0083L1.1422 49.0307L1.10352 49.0531L1.1422 49.0735L1.10352 49.0959L1.1422 49.1183L1.10352 49.1407L1.1422 49.1631L1.10352 49.1855L1.1422 49.2058L1.10352 49.2282L1.1422 49.2506L1.10352 49.273L1.1422 49.2954L1.10352 49.3178L1.1422 49.3382L1.10352 49.3606L1.1422 49.383L1.10352 49.4054L1.1422 49.4278L1.10352 49.4502L1.1422 49.4706L1.10352 49.493L1.1422 49.5154L1.10352 49.5378L1.1422 49.5602L1.10352 49.5826L1.1422 49.6029L1.10352 49.6253L1.1422 49.6477L1.10352 49.6701L1.1422 49.6925L1.10352 49.7149L1.1422 49.7353L1.10352 49.7577L1.1422 49.7801L1.10352 49.8025L1.1422 49.8249L1.10352 49.8452L1.1422 49.8676L1.10352 49.89L1.1422 49.9124L1.10352 49.9348L1.1422 49.9572L1.10352 49.9776L1.1422 50L1.10352 50.0224L1.1422 50.0448L1.10352 50.0672L1.1422 50.0896L1.10352 50.11L1.1422 50.1324L1.10352 50.1548L1.1422 50.1772L1.10352 50.1996L1.1422 50.222L1.10352 50.2423L1.1422 50.2647L1.10352 50.2871L1.1422 50.3095L1.10352 50.3319L1.1422 50.3523L1.10352 50.3747L1.1422 50.3971L1.10352 50.4195L1.1422 50.4419L1.10352 50.4643L1.1422 50.4846L1.10352 50.507L1.1422 50.5294L1.10352 50.5518L1.1422 50.5742L1.10352 50.5966L1.1422 50.617L1.10352 50.6394L1.1422 50.6618L1.10352 50.6842L1.1422 50.7066L1.10352 50.729L1.1422 50.7494L1.10352 50.7717L1.1422 50.7942L1.10352 50.8165L1.1422 50.839L1.10352 50.8613L1.1422 50.8817L1.10352 50.9041L1.1422 50.9265L1.10352 50.9489L1.1422 50.9713L1.10352 50.9937L1.1422 51.0141L1.10352 51.0365L1.1422 51.0589L1.10352 51.0813L1.1422 51.1037L1.10352 51.124L1.1422 51.1464L1.10352 51.1688L1.1422 51.1912L1.10352 51.2136L1.1422 51.236L1.10352 51.2564L1.1422 51.2788L1.10352 51.3012L1.1422 51.3236L1.10352 51.346L1.1422 51.3684L1.10352 51.3887L1.1422 51.4111L1.10352 51.4335L1.1422 51.4559L1.10352 51.4783L1.1422 51.4987L1.10352 51.5211L1.1422 51.5435L1.10352 51.5659L1.1422 51.5883L1.10352 51.6107L1.1422 51.6311L1.10352 51.6535L1.1422 51.6759L1.10352 51.6983L1.1422 51.7207L1.10352 51.7431L1.1422 51.7634L1.10352 51.7858L1.1422 51.8082L1.10352 51.8306L1.1422 51.853L1.10352 51.8754L1.1422 51.8958L1.10352 51.9182L1.1422 51.9406L1.10352 51.963L1.1422 51.9854L1.10352 52.0078L1.1422 52.0281L1.10352 52.0505L1.1422 52.0729L1.10352 52.0953L1.1422 52.1177L1.10352 52.1401L1.1422 52.1605L1.10352 52.1829L1.1422 52.2053L1.10352 52.2277L1.1422 52.2501L1.10352 52.2705L1.1422 52.2929L1.10352 52.3153L1.1422 52.3377L1.10352 52.3601L1.1422 52.3825L1.10352 52.4028L1.1422 52.4252L1.10352 52.4476L1.1422 52.47L1.10352 52.4924L1.1422 52.5148L1.10352 52.5352L1.1422 52.5576L1.10352 52.58L1.1422 52.6024L1.10352 52.6248L1.1422 52.6472L1.10352 52.6675L1.1422 52.6899L1.10352 52.7123L1.1422 52.7347L1.10352 52.7571L1.1422 52.7775L1.10352 52.7999L1.1422 52.8223L1.10352 52.8447L1.1422 52.8671L1.10352 52.8895L1.1422 52.9099L1.10352 52.9323L1.1422 52.9547L1.10352 52.9771L1.1422 52.9994L1.10352 53.0219L1.1422 53.0422L1.10352 53.0646L1.1422 53.087L1.10352 53.1094L1.1422 53.1318L1.10352 53.1542L1.1422 53.1746L1.10352 53.197L1.1422 53.2194L1.10352 53.2418L1.1422 53.2642L1.10352 53.2866L1.1422 53.3069L1.10352 53.3293L1.1422 53.3517L1.10352 53.3741L1.1422 53.3965L1.10352 53.4189L1.1422 53.4393L1.10352 53.4617L1.1422 53.4841L1.10352 53.5065L1.1422 53.5289L1.10352 53.5492L1.1422 53.5716L1.10352 53.594L1.1422 53.6164L1.10352 53.6388L1.1422 53.6612L1.10352 53.6816L1.1422 53.704L1.10352 53.7264L1.1422 53.7488L1.10352 53.7712L1.1422 53.7936L1.10352 53.814L1.1422 53.8364L1.10352 53.8588L1.1422 53.8812L1.10352 53.9036L1.1422 53.926L1.10352 53.9463L1.1422 53.9687L1.10352 53.9911L1.1422 54.0135L1.10352 54.0359L1.1422 54.0563L1.10352 54.0787L1.1422 54.1011L1.10352 54.1235L1.1422 54.1459L1.10352 54.1683L1.1422 54.1886L1.10352 54.211L1.1422 54.2334L1.10352 54.2558L1.1422 54.2782L1.10352 54.3006L1.1422 54.321L1.10352 54.3434L1.1422 54.3658L1.10352 54.3882L1.1422 54.4106L1.10352 54.433L1.1422 54.4534L1.10352 54.4758L1.1422 54.4982L1.10352 54.5206L1.1422 54.543L1.10352 54.5654L1.1422 54.5857L1.10352 54.6081L1.1422 54.6305L1.10352 54.6529L1.1422 54.6753L1.10352 54.6977L1.1422 54.7181L1.10352 54.7405L1.1422 54.7629L1.10352 54.7853L1.1422 54.8077L1.10352 54.828L1.1422 54.8504L1.10352 54.8728L1.1422 54.8952L1.10352 54.9176L1.1422 54.94L1.10352 54.9604L1.1422 54.9828L1.10352 55.0052L1.1422 55.0276L1.10352 55.05L1.1422 55.0724L1.10352 55.0928L1.1422 55.1152L1.10352 55.1376L1.1422 55.16L1.10352 55.1824L1.1422 55.2047L1.10352 55.2251L1.1422 55.2475L1.10352 55.2699L1.1422 55.2923L1.10352 55.3147L1.1422 55.3351L1.10352 55.3575L1.1422 55.3799L1.10352 55.4023L1.1422 55.4247L1.10352 55.4471L1.1422 55.4674L1.10352 55.4898L1.1422 55.5122L1.10352 55.5346L1.1422 55.557L1.10352 55.5794L1.1422 55.5998L1.10352 55.6222L1.1422 55.6446L1.10352 55.667L1.1422 55.6894L1.10352 55.7118L1.1422 55.7322L1.10352 55.7545L1.1422 55.7769L1.10352 55.7993L1.1422 55.8217L1.10352 55.8441L1.1422 55.8645L1.10352 55.8869L1.1422 55.9093L1.10352 55.9317L1.1422 55.9541L1.10352 55.9765L1.1422 55.9969L1.10352 56.0193L1.1422 56.0417L1.10352 56.0641L1.1422 56.0865L1.10352 56.1068L1.1422 56.1292L1.10352 56.1516L1.1422 56.174L1.10352 56.1964L1.1422 56.2188L1.10352 56.2392L1.1422 56.2616L1.10352 56.284L1.1422 56.3064L1.10352 56.3288L1.1422 56.3512L1.10352 56.3715L1.1422 56.3939L1.10352 56.4163L1.1422 56.4387L1.10352 56.4611L1.1422 56.4835L1.10352 56.5039L1.1422 56.5263L1.10352 56.5487L1.1422 56.5711L1.10352 56.5935L1.1422 56.6139L1.10352 56.6363L1.1422 56.6587L1.10352 56.6811L1.1422 56.7035L1.10352 56.7259L1.1422 56.7462L1.10352 56.7686L1.1422 56.791L1.10352 56.8134L1.1422 56.8358L1.10352 56.8582L1.1422 56.8786L1.10352 56.901L1.1422 56.9234L1.10352 56.9458L1.1422 56.9682L1.10352 56.9906L1.1422 57.0109L1.10352 57.0333L1.1422 57.0557L1.10352 57.0781L1.1422 57.1005L1.10352 57.1229L1.1422 57.1433L1.10352 57.1657L1.1422 57.1881L1.10352 57.2105L1.1422 57.2329L1.10352 57.2553L1.1422 57.2757L1.10352 57.2981L22.454 69.6257L43.666 57.2981V13.1574Z" fill="#D9D9D9"/>
<path d="M43.6299 13.1797L24.0225 24.7092" stroke="black" stroke-width="0.407258" stroke-miterlimit="10"/>
<path d="M24.0223 24.7094L22.4564 25.6196L1 13.2308" stroke="black" stroke-width="0.407258" stroke-miterlimit="10"/>
<path d="M22.4336 69.6257V25.2773" stroke="black" stroke-width="0.407258" stroke-miterlimit="10"/>
<path d="M22.4377 69.6093L1.10352 57.4506V13.1593L22.3155 0.697266L43.666 13.1593V57.2979L22.4377 69.6093Z" stroke="black" stroke-width="0.407258" stroke-miterlimit="10"/>
<path d="M22.4375 69.6093L43.788 81.7822L65 69.4565V44.7869L43.6495 32.4592L22.4375 44.7869V69.6093Z" fill="#DFFFAE"/>
<path d="M64.9609 44.8073L45.3535 56.3367" stroke="black" stroke-width="0.407258" stroke-miterlimit="10"/>
<path d="M45.3533 56.3367L43.7895 57.2469L22.3311 44.8582" stroke="black" stroke-width="0.407258" stroke-miterlimit="10"/>
<path d="M43.7676 81.7824V56.905" stroke="black" stroke-width="0.407258" stroke-miterlimit="10"/>
<path d="M43.7676 81.7821L22.4375 69.6091V44.7868L43.6495 32.3247L65 44.7868V69.4564L43.7676 81.7821Z" stroke="black" stroke-width="0.407258" stroke-miterlimit="10"/>
<path d="M1.10352 81.9982L22.454 94.1732L43.666 81.8455V70.8129L22.3155 58.4852L1.10352 70.8129V81.9982Z" fill="#F7F8FC"/>
<path d="M43.6299 70.8353L24.0225 82.3628" stroke="black" stroke-width="0.407258" stroke-miterlimit="10"/>
<path d="M24.0223 82.3628L22.4564 83.2731L1 70.8843" stroke="black" stroke-width="0.407258" stroke-miterlimit="10"/>
<path d="M22.4336 94.1731V82.9308" stroke="black" stroke-width="0.407258" stroke-miterlimit="10"/>
<path d="M22.4336 94.173L1.10352 81.998V70.8127L22.3155 58.3527L43.666 70.8127V81.8453L22.4336 94.173Z" stroke="black" stroke-width="0.407258" stroke-miterlimit="10"/>
</svg>
