<svg width="73" height="73" viewBox="0 0 73 73" fill="none" xmlns="http://www.w3.org/2000/svg">
<rect width="72.1609" height="73" rx="23.3027" fill="#DFFFAE"/>
<path d="M36.7043 23C28.326 23 20.4353 27.0162 15.5675 33.7094C14.3395 35.3945 14.3395 37.6631 15.5675 39.3482C20.4339 46.0414 28.3246 50.0576 36.7043 50.0576C45.084 50.0576 52.9733 46.0414 57.841 39.3482C59.0691 37.6631 59.0691 35.3945 57.841 33.7094C52.9747 27.0162 45.084 23 36.7043 23Z" fill="#D9D9D9" stroke="black" stroke-width="0.277841" stroke-miterlimit="10"/>
<path d="M36.7043 50.0589C44.1764 50.0589 50.2337 44.0016 50.2337 36.5295C50.2337 29.0573 44.1764 23 36.7043 23C29.2322 23 23.1748 29.0573 23.1748 36.5295C23.1748 44.0016 29.2322 50.0589 36.7043 50.0589Z" fill="#FEFDF3" stroke="black" stroke-width="0.277841" stroke-miterlimit="10"/>
<path d="M36.704 43.0838C40.5931 43.0838 43.7459 39.931 43.7459 36.0419C43.7459 32.1528 40.5931 29 36.704 29C32.8149 29 29.6621 32.1528 29.6621 36.0419C29.6621 39.931 32.8149 43.0838 36.704 43.0838Z" fill="black"/>
</svg>
