<svg width="92" height="70" viewBox="0 0 92 70" fill="none" xmlns="http://www.w3.org/2000/svg">
<path d="M1 43.7886L46.3401 69.64L91.3881 43.462V40.1012L46.0456 13.9232L1 40.1012V43.7886Z" fill="#F7F8FC"/>
<path d="M91.3067 39.9973L48.9883 64.876" stroke="black" stroke-width="0.494952" stroke-miterlimit="10"/>
<path d="M49.6686 64.48L46.3425 66.4128L1 39.9527" stroke="black" stroke-width="0.494952" stroke-miterlimit="10"/>
<path d="M46.2959 69.6399V66.4128" stroke="black" stroke-width="0.494952" stroke-miterlimit="10"/>
<path d="M46.2955 69.6399L1 43.7885V39.9527L46.0456 13.4901L91.3881 39.9527V43.4619L46.2955 69.6399Z" stroke="black" stroke-width="0.494952" stroke-miterlimit="10"/>
<path d="M19.8975 33.9612L28.7002 38.98L37.4485 33.8969V6.13748L28.6433 1.05432L19.8975 6.13748V33.9612Z" fill="#DFFFAE"/>
<path d="M37.4317 6.1474L29.3467 10.9014" stroke="black" stroke-width="0.494952" stroke-miterlimit="10"/>
<path d="M29.3467 10.9014L28.7008 11.2751L19.8535 6.16718" stroke="black" stroke-width="0.494952" stroke-miterlimit="10"/>
<path d="M28.6934 38.9799V11.1339" stroke="black" stroke-width="0.494952" stroke-miterlimit="10"/>
<path d="M28.6928 38.98L19.8975 33.9612V6.13748L28.6433 0.999878L37.4485 6.13748V33.8969L28.6928 38.98Z" stroke="black" stroke-width="0.494952" stroke-miterlimit="10"/>
<path d="M33.4316 42.8657L42.2368 47.8845L50.9826 42.8014V23.7853L42.1799 18.7021L33.4316 23.7853V42.8657Z" fill="#DFFFAE"/>
<path d="M50.9679 23.7925L42.8828 28.5465" stroke="black" stroke-width="0.494952" stroke-miterlimit="10"/>
<path d="M42.8828 28.5466L42.2369 28.9227L33.3896 23.8148" stroke="black" stroke-width="0.494952" stroke-miterlimit="10"/>
<path d="M42.2275 47.8842V28.7815" stroke="black" stroke-width="0.494952" stroke-miterlimit="10"/>
<path d="M42.2269 47.8843L33.4316 42.8655V23.7851L42.1799 18.645L50.9826 23.7851V42.8012L42.2269 47.8843Z" stroke="black" stroke-width="0.494952" stroke-miterlimit="10"/>
<path d="M46.9688 51.7696L55.7715 56.7884L64.5197 51.7053V37.8268L55.7146 32.7437L46.9688 37.8268V51.7696Z" fill="#DFFFAE"/>
<path d="M64.502 37.8343L56.417 42.5883" stroke="black" stroke-width="0.494952" stroke-miterlimit="10"/>
<path d="M56.417 42.5883L55.7711 42.9645L46.9238 37.8566" stroke="black" stroke-width="0.494952" stroke-miterlimit="10"/>
<path d="M55.7637 56.7883V42.8232" stroke="black" stroke-width="0.494952" stroke-miterlimit="10"/>
<path d="M55.764 56.7884L46.9688 51.7696V37.8268L55.7146 32.6892L64.5197 37.8268V51.7053L55.764 56.7884Z" stroke="black" stroke-width="0.494952" stroke-miterlimit="10"/>
</svg>
