<svg width="135" height="22" viewBox="0 0 135 22" fill="none" xmlns="http://www.w3.org/2000/svg">
<path d="M20.0672 21.612V21.2444C23.6964 21.2444 25.8486 19.0688 30.3267 12.552L24.0861 3.36275C23.0088 1.75589 22.3981 1.12754 20.5736 1.12754V0.759971H33.9609V1.12754C32.4442 1.12754 32.1761 1.73105 32.1761 2.49599C32.1761 3.09205 32.4913 3.66824 32.8389 4.23449L35.8351 8.70491C37.8209 5.80907 39.1961 3.73777 39.1961 2.45873C39.1961 1.48766 38.4514 1.13996 37.178 1.13996V0.772394H44.8459V1.13996C42.0881 1.13996 40.6607 2.6599 36.1329 9.14947L42.6391 18.8354C43.7636 20.487 44.8956 21.2469 46.2956 21.2469V21.6145H33.4719V21.2469C34.6261 21.2469 35.0407 20.8148 35.0407 20.097C35.0407 19.6177 34.6857 18.967 34.1992 18.2716L30.6147 12.999C28.0529 16.774 27.343 17.9786 27.343 19.0539C27.343 20.333 28.3359 21.2469 30.0735 21.2469V21.6145L20.0672 21.612ZM117.251 9.26372C117.435 3.17649 118.579 1.54727 119.957 1.54727C121.334 1.54727 122.702 2.87349 122.65 9.26372H117.251ZM109.538 10.8606C109.538 19.6401 118.599 24.0658 126.438 20.2162L126.19 19.9679C121.054 21.6816 117.425 17.904 117.425 10.8582C117.425 10.5328 117.425 10.2199 117.425 9.91441H129.97C129.97 3.77006 126.431 0 120.289 0C114.481 0.00496714 109.538 4.91995 109.538 10.8606ZM72.5116 3.00263V2.65245L82.0885 0.392408V3.71045C84.2134 2.1458 86.4748 0.407309 88.8926 0.407309C91.4618 0.407309 93.1647 1.60687 93.8002 3.87188C95.9871 2.26998 98.3205 0.407309 100.823 0.407309C104.139 0.407309 106.011 2.39416 106.006 6.11952V18.7956C106.006 20.5341 106.376 20.8645 107.609 20.8645V21.2221H97.1836V20.8645C98.2932 20.8645 98.7053 20.3379 98.7053 19.0366V5.05903C98.7053 2.55062 96.1286 2.87598 93.9416 4.48285C94.0354 5.01993 94.0802 5.5644 94.0757 6.10958V18.7956C94.0757 20.5341 94.448 20.8669 95.6818 20.8669V21.2246H85.2559V20.8669C86.368 20.8669 86.7776 20.3404 86.7776 19.039V5.05655C86.7776 2.57298 84.2655 2.86604 82.0959 4.42323V19.4041C82.0959 20.5416 82.796 20.8669 83.6995 20.8669V21.2246H72.529V20.8669C74.0507 20.8669 74.7904 19.7742 74.7904 18.1077V5.367C74.773 3.78745 73.2265 3.00263 72.5116 3.00263ZM54.7679 16.5108C54.7679 13.8583 55.9296 11.2953 59.7549 10.4211L59.7822 16.7666C59.6655 18.4032 58.4219 19.3122 57.2378 19.2973C55.8526 19.2799 54.7679 18.4107 54.7679 16.5108ZM47.44 17.2707C47.44 21.0607 51.1287 21.9895 52.8515 21.9895C55.947 21.9895 58.9978 20.2659 59.9882 17.8643C60.3755 20.6856 62.0486 21.9895 65.2284 21.9895C68.0161 21.9895 69.8208 20.8471 70.9676 18.7286L70.6821 18.5473C69.1654 19.8512 67.2069 18.8726 67.2069 16.2227V6.50695C67.2069 1.60687 60.9241 -0.918919 55.2122 1.0729L55.2718 1.41067C58.4814 1.43302 59.8691 3.5813 59.8691 7.37123L59.8815 9.8548C50.6 10.965 47.44 13.4287 47.44 17.2707ZM8.09987 9.26372C8.28108 3.17649 9.42544 1.54727 10.8031 1.54727C12.1808 1.54727 13.5486 2.87349 13.4965 9.26372H8.09987ZM0 11.1959C0 20.7105 10.818 25.2256 19.0147 19.4066L18.7665 19.1583C12.4663 22.829 7.88391 19.1732 7.88391 11.1934C7.88391 10.8706 7.88391 10.5577 7.88391 10.2547H20.4297C20.4297 4.13763 16.8898 0.387436 10.7485 0.387436C4.94234 0.38992 0 5.28504 0 11.1959ZM52.4543 8.1163C52.8615 8.12371 53.2661 8.04893 53.6438 7.89641C54.0215 7.74389 54.3646 7.51678 54.6526 7.22863C54.9406 6.94047 55.1676 6.5972 55.3201 6.21931C55.4725 5.84142 55.5473 5.43667 55.5399 5.02923C55.5399 4.41866 55.3589 3.82181 55.0199 3.31414C54.6808 2.80647 54.1989 2.41079 53.6351 2.17714C53.0713 1.94349 52.4509 1.88235 51.8524 2.00147C51.2538 2.12058 50.704 2.4146 50.2725 2.84633C49.841 3.27807 49.5471 3.82814 49.4281 4.42697C49.309 5.02581 49.3701 5.64651 49.6036 6.2106C49.8372 6.77469 50.2327 7.25683 50.7401 7.59604C51.2475 7.93525 51.844 8.1163 52.4543 8.1163ZM131.909 21.9995C132.317 22.0072 132.722 21.9327 133.1 21.7803C133.478 21.628 133.821 21.401 134.11 21.1128C134.398 20.8247 134.626 20.4813 134.779 20.1032C134.931 19.7252 135.007 19.3201 135 18.9124C135 18.3018 134.819 17.705 134.48 17.1973C134.14 16.6896 133.659 16.2939 133.095 16.0603C132.531 15.8266 131.911 15.7655 131.312 15.8846C130.713 16.0037 130.164 16.2977 129.732 16.7295C129.301 17.1612 129.007 17.7113 128.888 18.3101C128.769 18.909 128.83 19.5297 129.063 20.0938C129.297 20.6578 129.692 21.14 130.2 21.4792C130.707 21.8184 131.304 21.9995 131.914 21.9995H131.909Z" fill="#231F20"/>
</svg>
