<svg width="160" height="27" viewBox="0 0 160 27" fill="none" xmlns="http://www.w3.org/2000/svg">
<path d="M34.6605 25.2905V22.564C36.042 23.5324 37.5291 24.0149 39.1221 24.0149C40.715 24.0149 41.9444 23.6117 42.6715 22.802C43.3985 21.9923 43.7587 20.6704 43.7587 18.8296V2.08398H46.3795V19.0411C46.3795 20.5151 46.1746 21.7775 45.7582 22.8185C45.3451 23.8629 44.7799 24.6395 44.0661 25.1451C43.3523 25.6541 42.6219 26.011 41.8717 26.2258C41.1215 26.4373 40.3184 26.5431 39.4558 26.5431C37.7208 26.5431 36.1213 26.1234 34.6572 25.2872" fill="#231F20"/>
<path d="M51.6113 18.6511V8.17151H54.2321V18.7701C54.2321 20.6076 54.6319 21.9527 55.435 22.8053C56.2348 23.658 57.4906 24.0876 59.1992 24.0876C60.9078 24.0876 62.1306 23.6613 62.9469 22.8053C63.7599 21.9527 64.1664 20.6076 64.1664 18.7701V8.17151H66.7871V18.6511C66.7871 21.1628 66.1262 23.1094 64.8075 24.4842C63.4856 25.859 61.6184 26.5464 59.2025 26.5464C56.7867 26.5464 54.9195 25.859 53.5975 24.4842C52.2756 23.1094 51.6179 21.1661 51.6179 18.6511" fill="#231F20"/>
<path d="M70.4121 13.0825C70.4121 11.6383 70.9409 10.4056 71.9951 9.3844C73.0527 8.3632 74.6654 7.85095 76.8367 7.85095C78.3834 7.85095 79.9267 8.21779 81.4767 8.95146V11.5557C80.0953 10.7295 78.6445 10.3131 77.1209 10.3131C74.3944 10.3131 73.0328 11.2351 73.0328 13.0825C73.0328 13.7104 73.3633 14.2161 74.0243 14.5994C74.6853 14.9828 75.4916 15.3034 76.45 15.5578C77.4051 15.8123 78.3635 16.1164 79.3186 16.47C80.2737 16.8236 81.0867 17.4251 81.751 18.2711C82.4186 19.1171 82.7524 20.1978 82.7524 21.5098C82.7524 23.0829 82.1641 24.3123 80.9909 25.2047C79.8177 26.097 78.1917 26.5431 76.113 26.5431C74.0342 26.5431 72.2826 26.0903 70.6434 25.1815V22.4154C72.3785 23.4795 74.1664 24.0116 76.0072 24.0116C78.7568 24.0116 80.1316 23.1788 80.1316 21.5098C80.1316 20.6109 79.8011 19.907 79.1402 19.3981C78.4792 18.8891 77.6695 18.5091 76.7144 18.2546C75.7593 18.0001 74.8042 17.7225 73.8458 17.4185C72.8907 17.1177 72.0777 16.6088 71.4102 15.8916C70.7426 15.1745 70.4121 14.2392 70.4121 13.0792" fill="#231F20"/>
<path d="M88.5065 20.9778C88.5164 23.0962 90.1159 24.157 93.2952 24.157C93.9661 24.157 94.5742 24.081 95.1161 23.929C95.6581 23.777 96.22 23.4762 96.8049 23.0301C97.3866 22.5839 97.8426 21.8469 98.1665 20.8224C98.4904 19.7979 98.6523 18.5256 98.6523 17.0087C98.6523 14.6655 98.2062 12.9668 97.3106 11.906C96.415 10.8451 94.9641 10.3164 92.9647 10.3164C91.4676 10.3164 89.9837 10.6171 88.5131 11.2186V20.9811L88.5065 20.9778ZM85.8857 20.8323V1.26111H88.5065V8.58793C89.954 8.09882 91.4412 7.85095 92.9581 7.85095C93.7843 7.85095 94.5609 7.92035 95.288 8.06246C96.0151 8.20457 96.752 8.48218 97.5022 8.89528C98.2524 9.30839 98.9002 9.84047 99.4422 10.4915C99.9842 11.1426 100.427 12.025 100.764 13.142C101.101 14.259 101.27 15.5446 101.27 16.9987C101.27 18.5884 101.085 19.983 100.711 21.1761C100.338 22.3724 99.8817 23.2978 99.3397 23.9587C98.7944 24.6197 98.1434 25.1551 97.38 25.5682C96.6165 25.9813 95.9159 26.2457 95.2715 26.3613C94.627 26.4803 93.9694 26.5365 93.2952 26.5365C91.9832 26.5365 90.843 26.3746 89.8747 26.0507C88.9064 25.7268 88.1793 25.3534 87.6935 24.927C87.2077 24.504 86.8177 23.9951 86.5137 23.4068C86.2129 22.8186 86.0312 22.3294 85.975 21.9461C85.9155 21.5627 85.8857 21.1893 85.8857 20.8224" fill="#231F20"/>
<path d="M105.282 26.2622V9.59924C108.009 8.45907 110.933 7.88733 114.063 7.88733V10.3494C112.087 10.3957 110.031 10.7097 107.903 11.288V26.2622H105.282Z" fill="#231F20"/>
<path d="M118.128 20.7068C118.128 22.9606 119.763 24.0876 123.039 24.0876H123.091C126.294 24.0876 127.897 22.997 127.897 20.8125V17.3424C127.097 17.2003 126.023 17.1309 124.681 17.1309C120.309 17.1309 118.124 18.324 118.124 20.7068M115.507 20.7068C115.507 19.8938 115.656 19.1634 115.956 18.519C116.257 17.8745 116.627 17.3523 117.063 16.9525C117.5 16.5526 118.055 16.2089 118.729 15.9247C119.403 15.6404 119.998 15.4322 120.517 15.2967C121.036 15.1645 121.654 15.0621 122.368 14.9927C123.082 14.9233 123.587 14.8836 123.888 14.8704C124.189 14.8605 124.546 14.8539 124.959 14.8539L127.864 15.0257C127.864 13.3832 127.417 12.2133 126.528 11.5094C125.639 10.8088 124.324 10.4585 122.579 10.4585C120.623 10.4585 118.858 10.7493 117.288 11.3243V8.79282C119.069 8.16821 120.881 7.85425 122.718 7.85425C125.253 7.85425 127.186 8.49539 128.518 9.77436C129.85 11.0533 130.517 12.9272 130.517 15.3959V20.829C130.517 21.9857 130.25 22.9739 129.714 23.7935C129.179 24.6131 128.488 25.2079 127.646 25.5715C126.803 25.9383 126.013 26.1928 125.276 26.3316C124.539 26.4737 123.812 26.5431 123.091 26.5431C122.536 26.5431 121.964 26.5067 121.38 26.4373C120.795 26.3646 120.134 26.2027 119.397 25.9482C118.66 25.6938 118.019 25.3666 117.473 24.97C116.931 24.5734 116.465 24.005 116.082 23.2647C115.699 22.5244 115.507 21.6718 115.507 20.7001" fill="#231F20"/>
<path d="M133.634 13.0825C133.634 11.6383 134.163 10.4056 135.217 9.3844C136.274 8.3632 137.887 7.85095 140.058 7.85095C141.605 7.85095 143.152 8.21779 144.698 8.95146V11.5557C143.317 10.7295 141.866 10.3131 140.343 10.3131C137.616 10.3131 136.255 11.2351 136.255 13.0825C136.255 13.7104 136.585 14.2161 137.246 14.5994C137.907 14.9828 138.713 15.3034 139.672 15.5578C140.627 15.8123 141.585 16.1164 142.54 16.47C143.495 16.8236 144.308 17.4251 144.976 18.2711C145.64 19.1171 145.974 20.1978 145.974 21.5098C145.974 23.0829 145.386 24.3123 144.213 25.2047C143.036 26.097 141.413 26.5431 139.335 26.5431C137.256 26.5431 135.504 26.0903 133.865 25.1815V22.4154C135.6 23.4795 137.388 24.0116 139.229 24.0116C141.978 24.0116 143.353 23.1788 143.353 21.5098C143.353 20.6109 143.023 19.907 142.362 19.3981C141.701 18.8891 140.895 18.5091 139.936 18.2546C138.981 18.0001 138.023 17.7225 137.068 17.4185C136.112 17.1177 135.299 16.6088 134.632 15.8916C133.964 15.1745 133.634 14.2392 133.634 13.0792" fill="#231F20"/>
<path d="M149.52 26.2622H152.141V8.1715H149.52V26.2622ZM149.378 4.98564H152.283V2.08069H149.378V4.98564Z" fill="#231F20"/>
<path d="M160 1.28748H157.379V26.2654H160V1.28748Z" fill="#231F20"/>
<path d="M2.20061 25.8986C0.0954296 24.6891 -0.625025 22.0055 0.591155 19.9103L10.856 2.19304C12.0722 0.0977786 14.7623 -0.622676 16.8675 0.586894C18.9727 1.79646 19.6931 4.47999 18.4769 6.57526L8.21211 24.2925C6.99593 26.3877 4.30579 27.1082 2.20061 25.8953" fill="#231F20"/>
<path d="M27.1329 25.8986C25.0277 27.1082 22.3375 26.391 21.1214 24.2958L10.8565 6.57854C9.64367 4.48328 10.3641 1.79975 12.466 0.590178C14.5712 -0.619392 17.2613 0.0977576 18.4775 2.19633L28.7423 19.9136C29.9585 22.0088 29.2347 24.6923 27.1329 25.9019" fill="#231F20"/>
<path d="M18.2985 1.91213C18.2687 1.86917 18.2423 1.82621 18.2125 1.78655C18.1597 1.71384 18.1035 1.64774 18.0473 1.58165C18.0076 1.53538 17.9746 1.48911 17.9349 1.44615C17.8853 1.38997 17.8325 1.34039 17.7796 1.28751C17.7267 1.23464 17.6771 1.18176 17.621 1.1355C17.578 1.09584 17.5284 1.05948 17.4822 1.01982C17.4161 0.963642 17.3467 0.90746 17.2773 0.854582C17.2343 0.824839 17.1913 0.798402 17.1484 0.768658C17.0691 0.715781 16.9897 0.662903 16.9071 0.613331C16.8575 0.586892 16.8113 0.560451 16.7617 0.534013C16.6857 0.49105 16.6064 0.451392 16.5271 0.415038C16.4643 0.385295 16.4015 0.358859 16.3387 0.335726C16.2726 0.309287 16.2065 0.282845 16.1404 0.259711C16.0644 0.233272 15.9884 0.210138 15.9124 0.187004C15.8529 0.17048 15.7967 0.153958 15.7372 0.137433C15.6579 0.117604 15.5753 0.101079 15.4926 0.0845547C15.4365 0.0746402 15.377 0.0614221 15.3208 0.0548124C15.2415 0.0415931 15.1622 0.0349846 15.0795 0.0250701C15.0168 0.0184604 14.9507 0.0151528 14.8879 0.0118479C14.8152 0.00854311 14.7424 0.00854492 14.6697 0.00854492C14.597 0.00854492 14.5243 0.00854311 14.4516 0.0118479C14.3888 0.0118479 14.3227 0.0184604 14.2599 0.0250701C14.1806 0.0316798 14.098 0.0415931 14.0187 0.0548124C13.9625 0.0647269 13.903 0.0746402 13.8468 0.0845547C13.7642 0.101079 13.6816 0.117604 13.6023 0.137433C13.5428 0.150653 13.4866 0.17048 13.4271 0.187004C13.3511 0.210138 13.2751 0.233272 13.1991 0.259711C13.133 0.282845 13.0669 0.309287 13.0008 0.335726C12.938 0.362164 12.8752 0.3886 12.8124 0.415038C12.7331 0.451392 12.6571 0.49105 12.5778 0.534013C12.5282 0.560451 12.4786 0.586892 12.4324 0.613331C12.3497 0.662903 12.2704 0.715781 12.1911 0.768658C12.1482 0.798402 12.1052 0.824839 12.0622 0.854582C11.9895 0.90746 11.9234 0.963642 11.8573 1.01982C11.8111 1.05618 11.7648 1.09253 11.7185 1.1355C11.6623 1.18507 11.6128 1.23794 11.5599 1.28751C11.507 1.34039 11.4541 1.38997 11.4046 1.44615C11.3649 1.48911 11.3286 1.53538 11.2889 1.58165C11.2327 1.64774 11.1765 1.71715 11.1237 1.78655C11.0939 1.82621 11.0675 1.87247 11.0377 1.91213C10.9849 1.99144 10.932 2.07076 10.8824 2.15339C10.1025 3.47202 10.0331 5.15748 10.856 6.57525L14.6664 13.1519L18.4769 6.57525C19.2998 5.15748 19.2304 3.47202 18.4505 2.15339C18.4009 2.07076 18.348 1.99144 18.2951 1.91213" fill="#5B5859"/>
</svg>
