<svg width="179" height="34" viewBox="0 0 179 34" fill="none" xmlns="http://www.w3.org/2000/svg">
<g clip-path="url(#clip0_1085_9850)">
<path d="M112.011 18.4373C112.037 18.4193 112.066 18.4073 112.097 18.4024C112.24 18.3438 112.375 18.2914 112.491 18.2403C112.563 18.2012 112.639 18.1682 112.716 18.1417C114.927 17.048 116.779 14.6385 116.779 12.1019C116.779 6.778 112.985 5.10559 108.546 5.10559H100.167C100.25 5.27769 100.675 7.1671 100.675 7.23941V30.6915H104.554C104.643 30.6923 104.732 30.6745 104.814 30.6391C104.897 30.6036 104.972 30.5513 105.035 30.4851C105.097 30.4189 105.148 30.3402 105.181 30.2536C105.215 30.1669 105.232 30.0742 105.23 29.9806V19.2903H107.085C109.812 19.2903 111.503 18.6294 111.917 18.4772C111.93 18.451 111.973 18.441 112.006 18.4373H112.011ZM107.379 15.8857H105.239V8.60875H108.127C110.184 8.60875 111.94 9.76357 111.94 12.0583C111.94 15.0289 109.971 15.882 107.383 15.882" fill="black"/>
<path d="M88.741 5.10559H81.0117C81.0934 5.27645 81.5144 7.1671 81.5144 7.23941V30.6915H85.3982C85.5808 30.6938 85.7567 30.6205 85.888 30.4873C86.0193 30.3542 86.0948 30.172 86.0988 29.9806V20.4127H88.8204C93.3298 20.4127 97.6205 18.1055 97.6205 12.7641C97.6205 6.99375 93.5688 5.10559 88.7376 5.10559H88.741ZM88.9134 17.0243H86.1118V8.56759H88.9315C91.4857 8.56759 92.7544 10.2138 92.7544 12.7641C92.7544 15.2471 91.3927 17.0243 88.9168 17.0243" fill="black"/>
<path d="M108.224 21.2316L113.848 30.6885H119.045L112.721 20.4995C111.267 20.9838 109.75 21.2319 108.224 21.2353" fill="black"/>
<path d="M120.367 7.23941V30.6853H124.291C124.474 30.6886 124.649 30.616 124.78 30.4834C124.912 30.3509 124.987 30.1691 124.99 29.9781V5.10559H119.925C119.94 5.27645 120.368 7.16582 120.368 7.23941" fill="black"/>
<path d="M142.332 19.9239C141.871 21.2957 141.776 22.5603 141.44 24.0319C141.168 22.5789 140.978 21.1922 140.468 19.7817L135.29 5.10559H128.88C128.891 5.27645 129.342 7.16582 129.342 7.23941V30.6703H132.353C132.528 30.6541 132.69 30.5701 132.809 30.4347C132.928 30.2992 132.995 30.1222 132.995 29.9382V13.3266C132.995 12.4748 132.832 11.6105 132.817 10.8074C133.089 11.6405 133.326 12.4748 133.611 13.3266L139.751 30.6915H142.225L148.186 13.3266C148.472 12.4748 148.707 11.6405 148.984 10.8074C148.882 11.6431 148.822 12.4841 148.807 13.3266V30.6703H152.684C152.859 30.655 153.023 30.5714 153.143 30.436C153.262 30.3005 153.33 30.1229 153.331 29.9382V5.10559H147.444L142.332 19.9239Z" fill="black"/>
<path d="M167.251 4.7283C159.794 4.7283 155.684 10.3852 155.684 17.8592C155.684 25.2746 159.754 31.0787 167.218 31.0787C174.617 31.0787 178.981 25.4667 178.981 17.9465C178.981 10.2805 174.85 4.72705 167.254 4.72705L167.251 4.7283ZM167.356 27.7688C162.114 27.7688 160.593 22.3102 160.593 17.7233C160.593 13.2112 162.151 8.02942 167.297 8.02942C172.553 8.02942 174.054 13.528 174.054 18.0637C174.054 22.5995 172.496 27.7688 167.356 27.7688Z" fill="black"/>
<path d="M1.82137 17.6503C1.82137 19.5434 3.06045 21.1622 5.21041 21.1622C5.91546 21.1708 6.61105 20.9914 7.23192 20.6409V18.8787H4.65865V17.4045H8.86225V21.3641C7.85752 22.3254 6.54297 22.852 5.18306 22.8383C2.20665 22.8383 0.0126953 20.4999 0.0126953 17.6315C0.0126953 14.7632 2.16147 12.4011 5.15214 12.4011C6.55768 12.4011 7.63151 12.8052 8.65174 13.6146L7.86101 15.0051C6.90971 14.3404 6.0975 14.066 5.2009 14.066C3.0331 14.066 1.82137 15.8145 1.82137 17.6503Z" fill="black"/>
<path d="M18.5635 18.8633C18.7288 19.9471 19.252 21.2329 20.2722 21.2329C20.6669 21.2284 21.0454 21.0686 21.333 20.7851L21.9525 22.0572C21.4329 22.574 20.7397 22.8546 20.0237 22.8379C17.7501 22.8379 17.0509 20.1204 16.951 18.9643H15.3231V22.6783H13.5596V12.5629H17.7215C19.6361 12.5629 20.7253 14.0806 20.7253 15.8141C20.7241 17.2882 19.9107 18.5041 18.5635 18.8633ZM17.4469 17.4915C18.3566 17.4915 18.9357 16.7968 18.9357 15.8004C18.9357 14.804 18.3411 14.0943 17.4469 14.0943H15.3231V17.4915H17.4469Z" fill="black"/>
<path d="M33.5776 12.5629V18.8932C33.5776 21.4785 31.7868 22.8379 29.6785 22.8379C27.5701 22.8379 25.7793 21.4785 25.7793 18.8932V12.5629H27.5428V18.8932C27.5428 20.4671 28.5214 21.2478 29.6833 21.2478C30.845 21.2478 31.8236 20.4671 31.8236 18.8932V12.5629H33.5776Z" fill="black"/>
<path d="M38.6865 22.6783V12.5629H42.7379C44.6667 12.5629 45.7548 14.0594 45.7548 15.8141C45.7548 17.5688 44.6524 18.9793 42.7379 18.9793H40.45V22.6783H38.6865ZM42.4632 17.5189C43.386 17.5189 43.952 16.8118 43.952 15.8004C43.952 14.7591 43.386 14.0544 42.4632 14.0544H40.45V17.5214L42.4632 17.5189Z" fill="black"/>
<path d="M54.5586 12.4043C57.3148 12.4043 59.603 14.7452 59.603 17.621C59.603 20.4969 57.3148 22.8377 54.5586 22.8377C51.8022 22.8377 49.5166 20.4969 49.5166 17.621C49.5166 14.7452 51.8034 12.4043 54.5586 12.4043ZM54.5586 21.1616C56.3364 21.1616 57.8107 19.665 57.8107 17.621C57.8107 15.577 56.3364 14.0804 54.5586 14.0804C52.7808 14.0804 51.3074 15.5832 51.3074 17.621C51.3074 19.6588 52.782 21.1616 54.5586 21.1616Z" fill="black"/>
<path d="M71.437 0.0516357H70.5527V33.9957H71.437V0.0516357Z" fill="black"/>
</g>
<defs>
<clipPath id="clip0_1085_9850">
<rect width="179" height="34" fill="white"/>
</clipPath>
</defs>
</svg>
