<svg width="86" height="47" viewBox="0 0 86 47" fill="none" xmlns="http://www.w3.org/2000/svg">
<path d="M13.92 0C13.94 0.16 14.15 0.359999 14.26 0.469999C18.04 4.48 22.17 8.18 26 12.13C26.25 12.38 27.21 13.37 27.23 13.61C27.23 13.71 27.24 13.81 27.19 13.9L25.17 15.94C25.05 16.12 25.07 16.32 25.22 16.47L27.15 18.4L27.19 18.96L13.94 32.18L13.62 32.27L0 18.88V18.45L2.23999 16.18C2.23999 15.96 0.3 14.18 0 13.91V13.48L13.4 0H13.92ZM13.58 25.57L25.59 13.68L13.7 1.72L1.79999 13.7L13.57 25.58L13.58 25.57ZM4.09999 17.89C3.89999 17.7 3.39999 17.2 3.15999 17.27C3.03999 17.3 1.81 18.57 1.81 18.67L1.84999 18.8L13.71 30.57L25.6 18.75C25.62 18.64 24.25 17.27 24.1 17.25C24.03 17.25 23.96 17.25 23.89 17.3L14.1 27.09C13.69 27.49 13.45 27.25 13.11 26.96C10.02 24.03 7.18999 20.81 4.09999 17.89Z" fill="#231F20"/>
<path d="M59.9706 14.94C60.0906 16.23 60.2206 17.54 60.1406 18.85C59.1506 36.29 34.2706 35.89 30.7106 19.92C27.8606 7.12001 39.4806 -2.87999 51.7806 1.10001C52.2606 1.26001 54.7506 2.27001 54.9406 2.58001C54.9806 2.64001 54.9906 2.70001 54.9706 2.77001L52.3206 8.50001C50.1706 7.17001 47.7706 6.60001 45.2406 6.97001C34.0606 8.58001 35.4006 26.91 48.1406 25.23C50.7606 24.89 52.8206 23.53 53.4306 20.86H46.6406L49.3906 14.94H59.9606H59.9706Z" fill="#231F20"/>
<path d="M82.4795 0.169922V18.9699H85.9195V25.1499H82.4795V31.9299H75.1795V25.1499H61.6895V18.9299L75.2195 0.169922H82.4795ZM75.1795 18.9699V9.95992L69.1695 18.9699H75.1795Z" fill="#231F20"/>
<path d="M10.3105 44.2099V36.1399H14.9905C15.4805 36.1399 16.7405 36.7599 17.1405 37.0899C19.9105 39.3799 18.1805 44.2099 14.5605 44.2099H10.3105ZM12.2005 42.7499H14.0505C16.2305 42.7499 17.4705 40.2499 16.1105 38.5399C15.7505 38.0899 14.8705 37.5999 14.3005 37.5999H12.2005V42.7499Z" fill="#231F20"/>
<path d="M80.8302 35.9899C84.1702 35.6599 86.8102 38.4699 85.5502 41.7399C84.2002 45.2599 78.5203 45.2299 77.2203 41.6899C76.2203 38.9899 78.0002 36.2699 80.8302 35.9899ZM83.2203 38.2299C81.9303 36.9699 79.5403 37.4699 78.9703 39.2099C78.2103 41.5399 80.3703 43.6099 82.6203 42.5099C84.1603 41.7599 84.4103 39.3899 83.2203 38.2299Z" fill="#231F20"/>
<path d="M6.26991 36.1399V37.5999H2.05992V39.3999H5.83992V40.7799H2.05992V42.7499H6.44992V44.2099H0.169922V36.1399H6.26991Z" fill="#231F20"/>
<path d="M57.6794 42.0299C58.4394 42.8299 59.7694 42.9899 60.7594 42.5499C61.1194 42.3899 61.3794 42.0799 61.7194 41.8899L62.7894 42.9399C62.0994 43.9399 60.7894 44.2799 59.6294 44.3799L59.5394 44.7999C60.7094 44.8799 60.9994 46.1399 59.9294 46.6899C59.1594 47.0799 58.5994 46.9799 57.8194 46.6899L58.0794 45.9199C58.4894 46.0799 59.0294 46.2399 59.4094 45.9199C59.6594 45.2899 58.9494 45.2999 58.5094 45.3199L58.7694 44.2899C56.1394 43.8899 54.6594 41.6299 55.2694 39.0299C56.0494 35.7299 60.6594 34.9799 62.8494 37.3299L61.7194 38.4399C60.8594 37.6499 59.8694 37.2999 58.7194 37.6699C56.9194 38.2399 56.4194 40.6999 57.6794 42.0199V42.0299Z" fill="#231F20"/>
<path d="M52.5005 44.21H50.5205L49.9105 42.5H46.1105L45.3705 44.21H43.4805L47.1305 36.13L48.9405 36.22L52.5005 44.2V44.21ZM49.2305 41.03L48.0305 37.94C47.9705 37.9 47.8705 38.08 47.8405 38.14C47.3805 39 47.1205 40.15 46.6505 41.03H49.2305Z" fill="#231F20"/>
<path d="M65.2998 44.21L68.9498 36.13L70.7898 36.15L74.3198 44.21H72.4698L71.7498 42.54L67.9298 42.5L67.1898 44.21H65.2998ZM71.0498 41.03L69.8498 37.94L68.4798 41.03H71.0598H71.0498Z" fill="#231F20"/>
<path d="M24.06 36.1399V41.0799C24.06 41.1499 24.23 41.6999 24.27 41.8099C24.87 43.1999 27.15 43.0999 27.61 41.6199C27.64 41.5299 27.75 41.0299 27.75 40.9899V36.1399H29.55V41.4199C29.55 41.6599 29.22 42.5099 29.08 42.7499C27.89 44.8999 23.83 44.9099 22.66 42.7199C22.57 42.5499 22.25 41.7199 22.25 41.5899V36.1399H24.05H24.06Z" fill="#231F20"/>
<path d="M40.9699 37.5C40.9699 37.5 40.7899 37.57 40.7199 37.64C40.4399 37.91 40.1899 38.21 39.8899 38.45C38.9199 37.6 37.8099 37.24 36.5699 37.79C34.5299 38.7 34.6899 41.97 36.8899 42.67C38.0699 43.05 38.9699 42.63 39.8899 41.9L40.9699 42.89C39.0399 45.42 34.4199 44.57 33.4799 41.53C32.2399 37.54 36.5399 34.61 39.9499 36.53C40.1699 36.65 41.1199 37.25 40.9699 37.51V37.5Z" fill="#231F20"/>
<path d="M70.9504 34.3199C71.0504 34.2299 71.0803 33.9599 71.1603 33.8399H72.0103C72.0703 34.7899 71.3404 35.6999 70.3104 35.3999C69.6404 35.1999 68.8304 33.9599 68.4804 35.3599H67.6303C67.5103 34.3299 68.3703 33.3799 69.4403 33.7799C69.8303 33.9299 70.5203 34.7499 70.9603 34.3199H70.9504Z" fill="#231F20"/>
<path d="M11.7404 20.4599C9.54039 18.2999 7.28038 16.1699 5.19038 13.9099L5.15039 13.5199L13.3504 5.22994C13.6804 4.98994 13.9704 5.28994 14.2204 5.48994C16.8704 7.67994 19.2304 10.8499 21.8704 13.1299C22.1504 13.4899 22.3104 13.7699 21.9104 14.1199L13.9204 22.0999C13.8004 22.1599 13.6704 22.1599 13.5404 22.1399C13.0604 22.0599 12.1204 20.8199 11.7404 20.4499V20.4599ZM13.7404 6.86994L6.88039 13.6099L13.6304 20.4199L20.4404 13.6799L13.7404 6.86994Z" fill="#231F20"/>
<path d="M10.4302 13.25C10.6602 12.88 12.4102 11.21 12.8402 10.81C13.3202 10.36 13.5302 10.08 14.1402 10.56C14.6402 10.95 16.5002 12.78 16.8402 13.27C17.1002 13.64 17.0502 13.75 16.8002 14.09C16.0702 15.05 14.7502 15.95 13.9702 16.93C13.7702 17.06 13.4702 17.06 13.2702 16.93L10.4002 14.05C10.1902 13.79 10.2702 13.52 10.4302 13.26V13.25ZM15.1602 13.53C14.9802 13.31 13.7802 11.99 13.6302 12.02L11.9402 13.69L13.6102 15.28L15.2502 13.73L15.2802 13.56C15.2802 13.56 15.1702 13.56 15.1502 13.52L15.1602 13.53Z" fill="#231F20"/>
</svg>
