<svg width="149" height="41" viewBox="0 0 149 41" fill="none" xmlns="http://www.w3.org/2000/svg">
<path d="M22.7882 10.0025C23.0788 10.3345 26.1777 6.90353 26.6412 6.97962C28.5642 9.07558 29.0485 11.974 28.2945 14.6717C28.0731 15.4603 27.2776 16.5878 27.1877 17.0582C27.0977 17.5286 28.2737 17.1966 28.5573 17.2865C28.5573 24.3699 23.4039 30.9137 16.2859 31.9651C7.52852 33.2656 -0.156672 25.954 0.00242727 17.2865H1.37207C1.15071 16.3181 0.590405 15.488 0.479727 14.4642C-0.2881 7.6091 7.62537 3.36876 12.765 7.95497C14.4044 9.42145 14.5704 10.5974 15.1515 12.555C15.2137 12.7625 15.103 12.9562 15.4212 12.8871C17.4757 10.5075 17.5725 7.13872 15.6703 4.64155L19.6616 0C22.3109 2.64243 23.3347 6.32939 22.7952 10.0094L22.7882 10.0025ZM20.6577 20.4754C20.5263 28.4304 9.81817 29.8899 7.97124 21.852C7.88823 21.4992 7.97815 20.6968 7.76371 20.5446L6.38716 20.4754C6.24189 26.4728 12.5713 30.8791 18.0291 27.7871C19.6339 26.874 20.9413 25.3314 21.5777 23.5882C21.7783 23.0417 22.2625 21.3539 22.1864 20.8559C22.1588 20.676 22.1242 20.5446 21.9305 20.4962L20.6646 20.4754H20.6577Z" fill="#231F20"/>
<path d="M107.381 29.1221V36.7866C107.381 37.2777 105.554 37.2085 105.181 37.167C103.963 37.0287 103.293 36.3023 103.147 35.0987C102.476 29.4265 103.618 22.5437 103.126 16.747C103.133 14.7409 105.209 14.4158 106.82 14.7409C107.457 14.8723 107.318 15.4603 107.388 15.993C107.415 16.2143 107.242 16.4357 107.609 16.3803C109.816 14.3605 112.7 13.5511 115.536 14.8308C119.119 16.4495 120.371 21.596 119.583 25.1585C118.393 30.5263 113.26 33.2034 108.522 29.883C108.148 29.6202 107.941 29.0322 107.381 29.129V29.1221ZM110.383 18.082C109.518 18.2065 107.72 19.1404 107.45 20.005C107.284 20.5308 107.284 24.5843 107.388 25.2415C107.588 26.5281 110.058 27.628 111.247 27.6072C116.947 27.5104 116.851 17.1343 110.383 18.082Z" fill="#231F20"/>
<path d="M87.1057 37.1671C86.331 37.0356 85.5701 36.2332 85.5078 35.4239V16.4496C85.8398 14.3882 87.9012 14.6649 89.513 14.7271L89.7412 14.9554C89.8104 15.3497 89.7412 15.7578 89.762 16.1521C89.7758 16.3804 89.6444 16.5879 89.9903 16.5256C93.0408 12.8664 98.8929 13.7518 101.03 17.9368C103.306 22.3847 102.047 30.1944 96.3335 31.2043C94.0646 31.6055 92.1969 31.0037 90.4468 29.5718C90.1909 29.3643 90.3154 28.9769 89.7689 29.1153V36.9319L89.5406 37.1601C88.7936 37.0771 87.8251 37.2777 87.1126 37.1601L87.1057 37.1671ZM92.605 18.0821C91.7819 18.2135 90.0525 19.1542 89.8312 20.012C89.6513 20.7037 89.6444 24.6259 89.7689 25.3937C89.9003 26.2376 91.4567 27.1161 92.2177 27.3444C99.0243 29.4127 99.8544 16.9199 92.605 18.0751V18.0821Z" fill="#231F20"/>
<path d="M53.1621 16.5257C53.2521 16.6363 54.4211 15.6264 54.6355 15.495C56.7246 14.2153 59.3878 13.8002 61.712 14.741C62.8672 15.2044 64.2507 16.8508 64.2507 18.1236V30.9484C63.2961 31.0383 61.6774 31.149 60.9096 30.5748C60.1418 30.0007 60.0588 29.1983 59.9965 28.299C59.8167 25.788 60.2801 22.8481 59.9965 20.3994C59.6576 17.3696 56.0467 17.4457 54.0822 18.8914C53.847 19.0643 53.1621 19.8667 53.1621 20.095V30.7201C53.1621 30.7823 52.8024 31.1144 52.6433 31.0867C51.1008 30.81 49.406 31.3288 48.9218 29.3435V10.2308C48.8042 9.51836 49.9041 8.48767 50.5059 8.48767H52.9339L53.1621 8.71594V16.5326V16.5257Z" fill="#231F20"/>
<path d="M73.4785 14.2913C85.7153 12.9078 86.58 30.139 76.1486 31.225C63.7458 32.5185 63.0471 15.4672 73.4785 14.2913ZM73.9281 18.082C69.8815 18.67 69.2935 25.954 73.4232 27.3098C80.1953 29.5372 81.2121 17.0236 73.9281 18.082Z" fill="#231F20"/>
<path d="M137.416 23.9271C137.181 24.1 136.897 24.1 136.621 24.1208C133.75 24.3629 130.526 23.8787 127.649 24.1069C124.487 24.3629 126.355 26.8255 128.188 27.5241C130.305 28.3265 132.878 27.7247 134.642 26.3966C135.237 27.4688 136.856 28.6447 135.548 29.7238C133.439 31.467 129.205 31.5984 126.701 30.8306C120.697 28.9975 119.279 20.8904 123.623 16.5947C127.407 12.8593 134.296 13.4888 136.565 18.5454C136.959 19.4308 138.08 23.263 137.416 23.9271ZM125.615 21.0702C126.265 21.3607 126.763 21.084 127.351 21.0702C128.818 21.0425 130.298 21.0564 131.765 21.0702C132.387 21.0771 133.12 21.5337 133.611 20.8558C132.878 16.5739 125.975 16.6154 125.615 21.0702Z" fill="#231F20"/>
<path d="M44.8065 19.4102C43.2362 18.0406 41.078 17.2727 38.9682 17.5978C37.6608 17.7984 36.4987 19.3687 37.9721 20.095C41.0227 21.5961 47.0892 20.7591 47.0961 26.1685C47.103 32.1866 37.896 32.0759 34.0223 29.8139C32.6872 29.0392 32.459 28.804 33.5035 27.4689C35.0253 25.5251 36.3603 27.3098 38.1796 27.7871C39.4109 28.1122 41.7974 28.3543 42.6621 27.213C43.7965 25.7119 41.9081 25.0617 40.7736 24.7435C37.9306 23.9411 33.628 23.8581 33.2683 19.9497C32.7426 14.2498 40.1649 13.3022 44.1977 15.0938C46.7987 16.249 45.8648 17.4318 44.8065 19.4171V19.4102Z" fill="#231F20"/>
<path d="M143.677 30.72C143.642 30.8445 143.31 31.0935 143.144 31.1004C141.608 30.7684 139.99 31.4324 139.492 29.4402L139.457 16.0344C139.63 15.4602 140.031 14.9345 140.633 14.7823C141.096 14.6647 142.833 14.6232 143.296 14.7132C143.469 14.7478 143.601 14.7685 143.656 14.9622C143.746 15.398 143.614 15.8891 143.677 16.3111C143.704 16.5255 143.594 16.567 143.905 16.5394C144.88 15.8615 145.738 15.0798 146.866 14.644C147.163 14.5264 148.837 13.9246 148.837 14.4918V17.8329C148.837 18.2756 146.845 18.3379 146.402 18.4347C145.537 18.6215 144.569 18.9674 144.064 19.7421C143.988 19.8597 143.677 20.5099 143.677 20.5722V30.7407V30.72Z" fill="#231F20"/>
<path d="M123.325 34.8911H124.238C124.321 34.9672 124.052 35.825 124.467 35.652C125.345 34.5591 127.31 34.1925 127.815 35.8042C128.264 35.8042 128.804 34.4138 130.36 34.7735C131.017 34.9257 131.529 35.8872 131.529 36.489V40.0584H130.464V36.489C130.464 36.4475 130.125 35.8388 130.063 35.7973C129.274 35.2923 127.884 36.1778 127.884 36.9456V40.0584H126.971V36.9456C126.971 36.6551 126.666 35.8734 126.362 35.735C125.732 35.2716 124.39 36.1847 124.39 36.7934V40.0584H123.325V34.898V34.8911Z" fill="#231F20"/>
<path d="M135.632 32.6154V35.4999C136.192 35.41 136.496 34.8427 137.084 34.7528C141.608 34.0196 140.225 42.8254 135.562 39.2975L135.486 40.0584H134.573V32.6223H135.639L135.632 32.6154ZM138.309 38.7856C139.623 37.5336 138.316 34.9188 136.538 35.7282C135.493 36.1986 135.203 38.2184 136.116 38.8894C136.814 39.4013 137.665 39.3944 138.302 38.7856H138.309Z" fill="#231F20"/>
<path d="M119.189 34.7736C123.208 34.0888 123.568 40.0101 119.894 40.1899C116.553 40.3559 116.055 35.3062 119.189 34.7736ZM119.334 35.6798C117.543 36.0879 117.826 39.429 119.888 39.2837C122.129 39.1246 121.755 35.1333 119.334 35.6798Z" fill="#231F20"/>
<path d="M116.491 36.1017C115.585 36.5168 115.516 35.8873 114.983 35.7144C112.002 34.7459 111.891 39.8233 114.713 39.2561C115.066 39.1869 115.543 38.924 115.599 38.5436L116.643 38.8341C115.716 40.7295 112.749 40.5565 111.877 38.6681C110.881 36.5168 112.673 34.3309 114.983 34.8082C115.53 34.9189 116.574 35.41 116.491 36.1017Z" fill="#231F20"/>
<path d="M140.792 34.7391H141.705L141.781 35.6522C142.466 35.2994 142.743 34.5454 143.677 34.7391V35.6522C143.178 35.4723 141.857 36.1433 141.857 36.6414V40.0585H140.792V34.746V34.7391Z" fill="#231F20"/>
<path d="M110.874 38.8341H110.113V40.0516H110.874V38.8341Z" fill="#231F20"/>
<path d="M133.349 38.8341H132.588V40.0516H133.349V38.8341Z" fill="#231F20"/>
</svg>
