<svg width="177" height="22" viewBox="0 0 177 22" fill="none" xmlns="http://www.w3.org/2000/svg">
<g clip-path="url(#clip0_1085_9798)">
<path d="M151.074 4.87935H154.792C156.804 4.87935 157.61 6.2704 157.61 7.55444C157.61 8.83849 156.838 10.1439 154.941 10.2167C158.128 10.2167 160.497 10.2167 161.847 10.2167C162.152 9.41631 162.314 8.52604 162.314 7.55444C162.314 3.20153 159.134 0.423706 153.862 0.423706H146.044V10.2167C147.839 10.2167 149.52 10.2167 151.078 10.2167V4.87935H151.074Z" fill="#231F20"/>
<path d="M160.828 11.9759C160.879 11.9159 160.921 11.8475 160.972 11.7875H152.699L157.725 21.5805H163.302L158.476 13.7564C159.427 13.3113 160.216 12.712 160.828 11.9801V11.9759Z" fill="#231F20"/>
<path d="M151.078 11.7833H146.044V21.5763H151.078V11.7833Z" fill="#231F20"/>
<path d="M114.515 5.16612H120.899V0.423706H103.187V5.16612H109.481V10.221C111.179 10.221 112.856 10.221 114.515 10.221V5.16612Z" fill="#231F20"/>
<path d="M114.519 11.7833H109.485V21.5763H114.519V11.7833Z" fill="#231F20"/>
<path d="M142.041 0.423706H137.007V10.2167C138.751 10.2167 140.432 10.2167 142.041 10.2167V0.423706Z" fill="#231F20"/>
<path d="M128.195 0.423706H123.161V10.221C124.876 10.221 126.553 10.221 128.195 10.221V0.423706Z" fill="#231F20"/>
<path d="M137.007 12.3568C137.007 15.3829 135.356 17.2533 132.597 17.2533C129.838 17.2533 128.191 15.3786 128.191 12.3568V11.7833H123.157V12.177C123.157 18.5245 127.024 22 132.597 22C138.17 22 142.037 18.5245 142.037 12.177V11.7833H137.003V12.3568H137.007Z" fill="#231F20"/>
<path d="M174.181 9.45911H164.763V10.0754C165.293 10.3109 168.931 11.7875 168.931 11.7875C168.931 11.7875 176.342 11.7533 177 11.7533C177 10.1825 175.739 9.46339 174.181 9.46339V9.45911Z" fill="#231F20"/>
<path d="M165.522 6.25324C165.522 6.25324 165.31 5.76103 165.047 5.77387L164.763 5.80383V8.96258L167.619 8.93262C167.619 8.93262 167.012 8.65013 165.522 6.24897V6.25324Z" fill="#231F20"/>
<path d="M27.59 10.2338C27.5645 10.4821 27.5518 10.7389 27.5518 11C27.5518 11.2611 27.5645 11.5307 27.59 11.7833H38.8084C38.8339 11.5307 38.8466 11.2654 38.8466 11C38.8466 10.7346 38.8339 10.4821 38.8084 10.2296C34.8525 10.2296 31.0918 10.2296 27.5857 10.2296L27.59 10.2338Z" fill="#231F20"/>
<path d="M63.3851 10.2296C63.1983 10.7945 62.9479 11.3167 62.6338 11.7875H66.2629L66.993 10.2296C65.7875 10.2296 64.5863 10.2296 63.3893 10.2296H63.3851Z" fill="#231F20"/>
<path d="M163.146 10.2167H161.847C160.497 10.2167 158.133 10.2167 154.941 10.2167C153.761 10.2167 152.47 10.2167 151.074 10.2167C149.52 10.2167 147.84 10.2167 146.04 10.2167C144.762 10.2167 143.425 10.2167 142.037 10.2167C140.429 10.2167 138.748 10.2167 137.003 10.2167C134.219 10.2167 131.269 10.2167 128.191 10.2167C126.549 10.2167 124.872 10.2167 123.157 10.2167C120.356 10.2167 117.469 10.2167 114.515 10.2167C112.86 10.2167 111.179 10.2167 109.481 10.2167C106.034 10.2167 102.511 10.2167 98.9375 10.2167C99.6846 10.6447 100.355 11.1498 100.89 11.7789H166.847L163.141 10.2081L163.146 10.2167Z" fill="#231F20"/>
<path d="M72.0648 10.2253L71.4238 11.7833H75.2609L74.62 10.2253C73.7668 10.2253 72.9137 10.2253 72.0648 10.2253Z" fill="#231F20"/>
<path d="M22.3352 10.2338C14.8732 10.2338 8.94348 10.2338 5.28039 10.2338C5.25492 10.4821 5.24219 10.7389 5.24219 11C5.24219 11.2611 5.25492 11.5307 5.28039 11.7832H22.3352C22.3182 11.5264 22.3055 11.2653 22.3055 11C22.3055 10.7346 22.3182 10.4864 22.331 10.2338H22.3352Z" fill="#231F20"/>
<path d="M44.0716 10.2296C44.0886 10.4821 44.0971 10.7389 44.0971 11C44.0971 11.2611 44.0844 11.5264 44.0674 11.7833H47.4928V10.2296C46.3382 10.2296 45.1964 10.2296 44.0674 10.2296H44.0716Z" fill="#231F20"/>
<path d="M79.6963 10.2252L80.4264 11.7832H89.964C89.0896 11.3809 88.2407 10.8844 87.5446 10.2209C84.9341 10.2209 82.311 10.2209 79.6963 10.2209V10.2252Z" fill="#231F20"/>
<path d="M98.9413 10.221C97.9566 9.65599 96.8403 9.22797 95.7452 8.82136C93.1984 7.884 91.0973 7.2805 91.0973 6.03925C91.0973 5.00774 92.0863 4.37427 93.5847 4.37427C95.083 4.37427 96.5813 5.25171 97.0907 7.12641L101.947 5.79529C100.958 2.4696 97.7826 -0.00860596 93.7672 -0.00860596C89.2085 -0.00860596 85.9147 2.98322 85.9147 6.27466C85.9147 8.05093 86.5768 9.29217 87.5446 10.2124C88.2407 10.8758 89.0896 11.368 89.964 11.7747C90.4224 11.9887 90.8851 12.177 91.3393 12.3482C94.336 13.4996 96.9124 14.133 96.9124 15.6482C96.9124 16.6112 95.9234 17.3988 94.3062 17.3988C92.1457 17.3988 90.4691 15.9179 89.9895 14.2529L85.0742 15.584C86.4537 19.5431 89.5693 21.9914 93.9454 21.9914C98.831 21.9914 102.125 19.2435 102.125 15.3743C102.125 13.8291 101.649 12.6778 100.89 11.7747C100.359 11.1455 99.6841 10.6404 98.9371 10.2124L98.9413 10.221Z" fill="#231F20"/>
<path d="M44.0717 10.2295C43.6939 4.25441 38.9654 -6.10352e-05 33.1885 -6.10352e-05C27.4116 -6.10352e-05 22.7086 4.25441 22.335 10.2338C22.3181 10.4863 22.3096 10.7431 22.3096 10.9999C22.3096 11.2567 22.3223 11.5264 22.3393 11.7832C22.7213 17.754 27.4158 21.9999 33.1885 21.9999C38.9612 21.9999 43.6896 17.754 44.0717 11.7832C44.0886 11.5264 44.1014 11.2653 44.1014 10.9999C44.1014 10.7346 44.0886 10.482 44.0759 10.2295H44.0717ZM38.8126 11.7832C38.5027 14.8906 36.3465 16.9836 33.1885 16.9836C30.0305 16.9836 27.904 14.8906 27.5941 11.7832C27.5686 11.5307 27.5559 11.2653 27.5559 10.9999C27.5559 10.7346 27.5686 10.482 27.5941 10.2338C27.8955 7.09216 30.056 5.01628 33.1927 5.01628C36.3295 5.01628 38.5155 7.09216 38.8211 10.2338C38.8465 10.482 38.8593 10.7388 38.8593 11.0042C38.8593 11.2696 38.8465 11.535 38.8211 11.7875L38.8126 11.7832Z" fill="#231F20"/>
<path d="M63.7712 7.67429C63.7712 3.1416 60.6557 0.423706 55.4985 0.423706H47.4932V21.5762H52.5315V14.9292H55.4985C58.8178 14.9292 61.2924 13.7992 62.6337 11.7875C62.9478 11.3167 63.1982 10.7945 63.385 10.2295C63.6396 9.45911 63.7712 8.60736 63.7712 7.67857V7.67429ZM55.4093 10.1825H52.5358V5.16612H55.4093C57.3576 5.16612 58.5291 6.09919 58.5291 7.67429C58.5291 9.24939 57.3619 10.1825 55.4093 10.1825Z" fill="#231F20"/>
<path d="M75.1122 0.423706H71.5765L66.9923 10.2253L66.2622 11.7832L61.6865 21.5762H67.2894L68.5203 18.8583L71.4236 11.7832L72.0646 10.2253L73.0451 7.8455L73.3422 6.99802L73.6436 7.8455L74.6241 10.2253L75.2608 11.7832L78.1683 18.8583L79.3993 21.5762H85.0021L80.4264 11.7832L79.6964 10.2253L75.1122 0.423706Z" fill="#231F20"/>
<path d="M5.28029 10.2339C5.57741 7.1607 7.66151 5.01206 10.8789 5.01206C12.5258 5.01206 14.3255 5.76965 15.2848 6.97665L20.4123 5.61984C18.5532 2.23424 15.0174 0 10.8789 0C4.85158 0 0 4.62257 0 11C0 17.3774 4.85158 22 10.8789 22C15.2848 22 19.0328 19.5261 20.7689 15.7724L15.6711 14.4412C14.8009 15.8922 12.8824 16.9195 10.8747 16.9195C7.84827 16.9195 5.59439 14.972 5.28029 11.779C5.25482 11.5265 5.24209 11.2654 5.24209 10.9957C5.24209 10.7261 5.25482 10.4778 5.28029 10.2296V10.2339Z" fill="#231F20"/>
</g>
<defs>
<clipPath id="clip0_1085_9798">
<rect width="177" height="22" fill="white"/>
</clipPath>
</defs>
</svg>
