<svg width="297" height="150" viewBox="0 0 297 150" fill="none" xmlns="http://www.w3.org/2000/svg">
<rect y="78" width="78" height="32" rx="4" fill="#1C180D" fill-opacity="0.08"/>
<path d="M14.9395 99L12.0625 91.418H12.0156C12.0312 91.5781 12.0449 91.7734 12.0566 92.0039C12.0684 92.2344 12.0781 92.4863 12.0859 92.7598C12.0938 93.0293 12.0977 93.3047 12.0977 93.5859V99H11.1719V90.4336H12.6484L15.3613 97.5586H15.4023L18.1562 90.4336H19.6211V99H18.6367V93.5156C18.6367 93.2617 18.6406 93.0078 18.6484 92.7539C18.6562 92.4961 18.666 92.2539 18.6777 92.0273C18.6895 91.7969 18.7012 91.5977 18.7129 91.4297H18.666L15.7539 99H14.9395ZM24.3607 92.4727C25.1263 92.4727 25.6947 92.6445 26.0658 92.9883C26.4369 93.332 26.6224 93.8809 26.6224 94.6348V99H25.9134L25.7259 98.0508H25.6791C25.4994 98.2852 25.3119 98.4824 25.1166 98.6426C24.9213 98.7988 24.6947 98.918 24.4369 99C24.183 99.0781 23.8705 99.1172 23.4994 99.1172C23.1088 99.1172 22.7611 99.0488 22.4564 98.9121C22.1556 98.7754 21.9173 98.5684 21.7416 98.291C21.5697 98.0137 21.4838 97.6621 21.4838 97.2363C21.4838 96.5957 21.7377 96.1035 22.2455 95.7598C22.7533 95.416 23.5267 95.2285 24.5658 95.1973L25.6732 95.1504V94.7578C25.6732 94.2031 25.5541 93.8145 25.3158 93.5918C25.0775 93.3691 24.7416 93.2578 24.308 93.2578C23.972 93.2578 23.6517 93.3066 23.347 93.4043C23.0423 93.502 22.7533 93.6172 22.4798 93.75L22.181 93.0117C22.4701 92.8633 22.8021 92.7363 23.1771 92.6309C23.5521 92.5254 23.9466 92.4727 24.3607 92.4727ZM25.6615 95.8359L24.683 95.877C23.8822 95.9082 23.3177 96.0391 22.9896 96.2695C22.6615 96.5 22.4974 96.8262 22.4974 97.248C22.4974 97.6152 22.6088 97.8867 22.8314 98.0625C23.0541 98.2383 23.349 98.3262 23.7162 98.3262C24.2865 98.3262 24.7533 98.168 25.1166 97.8516C25.4798 97.5352 25.6615 97.0605 25.6615 96.4277V95.8359ZM31.6843 92.4609C31.8132 92.4609 31.948 92.4688 32.0886 92.4844C32.2292 92.4961 32.3542 92.5137 32.4636 92.5371L32.3405 93.4395C32.2351 93.4121 32.1179 93.3906 31.989 93.375C31.8601 93.3594 31.739 93.3516 31.6257 93.3516C31.3679 93.3516 31.1238 93.4043 30.8933 93.5098C30.6667 93.6113 30.4675 93.7598 30.2956 93.9551C30.1238 94.1465 29.989 94.3789 29.8913 94.6523C29.7937 94.9219 29.7448 95.2227 29.7448 95.5547V99H28.7663V92.5781H29.5749L29.6804 93.7617H29.7214C29.8542 93.5234 30.0144 93.3066 30.2019 93.1113C30.3894 92.9121 30.6062 92.7539 30.8523 92.6367C31.1023 92.5195 31.3796 92.4609 31.6843 92.4609ZM34.7833 89.8828V94.6172C34.7833 94.7734 34.7774 94.9648 34.7657 95.1914C34.754 95.4141 34.7442 95.6113 34.7364 95.7832H34.7774C34.8595 95.6816 34.9786 95.5312 35.1348 95.332C35.295 95.1328 35.4298 94.9727 35.5391 94.8516L37.672 92.5781H38.8145L36.2305 95.3203L39.002 99H37.8302L35.5626 95.959L34.7833 96.6738V99H33.8165V89.8828H34.7833ZM42.7338 92.4609C43.2807 92.4609 43.7495 92.582 44.1401 92.8242C44.5307 93.0664 44.8295 93.4062 45.0366 93.8438C45.2436 94.2773 45.3471 94.7852 45.3471 95.3672V95.9707H40.9116C40.9233 96.7246 41.1108 97.2988 41.4741 97.6934C41.8373 98.0879 42.3491 98.2852 43.0092 98.2852C43.4155 98.2852 43.7748 98.248 44.0873 98.1738C44.3998 98.0996 44.7241 97.9902 45.06 97.8457V98.7012C44.7358 98.8457 44.4135 98.9512 44.0932 99.0176C43.7768 99.084 43.4018 99.1172 42.9682 99.1172C42.351 99.1172 41.812 98.9922 41.351 98.7422C40.894 98.4883 40.5385 98.1172 40.2846 97.6289C40.0307 97.1406 39.9037 96.543 39.9037 95.8359C39.9037 95.1445 40.019 94.5469 40.2495 94.043C40.4838 93.5352 40.812 93.1445 41.2338 92.8711C41.6596 92.5977 42.1596 92.4609 42.7338 92.4609ZM42.7221 93.2578C42.2026 93.2578 41.7885 93.4277 41.4799 93.7676C41.1713 94.1074 40.9877 94.582 40.9291 95.1914H44.3276C44.3237 94.8086 44.2631 94.4727 44.1459 94.1836C44.0327 93.8906 43.8588 93.6641 43.6245 93.5039C43.3901 93.3398 43.0893 93.2578 42.7221 93.2578ZM49.2137 98.3203C49.3738 98.3203 49.5379 98.3066 49.7059 98.2793C49.8738 98.252 50.0105 98.2188 50.116 98.1797V98.9355C50.0027 98.9863 49.8445 99.0293 49.6414 99.0645C49.4422 99.0996 49.2469 99.1172 49.0555 99.1172C48.7156 99.1172 48.407 99.0586 48.1297 98.9414C47.8523 98.8203 47.6297 98.6172 47.4617 98.332C47.2977 98.0469 47.2156 97.6523 47.2156 97.1484V93.3398H46.3016V92.8652L47.2215 92.4844L47.6082 91.0898H48.1941V92.5781H50.075V93.3398H48.1941V97.1191C48.1941 97.5215 48.2859 97.8223 48.4695 98.0215C48.657 98.2207 48.9051 98.3203 49.2137 98.3203ZM52.5295 92.5781V99H51.5568V92.5781H52.5295ZM52.0548 90.1758C52.215 90.1758 52.3517 90.2285 52.465 90.334C52.5822 90.4355 52.6408 90.5957 52.6408 90.8145C52.6408 91.0293 52.5822 91.1895 52.465 91.2949C52.3517 91.4004 52.215 91.4531 52.0548 91.4531C51.8869 91.4531 51.7463 91.4004 51.633 91.2949C51.5236 91.1895 51.4689 91.0293 51.4689 90.8145C51.4689 90.5957 51.5236 90.4355 51.633 90.334C51.7463 90.2285 51.8869 90.1758 52.0548 90.1758ZM57.773 92.4609C58.5347 92.4609 59.1109 92.6484 59.5015 93.0234C59.8921 93.3945 60.0874 93.9922 60.0874 94.8164V99H59.1265V94.8809C59.1265 94.3457 59.0034 93.9453 58.7573 93.6797C58.5152 93.4141 58.1421 93.2812 57.6382 93.2812C56.9273 93.2812 56.4273 93.4824 56.1382 93.8848C55.8491 94.2871 55.7046 94.8711 55.7046 95.6367V99H54.732V92.5781H55.5171L55.6636 93.5039H55.7163C55.853 93.2773 56.0269 93.0879 56.2378 92.9355C56.4487 92.7793 56.6851 92.6621 56.9468 92.584C57.2085 92.502 57.4839 92.4609 57.773 92.4609ZM64.0243 101.883C63.1805 101.883 62.5302 101.725 62.0731 101.408C61.6161 101.096 61.3876 100.656 61.3876 100.09C61.3876 99.6875 61.5145 99.3438 61.7684 99.0586C62.0262 98.7734 62.3817 98.584 62.8348 98.4902C62.6669 98.4121 62.5223 98.2949 62.4012 98.1387C62.2841 97.9824 62.2255 97.8027 62.2255 97.5996C62.2255 97.3652 62.2899 97.1602 62.4188 96.9844C62.5516 96.8047 62.7528 96.6328 63.0223 96.4688C62.6864 96.332 62.413 96.1016 62.202 95.7773C61.995 95.4492 61.8915 95.0684 61.8915 94.6348C61.8915 94.1738 61.9872 93.7812 62.1786 93.457C62.37 93.1289 62.6473 92.8789 63.0106 92.707C63.3739 92.5352 63.8134 92.4492 64.329 92.4492C64.4423 92.4492 64.5555 92.4551 64.6688 92.4668C64.786 92.4746 64.8973 92.4883 65.0028 92.5078C65.1083 92.5234 65.2001 92.543 65.2782 92.5664H67.4813V93.1934L66.2977 93.3398C66.4149 93.4922 66.5126 93.6758 66.5907 93.8906C66.6688 94.1055 66.7079 94.3438 66.7079 94.6055C66.7079 95.2461 66.4911 95.7559 66.0575 96.1348C65.6239 96.5098 65.0282 96.6973 64.2704 96.6973C64.0907 96.6973 63.9071 96.6816 63.7196 96.6504C63.5282 96.7559 63.3817 96.873 63.2802 97.002C63.1825 97.1309 63.1337 97.2793 63.1337 97.4473C63.1337 97.5723 63.1708 97.6719 63.245 97.7461C63.3231 97.8203 63.4345 97.875 63.579 97.9102C63.7235 97.9414 63.8973 97.957 64.1005 97.957H65.2313C65.9305 97.957 66.4657 98.1035 66.8368 98.3965C67.2118 98.6895 67.3993 99.1172 67.3993 99.6797C67.3993 100.391 67.1102 100.936 66.5321 101.314C65.954 101.693 65.118 101.883 64.0243 101.883ZM64.0536 101.121C64.5848 101.121 65.0243 101.066 65.372 100.957C65.7235 100.852 65.9852 100.697 66.1571 100.494C66.3329 100.295 66.4208 100.057 66.4208 99.7793C66.4208 99.5215 66.3622 99.3262 66.245 99.1934C66.1278 99.0645 65.9559 98.9785 65.7294 98.9355C65.5028 98.8887 65.2255 98.8652 64.8973 98.8652H63.7841C63.495 98.8652 63.243 98.9102 63.0282 99C62.8134 99.0898 62.6473 99.2227 62.5302 99.3984C62.4169 99.5742 62.3602 99.793 62.3602 100.055C62.3602 100.402 62.5067 100.666 62.7997 100.846C63.0927 101.029 63.5106 101.121 64.0536 101.121ZM64.3055 95.9883C64.7704 95.9883 65.12 95.8711 65.3544 95.6367C65.5887 95.4023 65.7059 95.0605 65.7059 94.6113C65.7059 94.1309 65.5868 93.7715 65.3485 93.5332C65.1102 93.291 64.7587 93.1699 64.2938 93.1699C63.8485 93.1699 63.5048 93.2949 63.2626 93.5449C63.0243 93.791 62.9052 94.1523 62.9052 94.6289C62.9052 95.0664 63.0262 95.4023 63.2684 95.6367C63.5106 95.8711 63.8563 95.9883 64.3055 95.9883Z" fill="#1C180D"/>
<rect y="118" width="82" height="32" rx="4" fill="#1C180D" fill-opacity="0.08"/>
<path d="M13.8027 139H12.8008V131.312H10.1055V130.434H16.4863V131.312H13.8027V139ZM20.2474 132.461C20.7943 132.461 21.263 132.582 21.6537 132.824C22.0443 133.066 22.3431 133.406 22.5502 133.844C22.7572 134.277 22.8607 134.785 22.8607 135.367V135.971H18.4252C18.4369 136.725 18.6244 137.299 18.9877 137.693C19.3509 138.088 19.8627 138.285 20.5228 138.285C20.9291 138.285 21.2884 138.248 21.6009 138.174C21.9134 138.1 22.2377 137.99 22.5736 137.846V138.701C22.2494 138.846 21.9271 138.951 21.6068 139.018C21.2904 139.084 20.9154 139.117 20.4818 139.117C19.8646 139.117 19.3255 138.992 18.8646 138.742C18.4076 138.488 18.0521 138.117 17.7982 137.629C17.5443 137.141 17.4173 136.543 17.4173 135.836C17.4173 135.145 17.5326 134.547 17.763 134.043C17.9974 133.535 18.3255 133.145 18.7474 132.871C19.1732 132.598 19.6732 132.461 20.2474 132.461ZM20.2357 133.258C19.7162 133.258 19.3021 133.428 18.9935 133.768C18.6849 134.107 18.5013 134.582 18.4427 135.191H21.8412C21.8373 134.809 21.7767 134.473 21.6595 134.184C21.5462 133.891 21.3724 133.664 21.138 133.504C20.9037 133.34 20.6029 133.258 20.2357 133.258ZM27.2253 139.117C26.6472 139.117 26.1374 138.998 25.696 138.76C25.2546 138.521 24.9109 138.158 24.6648 137.67C24.4187 137.182 24.2956 136.566 24.2956 135.824C24.2956 135.047 24.4245 134.412 24.6823 133.92C24.9441 133.424 25.3034 133.057 25.7605 132.818C26.2175 132.58 26.737 132.461 27.3191 132.461C27.6394 132.461 27.948 132.494 28.2448 132.561C28.5456 132.623 28.7917 132.703 28.9831 132.801L28.6902 133.615C28.4948 133.537 28.2683 133.467 28.0105 133.404C27.7566 133.342 27.5183 133.311 27.2956 133.311C26.8503 133.311 26.4792 133.406 26.1823 133.598C25.8894 133.789 25.6687 134.07 25.5202 134.441C25.3757 134.812 25.3034 135.27 25.3034 135.812C25.3034 136.332 25.3737 136.775 25.5144 137.143C25.6589 137.51 25.8718 137.791 26.153 137.986C26.4382 138.178 26.7937 138.273 27.2195 138.273C27.5593 138.273 27.8659 138.238 28.1394 138.168C28.4128 138.094 28.6609 138.008 28.8835 137.91V138.777C28.6687 138.887 28.4284 138.971 28.1628 139.029C27.9011 139.088 27.5886 139.117 27.2253 139.117ZM33.588 132.461C34.3497 132.461 34.9259 132.648 35.3165 133.023C35.7071 133.395 35.9024 133.992 35.9024 134.816V139H34.9415V134.881C34.9415 134.346 34.8184 133.945 34.5723 133.68C34.3302 133.414 33.9571 133.281 33.4532 133.281C32.7423 133.281 32.2423 133.482 31.9532 133.885C31.6641 134.287 31.5196 134.871 31.5196 135.637V139H30.547V132.578H31.3321L31.4786 133.504H31.5313C31.668 133.277 31.8419 133.088 32.0528 132.936C32.2638 132.779 32.5001 132.662 32.7618 132.584C33.0235 132.502 33.2989 132.461 33.588 132.461ZM43.5834 135.777C43.5834 136.305 43.5151 136.775 43.3784 137.189C43.2416 137.604 43.0444 137.953 42.7866 138.238C42.5287 138.523 42.2162 138.742 41.8491 138.895C41.4858 139.043 41.0737 139.117 40.6127 139.117C40.183 139.117 39.7885 139.043 39.4291 138.895C39.0737 138.742 38.7651 138.523 38.5034 138.238C38.2455 137.953 38.0444 137.604 37.8998 137.189C37.7592 136.775 37.6889 136.305 37.6889 135.777C37.6889 135.074 37.808 134.477 38.0463 133.984C38.2846 133.488 38.6245 133.111 39.0659 132.854C39.5112 132.592 40.0405 132.461 40.6537 132.461C41.2397 132.461 41.7514 132.592 42.1889 132.854C42.6303 133.115 42.9721 133.494 43.2143 133.99C43.4604 134.482 43.5834 135.078 43.5834 135.777ZM38.6967 135.777C38.6967 136.293 38.7651 136.74 38.9018 137.119C39.0385 137.498 39.2495 137.791 39.5346 137.998C39.8198 138.205 40.187 138.309 40.6362 138.309C41.0815 138.309 41.4467 138.205 41.7319 137.998C42.0209 137.791 42.2338 137.498 42.3705 137.119C42.5073 136.74 42.5756 136.293 42.5756 135.777C42.5756 135.266 42.5073 134.824 42.3705 134.453C42.2338 134.078 42.0229 133.789 41.7377 133.586C41.4526 133.383 41.0834 133.281 40.6303 133.281C39.9623 133.281 39.4721 133.502 39.1596 133.943C38.851 134.385 38.6967 134.996 38.6967 135.777ZM46.3836 139H45.4051V129.883H46.3836V139ZM54.1173 135.777C54.1173 136.305 54.049 136.775 53.9123 137.189C53.7755 137.604 53.5783 137.953 53.3205 138.238C53.0627 138.523 52.7502 138.742 52.383 138.895C52.0197 139.043 51.6076 139.117 51.1466 139.117C50.717 139.117 50.3224 139.043 49.963 138.895C49.6076 138.742 49.299 138.523 49.0373 138.238C48.7795 137.953 48.5783 137.604 48.4338 137.189C48.2931 136.775 48.2228 136.305 48.2228 135.777C48.2228 135.074 48.342 134.477 48.5802 133.984C48.8185 133.488 49.1584 133.111 49.5998 132.854C50.0451 132.592 50.5744 132.461 51.1877 132.461C51.7736 132.461 52.2853 132.592 52.7228 132.854C53.1642 133.115 53.506 133.494 53.7482 133.99C53.9943 134.482 54.1173 135.078 54.1173 135.777ZM49.2306 135.777C49.2306 136.293 49.299 136.74 49.4357 137.119C49.5724 137.498 49.7834 137.791 50.0685 137.998C50.3537 138.205 50.7209 138.309 51.1701 138.309C51.6154 138.309 51.9806 138.205 52.2658 137.998C52.5548 137.791 52.7677 137.498 52.9045 137.119C53.0412 136.74 53.1095 136.293 53.1095 135.777C53.1095 135.266 53.0412 134.824 52.9045 134.453C52.7677 134.078 52.5568 133.789 52.2716 133.586C51.9865 133.383 51.6173 133.281 51.1642 133.281C50.4963 133.281 50.006 133.502 49.6935 133.943C49.3849 134.385 49.2306 134.996 49.2306 135.777ZM57.732 141.883C56.8882 141.883 56.2378 141.725 55.7808 141.408C55.3237 141.096 55.0952 140.656 55.0952 140.09C55.0952 139.688 55.2222 139.344 55.4761 139.059C55.7339 138.773 56.0894 138.584 56.5425 138.49C56.3745 138.412 56.23 138.295 56.1089 138.139C55.9917 137.982 55.9331 137.803 55.9331 137.6C55.9331 137.365 55.9976 137.16 56.1265 136.984C56.2593 136.805 56.4605 136.633 56.73 136.469C56.3941 136.332 56.1206 136.102 55.9097 135.777C55.7027 135.449 55.5991 135.068 55.5991 134.635C55.5991 134.174 55.6948 133.781 55.8862 133.457C56.0777 133.129 56.355 132.879 56.7183 132.707C57.0816 132.535 57.521 132.449 58.0366 132.449C58.1499 132.449 58.2632 132.455 58.3765 132.467C58.4937 132.475 58.605 132.488 58.7105 132.508C58.8159 132.523 58.9077 132.543 58.9859 132.566H61.189V133.193L60.0054 133.34C60.1226 133.492 60.2202 133.676 60.2984 133.891C60.3765 134.105 60.4155 134.344 60.4155 134.605C60.4155 135.246 60.1987 135.756 59.7652 136.135C59.3316 136.51 58.7359 136.697 57.978 136.697C57.7984 136.697 57.6148 136.682 57.4273 136.65C57.2359 136.756 57.0894 136.873 56.9878 137.002C56.8902 137.131 56.8413 137.279 56.8413 137.447C56.8413 137.572 56.8784 137.672 56.9527 137.746C57.0308 137.82 57.1421 137.875 57.2866 137.91C57.4312 137.941 57.605 137.957 57.8081 137.957H58.939C59.6382 137.957 60.1734 138.104 60.5445 138.396C60.9195 138.689 61.107 139.117 61.107 139.68C61.107 140.391 60.8179 140.936 60.2398 141.314C59.6616 141.693 58.8257 141.883 57.732 141.883ZM57.7612 141.121C58.2925 141.121 58.732 141.066 59.0796 140.957C59.4312 140.852 59.6929 140.697 59.8648 140.494C60.0405 140.295 60.1284 140.057 60.1284 139.779C60.1284 139.521 60.0698 139.326 59.9527 139.193C59.8355 139.064 59.6636 138.979 59.437 138.936C59.2105 138.889 58.9331 138.865 58.605 138.865H57.4917C57.2027 138.865 56.9507 138.91 56.7359 139C56.521 139.09 56.355 139.223 56.2378 139.398C56.1245 139.574 56.0679 139.793 56.0679 140.055C56.0679 140.402 56.2144 140.666 56.5073 140.846C56.8003 141.029 57.2183 141.121 57.7612 141.121ZM58.0132 135.988C58.478 135.988 58.8277 135.871 59.062 135.637C59.2964 135.402 59.4136 135.061 59.4136 134.611C59.4136 134.131 59.2945 133.771 59.0562 133.533C58.8179 133.291 58.4663 133.17 58.0015 133.17C57.5562 133.17 57.2124 133.295 56.9702 133.545C56.732 133.791 56.6128 134.152 56.6128 134.629C56.6128 135.066 56.7339 135.402 56.9761 135.637C57.2183 135.871 57.564 135.988 58.0132 135.988ZM63.5673 132.578V139H62.5946V132.578H63.5673ZM63.0927 130.176C63.2528 130.176 63.3895 130.229 63.5028 130.334C63.62 130.436 63.6786 130.596 63.6786 130.814C63.6786 131.029 63.62 131.189 63.5028 131.295C63.3895 131.4 63.2528 131.453 63.0927 131.453C62.9247 131.453 62.7841 131.4 62.6708 131.295C62.5614 131.189 62.5067 131.029 62.5067 130.814C62.5067 130.596 62.5614 130.436 62.6708 130.334C62.7841 130.229 62.9247 130.176 63.0927 130.176ZM68.1721 132.473C68.9377 132.473 69.5061 132.645 69.8772 132.988C70.2483 133.332 70.4338 133.881 70.4338 134.635V139H69.7248L69.5373 138.051H69.4905C69.3108 138.285 69.1233 138.482 68.928 138.643C68.7327 138.799 68.5061 138.918 68.2483 139C67.9944 139.078 67.6819 139.117 67.3108 139.117C66.9202 139.117 66.5725 139.049 66.2678 138.912C65.967 138.775 65.7287 138.568 65.553 138.291C65.3811 138.014 65.2952 137.662 65.2952 137.236C65.2952 136.596 65.5491 136.104 66.0569 135.76C66.5647 135.416 67.3381 135.229 68.3772 135.197L69.4846 135.15V134.758C69.4846 134.203 69.3655 133.814 69.1272 133.592C68.8889 133.369 68.553 133.258 68.1194 133.258C67.7834 133.258 67.4631 133.307 67.1584 133.404C66.8537 133.502 66.5647 133.617 66.2912 133.75L65.9924 133.012C66.2815 132.863 66.6135 132.736 66.9885 132.631C67.3635 132.525 67.758 132.473 68.1721 132.473ZM69.4729 135.836L68.4944 135.877C67.6936 135.908 67.1291 136.039 66.801 136.27C66.4729 136.5 66.3088 136.826 66.3088 137.248C66.3088 137.615 66.4202 137.887 66.6428 138.062C66.8655 138.238 67.1604 138.326 67.5276 138.326C68.0979 138.326 68.5647 138.168 68.928 137.852C69.2912 137.535 69.4729 137.061 69.4729 136.428V135.836Z" fill="#1C180D"/>
<path d="M5.98395 6.33139C5.39885 6.33139 4.87178 6.43294 4.40274 6.63603C3.93853 6.83428 3.54201 7.12441 3.2132 7.50642C2.88922 7.88359 2.64019 8.34055 2.46611 8.87729C2.29203 9.41403 2.20499 10.0185 2.20499 10.6906C2.20499 11.5803 2.34281 12.354 2.61843 13.0117C2.89889 13.6644 3.31474 14.1698 3.86599 14.5276C4.42208 14.8854 5.11597 15.0643 5.94768 15.0643C6.42156 15.0643 6.86643 15.0256 7.28228 14.9483C7.70297 14.8661 8.11157 14.7645 8.50809 14.6436V15.7171C8.12125 15.8622 7.71506 15.9686 7.28954 16.0363C6.86401 16.1088 6.3587 16.1451 5.7736 16.1451C4.69528 16.1451 3.79346 15.9226 3.06813 15.4778C2.34764 15.0281 1.80606 14.3946 1.4434 13.5774C1.08557 12.7602 0.906659 11.7955 0.906659 10.6834C0.906659 9.88066 1.01788 9.14808 1.24031 8.48561C1.46758 7.81831 1.79639 7.24288 2.22675 6.75933C2.66195 6.27578 3.19386 5.90345 3.82247 5.64233C4.45593 5.37638 5.18125 5.2434 5.99846 5.2434C6.5352 5.2434 7.0526 5.29659 7.55066 5.40297C8.04871 5.50935 8.49842 5.66167 8.89976 5.85993L8.40654 6.9044C8.06806 6.74966 7.69572 6.61669 7.28954 6.50547C6.88819 6.38942 6.45299 6.33139 5.98395 6.33139ZM13.6869 7.90535C14.3639 7.90535 14.9442 8.05525 15.4277 8.35505C15.9113 8.65485 16.2812 9.07554 16.5375 9.61712C16.7937 10.1539 16.9219 10.7825 16.9219 11.503V12.2501H11.4312C11.4457 13.1833 11.6778 13.8941 12.1275 14.3825C12.5772 14.8709 13.2106 15.1151 14.0278 15.1151C14.5307 15.1151 14.9756 15.0692 15.3624 14.9773C15.7493 14.8854 16.1506 14.75 16.5665 14.5711V15.6301C16.1651 15.809 15.7662 15.9396 15.3697 16.0218C14.978 16.104 14.5138 16.1451 13.9771 16.1451C13.213 16.1451 12.5457 15.9903 11.9752 15.6809C11.4094 15.3665 10.9694 14.9072 10.6551 14.3027C10.3407 13.6983 10.1836 12.9585 10.1836 12.0832C10.1836 11.2273 10.3262 10.4875 10.6115 9.86373C10.9017 9.23512 11.3078 8.75156 11.8301 8.41308C12.3572 8.07459 12.9761 7.90535 13.6869 7.90535ZM13.6724 8.89179C13.0293 8.89179 12.5167 9.10214 12.1347 9.52283C11.7527 9.94352 11.5254 10.531 11.4529 11.2854H15.6598C15.655 10.8115 15.58 10.3956 15.435 10.0378C15.2947 9.67515 15.0796 9.39469 14.7894 9.19643C14.4993 8.99334 14.127 8.89179 13.6724 8.89179ZM22.7318 7.90535C23.6747 7.90535 24.3879 8.13745 24.8715 8.60166C25.355 9.06104 25.5968 9.80087 25.5968 10.8212V16H24.4073V10.901C24.4073 10.2385 24.2549 9.74284 23.9503 9.41403C23.6505 9.08521 23.1887 8.92081 22.5649 8.92081C21.6849 8.92081 21.0659 9.16984 20.7081 9.66789C20.3503 10.166 20.1713 10.8889 20.1713 11.8366V16H18.9673V8.05041H19.9392L20.1206 9.19643H20.1859C20.3551 8.91597 20.5703 8.68145 20.8314 8.49286C21.0925 8.29944 21.3851 8.15438 21.709 8.05767C22.033 7.95612 22.3739 7.90535 22.7318 7.90535ZM30.6451 15.1586C30.8433 15.1586 31.0464 15.1417 31.2543 15.1078C31.4623 15.074 31.6315 15.0329 31.7621 14.9845V15.9202C31.6218 15.9831 31.426 16.0363 31.1746 16.0798C30.9279 16.1233 30.6862 16.1451 30.4492 16.1451C30.0285 16.1451 29.6465 16.0725 29.3032 15.9275C28.9599 15.7776 28.6843 15.5261 28.4763 15.1731C28.2733 14.8201 28.1717 14.3317 28.1717 13.708V8.99334H27.0402V8.40583L28.179 7.93436L28.6577 6.20808H29.383V8.05041H31.7113V8.99334H29.383V13.6717C29.383 14.1698 29.4966 14.5421 29.7239 14.7887C29.956 15.0353 30.2631 15.1586 30.6451 15.1586ZM36.9844 7.90535C37.144 7.90535 37.3108 7.91502 37.4849 7.93436C37.659 7.94887 37.8137 7.97063 37.9491 7.99964L37.7968 9.11665C37.6662 9.0828 37.5212 9.0562 37.3616 9.03686C37.202 9.01752 37.0521 9.00785 36.9119 9.00785C36.5928 9.00785 36.2905 9.07313 36.0052 9.20369C35.7248 9.32941 35.4782 9.51316 35.2654 9.75493C35.0526 9.99187 34.8858 10.2796 34.7649 10.6181C34.644 10.9517 34.5836 11.3241 34.5836 11.7351V16H33.3723V8.05041H34.3733L34.5038 9.51558H34.5546C34.719 9.22061 34.9172 8.95224 35.1494 8.71046C35.3815 8.46385 35.6498 8.26801 35.9545 8.12295C36.2639 7.97788 36.6073 7.90535 36.9844 7.90535ZM46.3049 12.0107C46.3049 12.6635 46.2203 13.2462 46.051 13.7587C45.8818 14.2713 45.6376 14.7041 45.3184 15.0571C44.9993 15.4101 44.6125 15.6809 44.1579 15.8694C43.7082 16.0532 43.1981 16.1451 42.6275 16.1451C42.0956 16.1451 41.6072 16.0532 41.1623 15.8694C40.7223 15.6809 40.3403 15.4101 40.0163 15.0571C39.6972 14.7041 39.4481 14.2713 39.2692 13.7587C39.0951 13.2462 39.0081 12.6635 39.0081 12.0107C39.0081 11.1403 39.1556 10.4005 39.4505 9.7912C39.7455 9.17709 40.1662 8.71046 40.7126 8.39132C41.2639 8.06734 41.9191 7.90535 42.6782 7.90535C43.4036 7.90535 44.037 8.06734 44.5786 8.39132C45.125 8.7153 45.5481 9.18434 45.8479 9.79845C46.1526 10.4077 46.3049 11.1451 46.3049 12.0107ZM40.2557 12.0107C40.2557 12.649 40.3403 13.2027 40.5095 13.6717C40.6788 14.1407 40.9399 14.5034 41.2929 14.7597C41.6459 15.016 42.1004 15.1441 42.6565 15.1441C43.2077 15.1441 43.6599 15.016 44.0129 14.7597C44.3707 14.5034 44.6342 14.1407 44.8035 13.6717C44.9727 13.2027 45.0573 12.649 45.0573 12.0107C45.0573 11.3772 44.9727 10.8308 44.8035 10.3715C44.6342 9.90725 44.3731 9.54942 44.0201 9.29798C43.6671 9.04653 43.2102 8.92081 42.6492 8.92081C41.8224 8.92081 41.2155 9.19401 40.8287 9.74043C40.4467 10.2868 40.2557 11.0436 40.2557 12.0107ZM55.0741 16.1451C54.0683 16.1451 53.2704 15.8017 52.6805 15.1151C52.0954 14.4285 51.8029 13.4082 51.8029 12.0542C51.8029 10.6858 52.1027 9.65339 52.7023 8.95707C53.3019 8.25592 54.0997 7.90535 55.0958 7.90535C55.5165 7.90535 55.884 7.96096 56.1983 8.07217C56.5127 8.18339 56.7834 8.33329 57.0107 8.52188C57.238 8.70563 57.429 8.91597 57.5837 9.15291H57.6708C57.6514 9.00301 57.6321 8.7975 57.6127 8.53638C57.5934 8.27527 57.5837 8.0625 57.5837 7.8981V4.71391H58.7878V16H57.8158L57.6345 14.8685H57.5837C57.4338 15.1054 57.2428 15.3206 57.0107 15.514C56.7834 15.7075 56.5102 15.8622 56.1911 15.9782C55.8768 16.0895 55.5044 16.1451 55.0741 16.1451ZM55.2627 15.1441C56.1137 15.1441 56.7157 14.9023 57.0687 14.4188C57.4217 13.9352 57.5982 13.2172 57.5982 12.2646V12.047C57.5982 11.0363 57.429 10.2602 57.0905 9.71867C56.7568 9.17709 56.1476 8.9063 55.2627 8.9063C54.5228 8.9063 53.9692 9.1916 53.6017 9.76219C53.2342 10.3279 53.0504 11.1016 53.0504 12.0832C53.0504 13.06 53.2318 13.8143 53.5944 14.3463C53.9619 14.8782 54.518 15.1441 55.2627 15.1441ZM64.4018 7.90535C65.0788 7.90535 65.659 8.05525 66.1426 8.35505C66.6261 8.65485 66.996 9.07554 67.2523 9.61712C67.5086 10.1539 67.6368 10.7825 67.6368 11.503V12.2501H62.146C62.1605 13.1833 62.3926 13.8941 62.8423 14.3825C63.292 14.8709 63.9255 15.1151 64.7427 15.1151C65.2456 15.1151 65.6905 15.0692 66.0773 14.9773C66.4641 14.8854 66.8655 14.75 67.2813 14.5711V15.6301C66.88 15.809 66.4811 15.9396 66.0846 16.0218C65.6929 16.104 65.2287 16.1451 64.6919 16.1451C63.9279 16.1451 63.2606 15.9903 62.69 15.6809C62.1243 15.3665 61.6842 14.9072 61.3699 14.3027C61.0556 13.6983 60.8985 12.9585 60.8985 12.0832C60.8985 11.2273 61.0411 10.4875 61.3264 9.86373C61.6165 9.23512 62.0227 8.75156 62.545 8.41308C63.072 8.07459 63.691 7.90535 64.4018 7.90535ZM64.3873 8.89179C63.7442 8.89179 63.2316 9.10214 62.8496 9.52283C62.4676 9.94352 62.2403 10.531 62.1678 11.2854H66.3747C66.3698 10.8115 66.2949 10.3956 66.1498 10.0378C66.0096 9.67515 65.7944 9.39469 65.5043 9.19643C65.2142 8.99334 64.8418 8.89179 64.3873 8.89179ZM76.7251 16.1451C76.0094 16.1451 75.3784 15.9976 74.832 15.7026C74.2856 15.4076 73.8601 14.9579 73.5554 14.3535C73.2508 13.7491 73.0985 12.9875 73.0985 12.0687C73.0985 11.1065 73.258 10.3207 73.5772 9.71141C73.9012 9.0973 74.346 8.64277 74.9118 8.3478C75.4775 8.05283 76.1207 7.90535 76.8412 7.90535C77.2377 7.90535 77.6197 7.94645 77.9872 8.02866C78.3595 8.10602 78.6641 8.20515 78.9011 8.32604L78.5384 9.33424C78.2966 9.23753 78.0162 9.15049 77.697 9.07313C77.3827 8.99576 77.0878 8.95707 76.8121 8.95707C76.2609 8.95707 75.8015 9.07554 75.434 9.31248C75.0714 9.54942 74.7981 9.89758 74.6144 10.357C74.4355 10.8163 74.346 11.3821 74.346 12.0542C74.346 12.6973 74.4331 13.2462 74.6071 13.7007C74.7861 14.1553 75.0496 14.5034 75.3978 14.7452C75.7507 14.9821 76.1908 15.1006 76.7178 15.1006C77.1385 15.1006 77.5181 15.0571 77.8566 14.97C78.1951 14.8782 78.5022 14.7718 78.7778 14.6509V15.7244C78.5118 15.8598 78.2144 15.9637 77.8856 16.0363C77.5616 16.1088 77.1748 16.1451 76.7251 16.1451ZM87.2278 8.05041V16H86.2414L86.0673 14.883H86.002C85.8376 15.1586 85.6249 15.3907 85.3637 15.5793C85.1026 15.7679 84.8077 15.9081 84.4788 16C84.1549 16.0967 83.8091 16.1451 83.4416 16.1451C82.813 16.1451 82.2859 16.0435 81.8604 15.8404C81.4349 15.6373 81.1133 15.323 80.8957 14.8975C80.683 14.472 80.5766 13.9256 80.5766 13.2583V8.05041H81.7951V13.1712C81.7951 13.8337 81.945 14.3293 82.2448 14.6581C82.5446 14.9821 83.0016 15.1441 83.6157 15.1441C84.2056 15.1441 84.6747 15.0329 85.0228 14.8105C85.3758 14.588 85.6297 14.2616 85.7844 13.8313C85.9392 13.3961 86.0165 12.8642 86.0165 12.2356V8.05041H87.2278ZM94.9163 13.824C94.9163 14.3317 94.7882 14.7597 94.5319 15.1078C94.2804 15.4512 93.9178 15.7099 93.4439 15.8839C92.9749 16.058 92.4139 16.1451 91.7611 16.1451C91.2051 16.1451 90.7239 16.1015 90.3177 16.0145C89.9116 15.9275 89.5561 15.8042 89.2515 15.6446V14.5348C89.5755 14.6944 89.9623 14.8395 90.412 14.97C90.8617 15.1006 91.3211 15.1659 91.7901 15.1659C92.4768 15.1659 92.9749 15.0547 93.2843 14.8322C93.5938 14.6098 93.7485 14.3076 93.7485 13.9256C93.7485 13.708 93.6857 13.517 93.5599 13.3526C93.4391 13.1833 93.2336 13.0213 92.9434 12.8666C92.6533 12.707 92.2519 12.5329 91.7394 12.3444C91.2316 12.1509 90.7916 11.9599 90.4193 11.7713C90.0518 11.5779 89.7665 11.3434 89.5634 11.0678C89.3651 10.7922 89.266 10.4343 89.266 9.99429C89.266 9.32216 89.5368 8.80717 90.0784 8.44934C90.6248 8.08668 91.3404 7.90535 92.2253 7.90535C92.7041 7.90535 93.1513 7.9537 93.5672 8.05041C93.9879 8.14229 94.3796 8.26801 94.7422 8.42759L94.336 9.39227C94.0072 9.25204 93.6567 9.13357 93.2843 9.03686C92.912 8.94015 92.5324 8.89179 92.1456 8.89179C91.5895 8.89179 91.1615 8.98367 90.8617 9.16742C90.5668 9.35117 90.4193 9.60261 90.4193 9.92176C90.4193 10.1684 90.487 10.3715 90.6224 10.531C90.7626 10.6906 90.985 10.8405 91.2897 10.9807C91.5943 11.121 91.9957 11.2854 92.4937 11.474C92.9918 11.6577 93.4221 11.8487 93.7848 12.047C94.1475 12.2404 94.4255 12.4773 94.6189 12.7578C94.8172 13.0334 94.9163 13.3888 94.9163 13.824ZM99.4206 15.1586C99.6188 15.1586 99.8219 15.1417 100.03 15.1078C100.238 15.074 100.407 15.0329 100.538 14.9845V15.9202C100.397 15.9831 100.202 16.0363 99.9501 16.0798C99.7035 16.1233 99.4617 16.1451 99.2248 16.1451C98.8041 16.1451 98.4221 16.0725 98.0787 15.9275C97.7354 15.7776 97.4598 15.5261 97.2519 15.1731C97.0488 14.8201 96.9472 14.3317 96.9472 13.708V8.99334H95.8157V8.40583L96.9545 7.93436L97.4332 6.20808H98.1585V8.05041H100.487V8.99334H98.1585V13.6717C98.1585 14.1698 98.2722 14.5421 98.4994 14.7887C98.7315 15.0353 99.0386 15.1586 99.4206 15.1586ZM109.002 12.0107C109.002 12.6635 108.918 13.2462 108.748 13.7587C108.579 14.2713 108.335 14.7041 108.016 15.0571C107.697 15.4101 107.31 15.6809 106.855 15.8694C106.405 16.0532 105.895 16.1451 105.325 16.1451C104.793 16.1451 104.304 16.0532 103.86 15.8694C103.42 15.6809 103.038 15.4101 102.714 15.0571C102.394 14.7041 102.145 14.2713 101.966 13.7587C101.792 13.2462 101.705 12.6635 101.705 12.0107C101.705 11.1403 101.853 10.4005 102.148 9.7912C102.443 9.17709 102.863 8.71046 103.41 8.39132C103.961 8.06734 104.616 7.90535 105.376 7.90535C106.101 7.90535 106.734 8.06734 107.276 8.39132C107.822 8.7153 108.245 9.18434 108.545 9.79845C108.85 10.4077 109.002 11.1451 109.002 12.0107ZM102.953 12.0107C102.953 12.649 103.038 13.2027 103.207 13.6717C103.376 14.1407 103.637 14.5034 103.99 14.7597C104.343 15.016 104.798 15.1441 105.354 15.1441C105.905 15.1441 106.357 15.016 106.71 14.7597C107.068 14.5034 107.331 14.1407 107.501 13.6717C107.67 13.2027 107.755 12.649 107.755 12.0107C107.755 11.3772 107.67 10.8308 107.501 10.3715C107.331 9.90725 107.07 9.54942 106.717 9.29798C106.364 9.04653 105.907 8.92081 105.347 8.92081C104.52 8.92081 103.913 9.19401 103.526 9.74043C103.144 10.2868 102.953 11.0436 102.953 12.0107Z" fill="#5A4436"/>
<path d="M0 34.1944C0 29.8036 3.55944 26.2441 7.95023 26.2441H127.817C132.208 26.2441 135.767 29.8036 135.767 34.1944V60.7359C135.767 65.1267 132.208 68.6861 127.817 68.6861H7.95022C3.55943 68.6861 0 65.1267 0 60.7359V34.1944Z" fill="#F7F5EB"/>
<path d="M0.530525 34.1944C0.530525 30.0966 3.85244 26.7747 7.95023 26.7747H127.817C131.915 26.7747 135.237 30.0966 135.237 34.1944V60.7359C135.237 64.8337 131.915 68.1556 127.817 68.1556H7.95022C3.85244 68.1556 0.530525 64.8337 0.530525 60.7359V34.1944Z" stroke="#5A4436" stroke-opacity="0.23" stroke-width="1.06105"/>
<path d="M17.5569 41.3462C19.1208 41.3462 20.262 41.6529 20.9804 42.2663C21.7044 42.8742 22.0663 43.7473 22.0663 44.8857C22.0663 45.3997 21.9807 45.8888 21.8094 46.353C21.6436 46.8117 21.3728 47.2178 20.997 47.5715C20.6212 47.9197 20.1266 48.196 19.5132 48.4005C18.9053 48.5994 18.1593 48.6989 17.275 48.6989H15.7995V53.4653H14.3903V41.3462H17.5569ZM17.4243 42.5481H15.7995V47.4886H17.1175C17.8912 47.4886 18.535 47.4057 19.049 47.24C19.5685 47.0742 19.9581 46.8061 20.2178 46.4359C20.4775 46.0601 20.6074 45.5627 20.6074 44.9438C20.6074 44.1369 20.3504 43.5373 19.8365 43.145C19.3225 42.7471 18.5185 42.5481 17.4243 42.5481ZM28.683 44.2143C28.8654 44.2143 29.056 44.2254 29.255 44.2475C29.4539 44.264 29.6307 44.2889 29.7855 44.3221L29.6114 45.5986C29.4622 45.56 29.2964 45.5296 29.114 45.5075C28.9317 45.4854 28.7604 45.4743 28.6001 45.4743C28.2354 45.4743 27.89 45.5489 27.5639 45.6981C27.2434 45.8418 26.9615 46.0518 26.7184 46.3281C26.4752 46.5989 26.2846 46.9277 26.1464 47.3146C26.0083 47.6959 25.9392 48.1214 25.9392 48.5911V53.4653H24.5548V44.3801H25.6988L25.848 46.0546H25.906C26.0939 45.7175 26.3205 45.4107 26.5858 45.1344C26.851 44.8526 27.1577 44.6288 27.5059 44.463C27.8596 44.2972 28.2519 44.2143 28.683 44.2143ZM39.4941 48.9061C39.4941 49.6522 39.3974 50.3181 39.204 50.9039C39.0105 51.4897 38.7315 51.9843 38.3667 52.3877C38.002 52.7911 37.5599 53.1006 37.0404 53.3161C36.5265 53.5261 35.9434 53.6311 35.2913 53.6311C34.6834 53.6311 34.1253 53.5261 33.6169 53.3161C33.114 53.1006 32.6774 52.7911 32.3071 52.3877C31.9424 51.9843 31.6578 51.4897 31.4533 50.9039C31.2544 50.3181 31.1549 49.6522 31.1549 48.9061C31.1549 47.9114 31.3235 47.0659 31.6606 46.3696C31.9977 45.6677 32.4785 45.1344 33.1029 44.7697C33.7329 44.3994 34.4817 44.2143 35.3494 44.2143C36.1783 44.2143 36.9023 44.3994 37.5212 44.7697C38.1457 45.14 38.6292 45.676 38.9719 46.3779C39.32 47.0742 39.4941 47.9169 39.4941 48.9061ZM32.5807 48.9061C32.5807 49.6356 32.6774 50.2684 32.8708 50.8044C33.0642 51.3405 33.3627 51.7549 33.7661 52.0478C34.1695 52.3407 34.689 52.4872 35.3245 52.4872C35.9545 52.4872 36.4712 52.3407 36.8746 52.0478C37.2836 51.7549 37.5848 51.3405 37.7782 50.8044C37.9716 50.2684 38.0683 49.6356 38.0683 48.9061C38.0683 48.1822 37.9716 47.5577 37.7782 47.0327C37.5848 46.5022 37.2863 46.0932 36.8829 45.8059C36.4795 45.5185 35.9573 45.3748 35.3162 45.3748C34.3712 45.3748 33.6777 45.6871 33.2356 46.3115C32.799 46.936 32.5807 47.8009 32.5807 48.9061ZM45.2652 53.6311C44.1157 53.6311 43.2039 53.2388 42.5297 52.454C41.861 51.6693 41.5267 50.5032 41.5267 48.9559C41.5267 47.3919 41.8693 46.2121 42.5546 45.4163C43.2398 44.615 44.1517 44.2143 45.2901 44.2143C45.7709 44.2143 46.1909 44.2779 46.5501 44.405C46.9093 44.5321 47.2188 44.7034 47.4785 44.9189C47.7382 45.1289 47.9565 45.3693 48.1334 45.6401H48.2328C48.2107 45.4688 48.1886 45.2339 48.1665 44.9355C48.1444 44.6371 48.1334 44.3939 48.1334 44.206V40.5669H49.5094V53.4653H48.3986L48.1914 52.1722H48.1334C47.962 52.443 47.7438 52.6889 47.4785 52.9099C47.2188 53.131 46.9065 53.3078 46.5418 53.4405C46.1826 53.5676 45.757 53.6311 45.2652 53.6311ZM45.4807 52.4872C46.4534 52.4872 47.1414 52.2109 47.5448 51.6582C47.9482 51.1056 48.1499 50.2849 48.1499 49.1963V48.9476C48.1499 47.7926 47.9565 46.9056 47.5697 46.2867C47.1884 45.6677 46.492 45.3582 45.4807 45.3582C44.6352 45.3582 44.0024 45.6843 43.5824 46.3364C43.1624 46.983 42.9525 47.8672 42.9525 48.989C42.9525 50.1053 43.1597 50.9674 43.5742 51.5753C43.9942 52.1832 44.6297 52.4872 45.4807 52.4872ZM60.0884 44.3801V53.4653H58.961L58.7621 52.1888H58.6875C58.4996 52.5038 58.2564 52.769 57.958 52.9845C57.6596 53.2001 57.3225 53.3603 56.9467 53.4653C56.5764 53.5759 56.1813 53.6311 55.7613 53.6311C55.0429 53.6311 54.4405 53.5151 53.9542 53.283C53.4679 53.0509 53.1004 52.6916 52.8517 52.2053C52.6086 51.719 52.487 51.0945 52.487 50.3319V44.3801H53.8796V50.2324C53.8796 50.9895 54.0509 51.556 54.3936 51.9318C54.7362 52.302 55.2584 52.4872 55.9603 52.4872C56.6345 52.4872 57.1705 52.3601 57.5684 52.1059C57.9718 51.8517 58.262 51.4786 58.4388 50.9868C58.6156 50.4894 58.7041 49.8815 58.7041 49.1631V44.3801H60.0884ZM66.0916 52.5038C66.3182 52.5038 66.5503 52.4844 66.7879 52.4457C67.0256 52.407 67.219 52.3601 67.3682 52.3048V53.3741C67.2079 53.446 66.9841 53.5068 66.6968 53.5565C66.4149 53.6063 66.1386 53.6311 65.8678 53.6311C65.387 53.6311 64.9504 53.5482 64.5581 53.3824C64.1657 53.2111 63.8507 52.9238 63.6131 52.5203C63.381 52.1169 63.2649 51.5588 63.2649 50.8459V45.4577H61.9718V44.7863L63.2732 44.2475L63.8203 42.2746H64.6493V44.3801H67.3102V45.4577H64.6493V50.8044C64.6493 51.3736 64.7791 51.7992 65.0389 52.081C65.3041 52.3628 65.6551 52.5038 66.0916 52.5038ZM77.2012 48.9061C77.2012 49.6522 77.1044 50.3181 76.911 50.9039C76.7176 51.4897 76.4385 51.9843 76.0738 52.3877C75.7091 52.7911 75.2669 53.1006 74.7475 53.3161C74.2335 53.5261 73.6505 53.6311 72.9984 53.6311C72.3905 53.6311 71.8324 53.5261 71.3239 53.3161C70.821 53.1006 70.3845 52.7911 70.0142 52.3877C69.6495 51.9843 69.3649 51.4897 69.1604 50.9039C68.9614 50.3181 68.862 49.6522 68.862 48.9061C68.862 47.9114 69.0305 47.0659 69.3676 46.3696C69.7047 45.6677 70.1855 45.1344 70.81 44.7697C71.44 44.3994 72.1888 44.2143 73.0564 44.2143C73.8854 44.2143 74.6093 44.3994 75.2283 44.7697C75.8527 45.14 76.3363 45.676 76.6789 46.3779C77.0271 47.0742 77.2012 47.9169 77.2012 48.9061ZM70.2877 48.9061C70.2877 49.6356 70.3845 50.2684 70.5779 50.8044C70.7713 51.3405 71.0697 51.7549 71.4731 52.0478C71.8766 52.3407 72.396 52.4872 73.0316 52.4872C73.6616 52.4872 74.1783 52.3407 74.5817 52.0478C74.9906 51.7549 75.2918 51.3405 75.4852 50.8044C75.6787 50.2684 75.7754 49.6356 75.7754 48.9061C75.7754 48.1822 75.6787 47.5577 75.4852 47.0327C75.2918 46.5022 74.9934 46.0932 74.59 45.8059C74.1866 45.5185 73.6643 45.3748 73.0233 45.3748C72.0783 45.3748 71.3847 45.6871 70.9426 46.3115C70.506 46.936 70.2877 47.8009 70.2877 48.9061Z" fill="#1C180D"/>
<path d="M117.793 45.0527L114.546 48.2925L111.299 45.0527L110.302 46.0501L114.546 50.2943L118.79 46.0501L117.793 45.0527Z" fill="#5A4436"/>
<path d="M167.216 6.33139C166.631 6.33139 166.104 6.43294 165.635 6.63603C165.171 6.83428 164.774 7.12441 164.446 7.50642C164.122 7.88359 163.873 8.34055 163.699 8.87729C163.524 9.41403 163.437 10.0185 163.437 10.6906C163.437 11.5803 163.575 12.354 163.851 13.0117C164.131 13.6644 164.547 14.1698 165.098 14.5276C165.654 14.8854 166.348 15.0643 167.18 15.0643C167.654 15.0643 168.099 15.0256 168.515 14.9483C168.935 14.8661 169.344 14.7645 169.741 14.6436V15.7171C169.354 15.8622 168.947 15.9686 168.522 16.0363C168.096 16.1088 167.591 16.1451 167.006 16.1451C165.928 16.1451 165.026 15.9226 164.301 15.4778C163.58 15.0281 163.038 14.3946 162.676 13.5774C162.318 12.7602 162.139 11.7955 162.139 10.6834C162.139 9.88066 162.25 9.14808 162.473 8.48561C162.7 7.81831 163.029 7.24288 163.459 6.75933C163.894 6.27578 164.426 5.90345 165.055 5.64233C165.688 5.37638 166.414 5.2434 167.231 5.2434C167.768 5.2434 168.285 5.29659 168.783 5.40297C169.281 5.50935 169.731 5.66167 170.132 5.85993L169.639 6.9044C169.3 6.74966 168.928 6.61669 168.522 6.50547C168.121 6.38942 167.685 6.33139 167.216 6.33139ZM174.832 7.91986C175.78 7.91986 176.484 8.13262 176.943 8.55814C177.402 8.98367 177.632 9.66306 177.632 10.5963V16H176.754L176.522 14.825H176.464C176.242 15.1151 176.01 15.3593 175.768 15.5576C175.526 15.751 175.246 15.8985 174.927 16C174.612 16.0967 174.225 16.1451 173.766 16.1451C173.283 16.1451 172.852 16.0604 172.475 15.8912C172.103 15.722 171.808 15.4657 171.59 15.1224C171.377 14.779 171.271 14.3438 171.271 13.8168C171.271 13.0237 171.585 12.4145 172.214 11.9889C172.842 11.5634 173.8 11.3313 175.086 11.2926L176.457 11.2346V10.7486C176.457 10.062 176.31 9.58086 176.015 9.30523C175.72 9.02961 175.304 8.89179 174.767 8.89179C174.351 8.89179 173.955 8.95224 173.577 9.07313C173.2 9.19401 172.842 9.33666 172.504 9.50107L172.134 8.58716C172.492 8.40341 172.903 8.24625 173.367 8.11569C173.831 7.98514 174.32 7.91986 174.832 7.91986ZM176.443 12.0832L175.231 12.134C174.24 12.1727 173.541 12.3347 173.135 12.62C172.729 12.9053 172.526 13.309 172.526 13.8313C172.526 14.2858 172.664 14.6219 172.939 14.8395C173.215 15.0571 173.58 15.1659 174.034 15.1659C174.74 15.1659 175.318 14.97 175.768 14.5784C176.218 14.1867 176.443 13.5992 176.443 12.8158V12.0832ZM182.68 15.1586C182.879 15.1586 183.082 15.1417 183.29 15.1078C183.498 15.074 183.667 15.0329 183.797 14.9845V15.9202C183.657 15.9831 183.461 16.0363 183.21 16.0798C182.963 16.1233 182.721 16.1451 182.485 16.1451C182.064 16.1451 181.682 16.0725 181.338 15.9275C180.995 15.7776 180.72 15.5261 180.512 15.1731C180.309 14.8201 180.207 14.3317 180.207 13.708V8.99334H179.075V8.40583L180.214 7.93436L180.693 6.20808H181.418V8.05041H183.747V8.99334H181.418V13.6717C181.418 14.1698 181.532 14.5421 181.759 14.7887C181.991 15.0353 182.298 15.1586 182.68 15.1586ZM188.468 7.90535C189.145 7.90535 189.726 8.05525 190.209 8.35505C190.693 8.65485 191.063 9.07554 191.319 9.61712C191.575 10.1539 191.703 10.7825 191.703 11.503V12.2501H186.213C186.227 13.1833 186.459 13.8941 186.909 14.3825C187.359 14.8709 187.992 15.1151 188.809 15.1151C189.312 15.1151 189.757 15.0692 190.144 14.9773C190.531 14.8854 190.932 14.75 191.348 14.5711V15.6301C190.947 15.809 190.548 15.9396 190.151 16.0218C189.76 16.104 189.295 16.1451 188.759 16.1451C187.995 16.1451 187.327 15.9903 186.757 15.6809C186.191 15.3665 185.751 14.9072 185.437 14.3027C185.122 13.6983 184.965 12.9585 184.965 12.0832C184.965 11.2273 185.108 10.4875 185.393 9.86373C185.683 9.23512 186.089 8.75156 186.612 8.41308C187.139 8.07459 187.758 7.90535 188.468 7.90535ZM188.454 8.89179C187.811 8.89179 187.298 9.10214 186.916 9.52283C186.534 9.94352 186.307 10.531 186.234 11.2854H190.441C190.437 10.8115 190.362 10.3956 190.216 10.0378C190.076 9.67515 189.861 9.39469 189.571 9.19643C189.281 8.99334 188.908 8.89179 188.454 8.89179ZM195.968 19.5686C194.924 19.5686 194.119 19.3728 193.553 18.9811C192.987 18.5943 192.704 18.0503 192.704 17.3491C192.704 16.8511 192.862 16.4255 193.176 16.0725C193.495 15.7195 193.935 15.485 194.496 15.369C194.288 15.2723 194.109 15.1272 193.959 14.9338C193.814 14.7403 193.742 14.5179 193.742 14.2665C193.742 13.9763 193.821 13.7225 193.981 13.5049C194.145 13.2824 194.394 13.0697 194.728 12.8666C194.312 12.6973 193.974 12.412 193.713 12.0107C193.456 11.6045 193.328 11.1331 193.328 10.5963C193.328 10.0257 193.447 9.53975 193.684 9.13841C193.92 8.73222 194.264 8.42275 194.714 8.20999C195.163 7.99722 195.707 7.89084 196.346 7.89084C196.486 7.89084 196.626 7.8981 196.766 7.9126C196.911 7.92227 197.049 7.9392 197.18 7.96338C197.31 7.98272 197.424 8.0069 197.521 8.03591H200.248V8.81201L198.783 8.99334C198.928 9.18193 199.049 9.40919 199.145 9.67515C199.242 9.9411 199.29 10.2361 199.29 10.56C199.29 11.3531 199.022 11.9841 198.485 12.4532C197.948 12.9174 197.211 13.1495 196.273 13.1495C196.051 13.1495 195.823 13.1301 195.591 13.0914C195.354 13.222 195.173 13.3671 195.047 13.5266C194.926 13.6862 194.866 13.87 194.866 14.0779C194.866 14.2326 194.912 14.3559 195.004 14.4478C195.1 14.5397 195.238 14.6074 195.417 14.6509C195.596 14.6896 195.811 14.7089 196.063 14.7089H197.463C198.328 14.7089 198.991 14.8902 199.45 15.2529C199.914 15.6156 200.146 16.1451 200.146 16.8414C200.146 17.7214 199.788 18.396 199.073 18.865C198.357 19.3341 197.322 19.5686 195.968 19.5686ZM196.005 18.6257C196.662 18.6257 197.206 18.558 197.637 18.4226C198.072 18.292 198.396 18.101 198.609 17.8496C198.826 17.603 198.935 17.308 198.935 16.9647C198.935 16.6455 198.862 16.4038 198.717 16.2394C198.572 16.0798 198.36 15.9734 198.079 15.9202C197.799 15.8622 197.455 15.8332 197.049 15.8332H195.671C195.313 15.8332 195.001 15.8888 194.735 16C194.469 16.1112 194.264 16.2756 194.119 16.4932C193.979 16.7108 193.908 16.9816 193.908 17.3056C193.908 17.7359 194.09 18.0623 194.452 18.2848C194.815 18.512 195.332 18.6257 196.005 18.6257ZM196.316 12.2718C196.892 12.2718 197.325 12.1268 197.615 11.8366C197.905 11.5465 198.05 11.1234 198.05 10.5673C198.05 9.97253 197.903 9.52766 197.608 9.2327C197.313 8.9329 196.877 8.783 196.302 8.783C195.751 8.783 195.325 8.93773 195.025 9.2472C194.73 9.55184 194.583 9.99913 194.583 10.5891C194.583 11.1306 194.733 11.5465 195.033 11.8366C195.332 12.1268 195.76 12.2718 196.316 12.2718ZM208.669 12.0107C208.669 12.6635 208.584 13.2462 208.415 13.7587C208.246 14.2713 208.002 14.7041 207.682 15.0571C207.363 15.4101 206.976 15.6809 206.522 15.8694C206.072 16.0532 205.562 16.1451 204.991 16.1451C204.459 16.1451 203.971 16.0532 203.526 15.8694C203.086 15.6809 202.704 15.4101 202.38 15.0571C202.061 14.7041 201.812 14.2713 201.633 13.7587C201.459 13.2462 201.372 12.6635 201.372 12.0107C201.372 11.1403 201.52 10.4005 201.814 9.7912C202.109 9.17709 202.53 8.71046 203.077 8.39132C203.628 8.06734 204.283 7.90535 205.042 7.90535C205.768 7.90535 206.401 8.06734 206.943 8.39132C207.489 8.7153 207.912 9.18434 208.212 9.79845C208.516 10.4077 208.669 11.1451 208.669 12.0107ZM202.62 12.0107C202.62 12.649 202.704 13.2027 202.873 13.6717C203.043 14.1407 203.304 14.5034 203.657 14.7597C204.01 15.016 204.464 15.1441 205.02 15.1441C205.572 15.1441 206.024 15.016 206.377 14.7597C206.735 14.5034 206.998 14.1407 207.167 13.6717C207.337 13.2027 207.421 12.649 207.421 12.0107C207.421 11.3772 207.337 10.8308 207.167 10.3715C206.998 9.90725 206.737 9.54942 206.384 9.29798C206.031 9.04653 205.574 8.92081 205.013 8.92081C204.186 8.92081 203.579 9.19401 203.193 9.74043C202.811 10.2868 202.62 11.0436 202.62 12.0107ZM214.363 7.90535C214.522 7.90535 214.689 7.91502 214.863 7.93436C215.037 7.94887 215.192 7.97063 215.327 7.99964L215.175 9.11665C215.044 9.0828 214.899 9.0562 214.74 9.03686C214.58 9.01752 214.43 9.00785 214.29 9.00785C213.971 9.00785 213.669 9.07313 213.383 9.20369C213.103 9.32941 212.856 9.51316 212.644 9.75493C212.431 9.99187 212.264 10.2796 212.143 10.6181C212.022 10.9517 211.962 11.3241 211.962 11.7351V16H210.751V8.05041H211.751L211.882 9.51558H211.933C212.097 9.22061 212.295 8.95224 212.528 8.71046C212.76 8.46385 213.028 8.26801 213.333 8.12295C213.642 7.97788 213.985 7.90535 214.363 7.90535ZM218.033 8.05041V16H216.829V8.05041H218.033ZM217.445 5.07657C217.644 5.07657 217.813 5.14185 217.953 5.27241C218.098 5.39814 218.171 5.59639 218.171 5.86718C218.171 6.13313 218.098 6.33139 217.953 6.46195C217.813 6.59251 217.644 6.65779 217.445 6.65779C217.237 6.65779 217.063 6.59251 216.923 6.46195C216.788 6.33139 216.72 6.13313 216.72 5.86718C216.72 5.59639 216.788 5.39814 216.923 5.27241C217.063 5.14185 217.237 5.07657 217.445 5.07657ZM223.56 7.91986C224.508 7.91986 225.211 8.13262 225.67 8.55814C226.13 8.98367 226.36 9.66306 226.36 10.5963V16H225.482L225.25 14.825H225.192C224.969 15.1151 224.737 15.3593 224.495 15.5576C224.254 15.751 223.973 15.8985 223.654 16C223.34 16.0967 222.953 16.1451 222.494 16.1451C222.01 16.1451 221.58 16.0604 221.202 15.8912C220.83 15.722 220.535 15.4657 220.318 15.1224C220.105 14.779 219.998 14.3438 219.998 13.8168C219.998 13.0237 220.313 12.4145 220.941 11.9889C221.57 11.5634 222.527 11.3313 223.814 11.2926L225.185 11.2346V10.7486C225.185 10.062 225.037 9.58086 224.742 9.30523C224.447 9.02961 224.031 8.89179 223.495 8.89179C223.079 8.89179 222.682 8.95224 222.305 9.07313C221.928 9.19401 221.57 9.33666 221.231 9.50107L220.862 8.58716C221.219 8.40341 221.63 8.24625 222.095 8.11569C222.559 7.98514 223.047 7.91986 223.56 7.91986ZM225.17 12.0832L223.959 12.134C222.967 12.1727 222.269 12.3347 221.863 12.62C221.456 12.9053 221.253 13.309 221.253 13.8313C221.253 14.2858 221.391 14.6219 221.667 14.8395C221.942 15.0571 222.307 15.1659 222.762 15.1659C223.468 15.1659 224.046 14.97 224.495 14.5784C224.945 14.1867 225.17 13.5992 225.17 12.8158V12.0832Z" fill="#5A4436"/>
<path d="M161.232 34.1944C161.232 29.8036 164.792 26.2441 169.183 26.2441H289.05C293.44 26.2441 297 29.8036 297 34.1944V60.7359C297 65.1267 293.44 68.6861 289.05 68.6861H169.183C164.792 68.6861 161.232 65.1267 161.232 60.7359V34.1944Z" fill="#F7F5EB"/>
<path d="M161.763 34.1944C161.763 30.0966 165.085 26.7747 169.183 26.7747H289.05C293.147 26.7747 296.469 30.0966 296.469 34.1944V60.7359C296.469 64.8337 293.147 68.1556 289.05 68.1556H169.183C165.085 68.1556 161.763 64.8337 161.763 60.7359V34.1944Z" stroke="#5A4436" stroke-opacity="0.23" stroke-width="1.06105"/>
<path d="M279.025 45.0527L275.778 48.2925L272.532 45.0527L271.534 46.0501L275.778 50.2943L280.023 46.0501L279.025 45.0527Z" fill="#5A4436"/>
<path d="M178 46C178 43.7909 179.791 42 182 42H260C262.209 42 264 43.7909 264 46V50C264 52.2091 262.209 54 260 54H182C179.791 54 178 52.2091 178 50V46Z" fill="#1C180D" fill-opacity="0.12"/>
</svg>
